<?xml version="1.0" encoding="utf-8"?>
<!-- Generator: Adobe Illustrator 25.4.1, SVG Export Plug-In . SVG Version: 6.00 Build 0)  -->
<svg version="1.1" id="Layer_1" xmlns="http://www.w3.org/2000/svg" xmlns:xlink="http://www.w3.org/1999/xlink" x="0px" y="0px"
	 viewBox="0 0 431 178.8" style="enable-background:new 0 0 431 178.8;" xml:space="preserve">
<style type="text/css">
	.st0{fill:url(#Path_1_00000152242123460011890070000001810325300464404894_);}
	.st1{fill:url(#Path_2_00000168076277172615497810000011706153792993721507_);}
	.st2{fill:url(#Path_3_00000096741603569050395940000002460513102133291683_);}
	.st3{fill:#FFFFFF;}
</style>
<g id="Group_68" transform="translate(-205.821 -208.564)">
	<g id="Group_2">
		<g id="Group_1">
			
				<linearGradient id="Path_1_00000054255918295628361880000013387743466889204355_" gradientUnits="userSpaceOnUse" x1="-114.897" y1="832.6716" x2="-114.897" y2="833.1655" gradientTransform="matrix(116.462 0 0 -92.775 13796.8232 77556.3359)">
				<stop  offset="0" style="stop-color:#4AA735"/>
				<stop  offset="1" style="stop-color:#0089AC"/>
			</linearGradient>
			<path id="Path_1" style="fill:url(#Path_1_00000054255918295628361880000013387743466889204355_);" d="M473.8,240.7
				C473.7,240.7,473.8,240.7,473.8,240.7l-21.3-32.2l-2.2,2.7l7.7,16l7.4,13.4l-31.7,0l-0.1,0.3l-5.5,10.8L417.1,272l0,0l-0.3,0.4
				l-4.8,8.8l-5.1,10.1h-4.7h-21.9l-9.9-19.6l-4.9-10.8l-1.8-3.2l-6.1,10.8l6.1,12.5l4.7,9.4l5.5,10.8h11.6l0,0l23.8,0l4.6-0.3
				l5.2-10.3l10.8-20.2l0,0.5l5.2-9.9L440,251h0.9l27.7,0h0l-0.1,0c0,0,0,0,0.1,0l5.4-10.1L473.8,240.7z"/>
			
				<linearGradient id="Path_2_00000001623082152834141830000001376666818163193247_" gradientUnits="userSpaceOnUse" x1="-113.3805" y1="829.7451" x2="-113.3805" y2="830.4951" gradientTransform="matrix(75.375 0 0 -58.028 9056.8857 48455.5234)">
				<stop  offset="0" style="stop-color:#4AA735"/>
				<stop  offset="1" style="stop-color:#0089AC"/>
			</linearGradient>
			<path id="Path_2" style="fill:url(#Path_2_00000001623082152834141830000001376666818163193247_);" d="M535.6,293.5h-29.9
				L477,245.3l-3.8,7.4l26,50.6l36.9,0l12.5-20.3h-4.7L535.6,293.5z"/>
		</g>
		
			<linearGradient id="Path_3_00000152951659596812285220000016589921293954690463_" gradientUnits="userSpaceOnUse" x1="-116.4216" y1="830.1011" x2="-116.4216" y2="830.834" gradientTransform="matrix(257.665 0 0 -60.803 30419.0801 50777.7383)">
			<stop  offset="0" style="stop-color:#4AA735"/>
			<stop  offset="1" style="stop-color:#0089AC"/>
		</linearGradient>
		<path id="Path_3" style="fill:url(#Path_3_00000152951659596812285220000016589921293954690463_);" d="M536.6,240.7l-41,0
			l-26,50.2h-1l0,0.1h-24.1l-34.1-50.1l0,0l-0.2-0.3l-36.9,0l-18.7,31l0,0L343,291.1h-29.4l-8.8-20.2l10-21.2l32-5.3l0.5,0l1.8-3.5
			l-0.1-0.2l-40.4,0l-16.1,30.8l14.6,29.5l0,0l0.2,0.3l0,0h19.1l22.9,0l0,0l30-50l25.4,0l26.7,39.6l-0.8,0h0.8l7.1,10.4l0,0l37.3,0
			l0.1-0.2L476,301l6-11.7l0,0l11-20.6h0l4.1-8.1l4.6-9.1h1.5l25.7,0l6.2,12.8l-26.7,3l0,0l0.2,3.2l0,0h0h0.2l32.1,0l0,0h9l0.1-0.1
			L536.6,240.7z"/>
	</g>
	<g id="Group_67">
		<g id="Group_25">
			<g id="Group_5">
				<g id="Group_3">
					<rect id="Rectangle_1" x="216.6" y="339.7" class="st3" width="1.8" height="13.9"/>
					<rect id="Rectangle_2" x="216.6" y="335.8" class="st3" width="1.9" height="2.7"/>
					<path id="Path_4" class="st3" d="M207,346.6c0,3.4,2.2,7,8.5,7h0v-1.8h-0.7c-3.5,0-5.9-2.1-5.9-5.1c0-3.2,3.1-5.1,5.9-5.1h0.7
						v-1.8h0C210.5,339.7,207,342.5,207,346.6z"/>
					<rect id="Rectangle_3" x="212" y="335.8" class="st3" width="1.9" height="2.7"/>
				</g>
				<g id="Group_4">
					<path id="Path_5" class="st3" d="M331.9,350.6h1.8v-14.8h-1.8V350.6z M317.7,353.6h16v-1.8h-16V353.6z M338.6,335.9v17.7h1.8
						v-17.7L338.6,335.9z"/>
					<path id="Path_6" class="st3" d="M270.7,353.2c-0.3-0.4-0.6-0.8-0.8-1.3l-0.1-0.1h-50.4v1.8H271L270.7,353.2z"/>
					<path id="Path_7" class="st3" d="M270.9,344.8L270.9,344.8c-0.5,1.1-0.8,2.3-0.8,3.5c-0.1,3.9,2.9,7.1,6.8,7.4v-1.8
						c-3.1-0.3-5.3-3.1-5-6.1c0.3-2.6,2.4-4.7,5-5v-1.8c-0.5,0-1.1,0.1-1.6,0.2C273.4,341.7,271.8,343.1,270.9,344.8z"/>
					<path id="Path_8" class="st3" d="M285.1,351.8l-0.1,0.1c-0.2,0.5-0.5,0.9-0.8,1.3l-0.3,0.4h24.5v-1.8H285.1z"/>
					<path id="Path_9" class="st3" d="M284,351.8c0.1-0.2,0.2-0.3,0.2-0.5c0-0.1,0-0.1,0.1-0.2l0-0.1c0.1-0.1,0.1-0.3,0.1-0.4
						c0.2-0.7,0.3-1.5,0.3-2.2c0-1.4-0.4-2.8-1.1-4c-0.7-1.2-1.8-2.1-3-2.7c-0.9-0.4-1.8-0.6-2.7-0.7v1.8c3.1,0.3,5.3,3.1,5,6.1
						c-0.3,2.6-2.3,4.7-5,5v1.8c1-0.1,2-0.3,2.9-0.8l0.1,0c0,0,0.1,0,0.1-0.1l0.1-0.1c0.1-0.1,0.3-0.1,0.4-0.2l0.1-0.1
						c0.2-0.1,0.3-0.2,0.5-0.3c0.1-0.1,0.2-0.2,0.3-0.3l0.1-0.1c0,0,0.1-0.1,0.1-0.1c0.4-0.4,0.8-0.9,1.1-1.5L284,351.8L284,351.8z"
						/>
					<path id="Path_10" class="st3" d="M281.1,355.1L281.1,355.1z"/>
					<rect id="Rectangle_4" x="302.1" y="335.8" class="st3" width="1.9" height="2.7"/>
					<rect id="Rectangle_5" x="246.7" y="339.7" class="st3" width="1.8" height="11"/>
					<rect id="Rectangle_6" x="306.6" y="335.8" class="st3" width="1.9" height="2.7"/>
					<rect id="Rectangle_7" x="306.6" y="339.7" class="st3" width="1.8" height="11"/>
					<rect id="Rectangle_8" x="248.7" y="355.3" class="st3" width="1.9" height="2.7"/>
					<rect id="Rectangle_9" x="244.1" y="355.3" class="st3" width="1.9" height="2.7"/>
					<path id="Path_11" class="st3" d="M296.7,346.6c0,1.5,0.4,2.9,1.3,4h2.4c-1.2-1-1.9-2.5-1.9-4c0-3.3,3-5.1,5.8-5.1h1.2v-1.8
						H305C299.9,339.7,296.7,342.3,296.7,346.6z"/>
					<path id="Path_12" class="st3" d="M313.1,358c3.2,0,3.6-2.5,3.6-4.7v-13.8h-1.8v13.8c0,1.7-0.3,2.8-1.7,2.8
						c-0.3,0-0.6-0.1-0.8-0.2l-0.3-0.1l-0.7,1.7l0.3,0.1C312.1,357.9,312.6,358,313.1,358z"/>
				</g>
			</g>
			<g id="Group_24">
				<g id="Group_10">
					<g id="Group_6">
						<path id="Path_13" class="st3" d="M632.3,341.6c-0.9-0.4-1.8-0.6-2.7-0.7v1.8c3.1,0.3,5.3,3,5,6.1c-0.3,2.6-2.3,4.7-5,5v1.8
							c1-0.1,2-0.3,2.9-0.8l0.1,0c0,0,0.1,0,0.1-0.1l0.1,0c0.2-0.1,0.3-0.2,0.4-0.3c0,0,0.1,0,0.1-0.1c0.2-0.1,0.3-0.2,0.5-0.3
							c0.1-0.1,0.2-0.2,0.4-0.3c0,0,0.1-0.1,0.1-0.1c0.4-0.4,0.8-0.9,1.1-1.5l0.2-0.4h0c0.1-0.2,0.2-0.3,0.2-0.5
							c0-0.1,0-0.1,0.1-0.2l0-0.1c0.1-0.1,0.1-0.3,0.2-0.4c0.2-0.7,0.3-1.5,0.3-2.2c0-1.4-0.4-2.8-1.1-4
							C634.6,343.2,633.6,342.2,632.3,341.6z"/>
						<path id="Path_14" class="st3" d="M622.5,344.9L622.5,344.9c-0.5,1.1-0.8,2.3-0.8,3.5c-0.1,3.9,2.9,7.1,6.8,7.4v-1.8
							c-3.1-0.3-5.3-3.1-5-6.1c0.3-2.6,2.3-4.7,5-5v-1.8c-0.5,0-1.1,0.1-1.6,0.2C625,341.7,623.4,343.1,622.5,344.9z"/>
						<path id="Path_15" class="st3" d="M621.5,351.9l-0.1-0.1h-14.1v1.8h15.3l-0.3-0.4C622,352.8,621.7,352.4,621.5,351.9z"/>
					</g>
					<path id="Path_16" class="st3" d="M602.7,358.1c3.2,0,3.6-2.5,3.6-4.7v-13.8h-1.8v13.8c0,1.7-0.3,2.8-1.7,2.8
						c-0.3,0-0.6-0.1-0.8-0.2l-0.3-0.1l-0.7,1.7l0.3,0.1C601.7,357.9,602.2,358,602.7,358.1z"/>
					<g id="Group_9">
						<path id="Union_1" class="st3" d="M564.8,353.6v-1.8h34.5v1.8H564.8z"/>
						<g id="Group_8">
							<path id="Path_17" class="st3" d="M560.2,358.1c3.2,0,3.6-2.5,3.6-4.7v-13.8h-1.8v13.8c0,1.7-0.3,2.8-1.7,2.8
								c-0.3,0-0.6-0.1-0.8-0.2l-0.3-0.1l-0.7,1.7l0.3,0.1C559.2,357.9,559.7,358,560.2,358.1z"/>
							<rect id="Rectangle_11" x="561.9" y="335.8" class="st3" width="1.9" height="2.7"/>
						</g>
						<path id="Path_18" class="st3" d="M594.4,343.2c0.9,0,1.8,0.4,2.3,1.1c0.6,0.8,0.8,1.7,0.7,2.7v3.8h1.8v-4.1
							c0-1.3-0.4-2.6-1.2-3.6c-0.9-1.2-2.4-1.8-3.9-1.7H589l2.8-5.6h-2l-2.9,5.6l0,0v0l0.8,1.8l0,0L594.4,343.2z"/>
					</g>
				</g>
				<g id="Group_16">
					<g id="Group_11">
						<path id="Path_19" class="st3" d="M445.4,338.2c0-1.6,0.8-2.3,2.2-2.3h0.8v0.9h-0.7c-0.9,0-1.2,0.4-1.2,1.1h2.5v1h-3.6
							L445.4,338.2z"/>
					</g>
					<rect id="Rectangle_12" x="460.6" y="335.9" class="st3" width="1.8" height="17.7"/>
					<g id="Group_12">
						<path id="Path_20" class="st3" d="M411.1,341.6c-0.9-0.4-1.8-0.6-2.7-0.7v1.8c3.1,0.3,5.3,3,5,6.1c-0.3,2.6-2.3,4.7-5,5v1.8
							c1-0.1,2-0.3,2.9-0.8l0.1,0c0,0,0.1,0,0.1-0.1l0.1,0c0.2-0.1,0.3-0.2,0.4-0.3c0,0,0.1,0,0.1-0.1c0.2-0.1,0.3-0.2,0.5-0.3
							c0.1-0.1,0.2-0.2,0.4-0.3c0,0,0.1-0.1,0.1-0.1c0.4-0.4,0.8-0.9,1.1-1.5l0.2-0.4h0c0.1-0.2,0.2-0.3,0.2-0.5
							c0-0.1,0-0.1,0.1-0.2l0-0.1c0.1-0.1,0.1-0.3,0.2-0.4c0.2-0.7,0.3-1.5,0.3-2.2c0-1.4-0.4-2.8-1.1-4
							C413.4,343.2,412.4,342.2,411.1,341.6z"/>
						<path id="Path_21" class="st3" d="M401.3,344.8L401.3,344.8c-0.5,1.1-0.8,2.3-0.8,3.5c-0.1,3.9,2.9,7.1,6.8,7.4v-1.8
							c-3.1-0.3-5.3-3.1-5-6.1c0.3-2.6,2.3-4.7,5-5v-1.8c-0.5,0-1.1,0.1-1.6,0.2C403.8,341.7,402.2,343.1,401.3,344.8z"/>
						<path id="Path_22" class="st3" d="M400.3,351.9l-0.1-0.1h-34.5v1.8h35.6l-0.3-0.4C400.8,352.8,400.5,352.4,400.3,351.9z"/>
					</g>
					<path id="Union_2" class="st3" d="M414.4,353.6l0.3-0.4c0.3-0.4,0.6-0.8,0.8-1.3l0.1-0.1h23.3v1.8H414.4z"/>
					<g id="Group_14">
						<rect id="Rectangle_13" x="358.9" y="335.9" class="st3" width="1.8" height="19.2"/>
						<path id="Path_24" class="st3" d="M353,355.2c-1-0.8-1.5-2-1.4-3.2v-7h-1.8v7.3c0,1.6,0.7,3.2,1.9,4.3c1.5,1.2,3,1.6,5.6,1.6
							h3.4v-1.9h-4.1C355.4,356.2,354.1,355.9,353,355.2z"/>
					</g>
					<rect id="Rectangle_14" x="365.8" y="335.9" class="st3" width="1.8" height="14.8"/>
					<g id="Group_15">
						<path id="Path_25" class="st3" d="M429.1,345.5c0-1.2,0.5-2.3,1.4-3.1c0.8-0.6,1.7-0.9,2.7-0.8c1.2,0,2.4,0.4,3.5,1l0,0
							l0.8-1.6l0,0l0,0c-1.4-0.8-2.9-1.2-4.5-1.2c-1.3,0-2.7,0.4-3.7,1.3c-1.4,1.1-2.2,2.8-2.1,4.6v5.1h1.9L429.1,345.5
							C429.1,345.5,429.1,345.5,429.1,345.5z"/>
					</g>
					<path id="Path_26" class="st3" d="M453.7,352c1.2-1.1,1.9-2.6,1.9-4.3v-11.8h-1.8v11.6c0.1,1.2-0.4,2.5-1.4,3.2
						c-1,0.7-2.1,1-3.2,1h-0.8l-2.4,0l-2.9,0v1.8h5C450.1,353.7,452,353.2,453.7,352z"/>
					<rect id="Rectangle_15" x="446.3" y="339.7" class="st3" width="1.8" height="11"/>
				</g>
				<g id="Group_23">
					<path id="Path_27" class="st3" d="M542.9,358.1c3.2,0,3.6-2.5,3.6-4.7v-13.8h-1.8v13.8c0,1.7-0.3,2.8-1.7,2.8
						c-0.3,0-0.6-0.1-0.8-0.2l-0.3-0.1l-0.7,1.7l0.3,0.1C542,357.9,542.5,358,542.9,358.1z"/>
					<g id="Group_18">
						<path id="Union_3" class="st3" d="M505,353.7v-1.8h32.2v1.8H505z M535.4,350.7v-11h1.8v11L535.4,350.7z"/>
						<rect id="Rectangle_18" x="505" y="335.8" class="st3" width="1.8" height="14.9"/>
					</g>
					<g id="Group_20">
						<path id="Union_4" class="st3" d="M483.4,353.6v-13.9h1.8v13.9H483.4z M482.2,353.6c-6.2,0-8.5-3.6-8.5-7c0-4.1,3.5-7,8.5-7h0
							v1.8h-0.7c-2.8,0-5.9,2-5.9,5.1c0,3,2.4,5.1,5.9,5.1h0.7L482.2,353.6L482.2,353.6z M483.3,338.5v-2.7h1.9v2.7H483.3z
							 M478.8,338.5v-2.7h1.9v2.7H478.8z"/>
					</g>
					<path id="Union_5" class="st3" d="M488.3,353.6v-1.8h13.2v1.8H488.3z"/>
					<path id="Path_29" class="st3" d="M496.6,341.6c0.9,0,1.8,0.4,2.3,1.1c0.6,0.8,0.8,1.7,0.7,2.7v5.4h1.8V345
						c0-1.3-0.4-2.6-1.2-3.6c-0.9-1.2-2.4-1.8-3.9-1.7H492v1.9L496.6,341.6z"/>
					<g id="Group_22">
						<rect id="Rectangle_23" x="530.8" y="355.4" class="st3" width="1.9" height="2.7"/>
						<rect id="Rectangle_24" x="535.4" y="355.4" class="st3" width="1.9" height="2.7"/>
					</g>
				</g>
			</g>
		</g>
		<g id="Group_66">
			<g id="Group_34">
				<g id="Group_26">
					<path id="Path_30" class="st3" d="M217.9,383.4l-0.1,0.2c-0.9,1.2-2.3,2-3.9,2v1.7c2.1,0,4.1-1,5.4-2.7l0.2-0.2L217.9,383.4z"
						/>
					<path id="Path_31" class="st3" d="M213.9,373.2c1.5,0.1,2.9,0.8,3.9,2l0.1,0.2l1.5-1l-0.2-0.2c-1.3-1.7-3.3-2.7-5.4-2.7V373.2z
						"/>
					<path id="Path_32" class="st3" d="M212.8,385.6c-3.4-0.6-5.7-3.9-5.1-7.4c0.5-2.6,2.5-4.6,5.1-5.1v-1.7c-4.4,0.5-7.5,4.5-7,8.8
						c0.4,3.7,3.3,6.5,7,7V385.6z"/>
				</g>
				<g id="Group_27">
					<path id="Path_33" class="st3" d="M249.1,385.1v-13.2h-1.8v10.7L249.1,385.1z"/>
					<path id="Path_34" class="st3" d="M238.4,371.9h-2.2l10.9,15.4h2.3L238.4,371.9z"/>
					<path id="Path_35" class="st3" d="M236.5,374.1v13.2h1.8v-10.6L236.5,374.1z"/>
				</g>
				<g id="Group_28">
					<rect id="Rectangle_25" x="280.6" y="371.7" class="st3" width="1.8" height="15.4"/>
					<path id="Path_36" class="st3" d="M283.4,373.4h2.9c1.6-0.1,3,1.2,3,2.8c0.1,1.6-1.2,3-2.8,3c-0.1,0-0.1,0-0.2,0h-2.9v1.6h3.8
						c2.3-0.2,4.1-2.2,3.9-4.5c0.1-2.5-1.8-4.5-4.3-4.6c-0.2,0-0.3,0-0.5,0h-3V373.4z"/>
					<path id="Path_37" class="st3" d="M288,381.9h-2.2l3.4,5.2h2.3L288,381.9z"/>
				</g>
				<g id="Group_29">
					<rect id="Rectangle_26" x="251.8" y="371.7" class="st3" width="3.9" height="1.7"/>
					<rect id="Rectangle_27" x="259.5" y="371.7" class="st3" width="3.8" height="1.7"/>
					<rect id="Rectangle_28" x="256.7" y="371.7" class="st3" width="1.8" height="15.4"/>
				</g>
				<g id="Group_31">
					<g id="Group_30">
						<rect id="Rectangle_29" x="269.1" y="378.4" class="st3" width="7" height="1.7"/>
						<rect id="Rectangle_30" x="269.1" y="385.4" class="st3" width="7.1" height="1.7"/>
					</g>
					<rect id="Rectangle_31" x="266.3" y="371.7" class="st3" width="1.8" height="15.4"/>
					<rect id="Rectangle_32" x="269.1" y="378.4" class="st3" width="7" height="1.7"/>
					<rect id="Rectangle_33" x="269.1" y="371.7" class="st3" width="7" height="1.7"/>
				</g>
				<g id="Group_33">
					<g id="Group_32">
						<rect id="Rectangle_34" x="225.9" y="378.4" class="st3" width="7" height="1.7"/>
						<rect id="Rectangle_35" x="225.9" y="385.4" class="st3" width="7.1" height="1.7"/>
					</g>
					<rect id="Rectangle_36" x="223.1" y="371.7" class="st3" width="1.8" height="15.4"/>
					<rect id="Rectangle_37" x="225.9" y="378.4" class="st3" width="7" height="1.7"/>
					<rect id="Rectangle_38" x="225.9" y="371.7" class="st3" width="7" height="1.7"/>
				</g>
			</g>
			<g id="Group_37">
				<g id="Group_35">
					<path id="Path_38" class="st3" d="M306.7,385.6c-3-0.3-5-2.7-5-6.2s2-5.9,5-6.2v-1.7c-4,0.3-6.8,3.5-6.8,7.9s2.8,7.6,6.8,7.9
						V385.6z"/>
					<path id="Path_39" class="st3" d="M307.8,371.5v1.7c3.1,0.2,5.2,2.7,5.2,6.2s-2.1,6.1-5.2,6.3v1.7c4.2-0.2,7.1-3.4,7.1-7.9
						S311.9,371.6,307.8,371.5z"/>
				</g>
				<g id="Group_36">
					<rect id="Rectangle_39" x="320.7" y="371.7" class="st3" width="7.1" height="1.7"/>
					<rect id="Rectangle_40" x="317.9" y="371.7" class="st3" width="1.8" height="15.4"/>
					<rect id="Rectangle_41" x="320.7" y="378.3" class="st3" width="7" height="1.7"/>
				</g>
			</g>
			<g id="Group_44">
				<g id="Group_38">
					<rect id="Rectangle_42" x="336.1" y="371.7" class="st3" width="1.8" height="15.4"/>
					<path id="Path_40" class="st3" d="M341.1,371.7H339v1.7h2.2c3.1-0.2,5.7,2.2,5.9,5.2c0,0.2,0,0.4,0,0.6c0,3.7-2.3,6.2-5.9,6.2
						H339v1.7h2.2c4.7,0,7.8-3.2,7.8-7.9C348.9,374.7,345.8,371.7,341.1,371.7z"/>
				</g>
				<rect id="Rectangle_43" x="352.6" y="371.7" class="st3" width="1.8" height="15.4"/>
				<rect id="Rectangle_44" x="375.3" y="371.7" class="st3" width="1.8" height="15.4"/>
				<g id="Group_39">
					<path id="Path_41" class="st3" d="M365.7,373.1c1.5,0.1,3,0.8,3.9,2l0.1,0.2l1.5-1l-0.2-0.2c-1.3-1.7-3.3-2.7-5.4-2.7
						L365.7,373.1z"/>
					<path id="Path_42" class="st3" d="M364.7,380.6h6.7V379h-6.7V380.6z"/>
					<path id="Path_43" class="st3" d="M369.7,381.6v2.3c-1,1.1-2.5,1.7-3.9,1.7v1.7c2.1,0,4.2-0.9,5.6-2.5l0.1-0.1v-3.1
						L369.7,381.6z"/>
					<path id="Path_44" class="st3" d="M364.7,385.6c-3.4-0.7-5.7-4-5-7.4c0.5-2.5,2.5-4.5,5-5v-1.7c-4.4,0.5-7.4,4.5-6.9,8.9
						c0.5,3.6,3.3,6.4,6.9,6.9V385.6z"/>
				</g>
				<g id="Group_40">
					<path id="Path_45" class="st3" d="M399.5,372.6l-1,2.4l4.7,11.8h2L399.5,372.6z"/>
					<path id="Path_46" class="st3" d="M399.8,381h-3.7l-0.7,1.8h5.1L399.8,381z"/>
					<path id="Path_47" class="st3" d="M398.9,371.4H397l-6.2,15.1l-0.1,0.4h2L398.9,371.4z"/>
				</g>
				<g id="Group_41">
					<rect id="Rectangle_45" x="384.7" y="371.7" class="st3" width="1.8" height="15.4"/>
					<rect id="Rectangle_46" x="387.6" y="371.7" class="st3" width="3.8" height="1.7"/>
					<rect id="Rectangle_47" x="379.8" y="371.7" class="st3" width="3.8" height="1.7"/>
				</g>
				<g id="Group_43">
					<g id="Group_42">
						<rect id="Rectangle_48" x="410.6" y="385.4" class="st3" width="6.2" height="1.7"/>
					</g>
					<rect id="Rectangle_49" x="407.8" y="371.7" class="st3" width="1.8" height="15.4"/>
				</g>
			</g>
			<g id="Group_65">
				<g id="Group_45">
					<rect id="Rectangle_50" x="493.6" y="371.7" class="st3" width="1.8" height="15.4"/>
					<path id="Path_48" class="st3" d="M496.4,373.4h2.9c1.6-0.1,3,1.2,3,2.8c0.1,1.6-1.2,3-2.8,3c-0.1,0-0.1,0-0.2,0h-2.9v1.6h3.8
						c2.3-0.2,4.1-2.2,3.9-4.5c0.1-2.5-1.8-4.5-4.3-4.6c-0.2,0-0.3,0-0.5,0h-3V373.4z"/>
				</g>
				<g id="Group_46">
					<rect id="Rectangle_51" x="626.2" y="371.7" class="st3" width="1.8" height="15.4"/>
					<path id="Path_49" class="st3" d="M629,373.4h2.9c1.6-0.1,3,1.2,3,2.8c0.1,1.6-1.2,3-2.8,3c-0.1,0-0.1,0-0.2,0H629v1.6h3.8
						c2.3-0.2,4.1-2.2,3.9-4.5c0.1-2.5-1.8-4.5-4.3-4.6c-0.2,0-0.3,0-0.5,0h-3V373.4z"/>
				</g>
				<g id="Group_47">
					<rect id="Rectangle_52" x="506.7" y="371.7" class="st3" width="1.8" height="15.4"/>
					<path id="Path_50" class="st3" d="M509.5,373.4h2.9c1.6-0.1,3,1.2,3,2.8c0.1,1.6-1.2,3-2.8,3c-0.1,0-0.1,0-0.2,0h-2.9v1.6h3.8
						c2.3-0.2,4.1-2.2,3.9-4.5c0.1-2.5-1.8-4.5-4.3-4.6c-0.2,0-0.3,0-0.5,0h-3V373.4z"/>
					<path id="Path_51" class="st3" d="M514.1,381.9H512l3.4,5.2h2.3L514.1,381.9z"/>
				</g>
				<g id="Group_48">
					<path id="Path_52" class="st3" d="M450.5,384.9v-13.2h-1.8v10.7L450.5,384.9z"/>
					<path id="Path_53" class="st3" d="M439.7,371.7h-2.2l10.9,15.4h2.3L439.7,371.7z"/>
					<path id="Path_54" class="st3" d="M437.9,373.9v13.2h1.8v-10.6L437.9,373.9z"/>
				</g>
				<g id="Group_49">
					<path id="Path_55" class="st3" d="M545.7,384.9v-13.2h-1.8v10.7L545.7,384.9z"/>
					<path id="Path_56" class="st3" d="M535,371.7h-2.2l10.9,15.4h2.3L535,371.7z"/>
					<path id="Path_57" class="st3" d="M533.1,373.9v13.2h1.8v-10.6L533.1,373.9z"/>
				</g>
				<g id="Group_50">
					<rect id="Rectangle_53" x="467.1" y="371.7" class="st3" width="1.8" height="15.4"/>
					<path id="Path_58" class="st3" d="M469.9,373.4h2.9c1.6-0.1,3,1.2,3,2.8c0.1,1.6-1.2,3-2.8,3c-0.1,0-0.1,0-0.2,0h-2.9v1.6h3.8
						c2.3-0.2,4.1-2.2,3.9-4.5c0.1-2.5-1.8-4.5-4.3-4.6c-0.2,0-0.3,0-0.5,0h-3V373.4z"/>
					<path id="Path_59" class="st3" d="M474.5,381.9h-2.2l3.4,5.2h2.3L474.5,381.9z"/>
				</g>
				<g id="Group_51">
					<rect id="Rectangle_54" x="577.9" y="371.7" class="st3" width="1.8" height="15.4"/>
					<path id="Path_60" class="st3" d="M580.7,373.4h2.9c1.6-0.1,3,1.2,3,2.8c0.1,1.6-1.2,3-2.8,3c-0.1,0-0.1,0-0.2,0h-2.9v1.6h3.8
						c2.3-0.2,4.1-2.2,3.9-4.5c0.1-2.5-1.8-4.5-4.3-4.6c-0.2,0-0.3,0-0.5,0h-3V373.4z"/>
					<path id="Path_61" class="st3" d="M585.4,381.9h-2.2l3.4,5.2h2.3L585.4,381.9z"/>
				</g>
				<g id="Group_52">
					<rect id="Rectangle_55" x="453" y="371.7" class="st3" width="3.9" height="1.7"/>
					<rect id="Rectangle_56" x="460.7" y="371.7" class="st3" width="3.8" height="1.7"/>
					<rect id="Rectangle_57" x="457.9" y="371.7" class="st3" width="1.8" height="15.4"/>
				</g>
				<g id="Group_54">
					<g id="Group_53">
						<rect id="Rectangle_58" x="483.5" y="378.4" class="st3" width="7" height="1.7"/>
						<rect id="Rectangle_59" x="483.5" y="385.4" class="st3" width="7.1" height="1.7"/>
					</g>
					<rect id="Rectangle_60" x="480.7" y="371.7" class="st3" width="1.8" height="15.4"/>
					<rect id="Rectangle_61" x="483.5" y="378.4" class="st3" width="7" height="1.7"/>
					<rect id="Rectangle_62" x="483.5" y="371.7" class="st3" width="7" height="1.7"/>
				</g>
				<g id="Group_56">
					<g id="Group_55">
						<rect id="Rectangle_63" x="523.1" y="378.4" class="st3" width="7" height="1.7"/>
						<rect id="Rectangle_64" x="523.1" y="385.4" class="st3" width="7.1" height="1.7"/>
					</g>
					<rect id="Rectangle_65" x="520.3" y="371.7" class="st3" width="1.8" height="15.4"/>
					<rect id="Rectangle_66" x="523.1" y="378.4" class="st3" width="7" height="1.7"/>
					<rect id="Rectangle_67" x="523.1" y="371.7" class="st3" width="7" height="1.7"/>
				</g>
				<g id="Group_58">
					<g id="Group_57">
						<rect id="Rectangle_68" x="552.1" y="378.4" class="st3" width="7" height="1.7"/>
						<rect id="Rectangle_69" x="552.1" y="385.4" class="st3" width="7.1" height="1.7"/>
					</g>
					<rect id="Rectangle_70" x="549.3" y="371.7" class="st3" width="1.8" height="15.4"/>
					<rect id="Rectangle_71" x="552.1" y="378.4" class="st3" width="7" height="1.7"/>
					<rect id="Rectangle_72" x="552.1" y="371.7" class="st3" width="7" height="1.7"/>
				</g>
				<g id="Group_60">
					<g id="Group_59">
						<rect id="Rectangle_73" x="427.8" y="378.4" class="st3" width="7" height="1.7"/>
						<rect id="Rectangle_74" x="427.8" y="385.4" class="st3" width="7.1" height="1.7"/>
					</g>
					<rect id="Rectangle_75" x="425" y="371.7" class="st3" width="1.8" height="15.4"/>
					<rect id="Rectangle_76" x="427.8" y="378.4" class="st3" width="7" height="1.7"/>
					<rect id="Rectangle_77" x="427.8" y="371.7" class="st3" width="7" height="1.7"/>
				</g>
				<rect id="Rectangle_78" x="620.9" y="371.7" class="st3" width="1.8" height="15.4"/>
				<g id="Group_61">
					<path id="Path_62" class="st3" d="M567.9,385.5c-2.4-0.2-3.7-1.8-3.7-4.4v-9.4h-1.8v9.4c0,3.8,2,6,5.6,6.2V385.5z"/>
					<path id="Path_63" class="st3" d="M572.6,371.7v9.4c0,2.7-1.3,4.2-3.7,4.4v1.8c3.5-0.2,5.5-2.5,5.5-6.2v-9.4L572.6,371.7z"/>
				</g>
				<g id="Group_62">
					<path id="Path_64" class="st3" d="M596,379.9v-2c-1.7-0.5-2.9-1-2.9-2.3c0-1.4,1.2-2.3,2.9-2.5v-1.7c-2.8,0.2-4.8,1.9-4.8,4.2
						C591.3,378.5,593.8,379.3,596,379.9z"/>
					<path id="Path_65" class="st3" d="M597.1,373.2c1.3,0.1,2.5,0.7,3.4,1.7l0.2,0.2l1.2-1.3l-0.2-0.2c-1.2-1.3-2.8-2.1-4.6-2.1
						L597.1,373.2z"/>
					<path id="Path_66" class="st3" d="M596,385.6c-1.5-0.2-2.9-0.9-3.9-2l-0.2-0.2l-1.2,1.4l0.1,0.2c1.3,1.5,3.2,2.4,5.2,2.4
						L596,385.6z"/>
					<path id="Path_67" class="st3" d="M597.1,378.2v2c1.8,0.5,3.1,1.1,3.1,2.8c0,1.2-0.8,2.5-3.1,2.7v1.7c3.7-0.2,5-2.4,5-4.5
						C602.1,379.7,599.3,378.9,597.1,378.2z"/>
				</g>
				<g id="Group_64">
					<g id="Group_63">
						<path id="Path_68" class="st3" d="M614.6,380v-1.7h-7.9v-6.7H605v8.4L614.6,380z"/>
						<rect id="Rectangle_79" x="605" y="381.1" class="st3" width="1.8" height="6"/>
					</g>
					<rect id="Rectangle_80" x="615.7" y="371.7" class="st3" width="1.8" height="15.4"/>
				</g>
			</g>
		</g>
	</g>
</g>
</svg>
