<?xml version="1.0" encoding="utf-8"?>
<!-- Generator: Adobe Illustrator 25.4.1, SVG Export Plug-In . SVG Version: 6.00 Build 0)  -->
<svg version="1.1" id="Layer_1" xmlns="http://www.w3.org/2000/svg" xmlns:xlink="http://www.w3.org/1999/xlink" x="0px" y="0px"
	 viewBox="0 0 242.7 182.2" style="enable-background:new 0 0 242.7 182.2;" xml:space="preserve">
<style type="text/css">
	.st0{fill:#444444;}
	.st1{fill:#F6E720;}
	.st2{fill:#F7C70D;}
</style>
<g id="Layer_2_00000098900281565832948220000014360853128225945268_">
	<g id="Layer_1-2">
		<polygon class="st0" points="189.5,86 189.5,93.6 181.9,93.6 181.9,83.6 		"/>
		<polygon class="st0" points="113.6,70.1 113.6,81.6 106,81.6 106,74 		"/>
		<path class="st0" d="M219.9,128.6V72.9l-53.2-17.3V0L60.4,54.2V73l-38,19.3v36.2H0v2.8h242.7v-2.8L219.9,128.6z M159.1,128.6H30
			V97.1l30.4-15.5V117l22.8-0.3v-13.5l-15.2-5V58.8l32.8-16.7l58.4,19L159.1,128.6z M159.1,53.1l-48.8-15.9l48.8-24.9V53.1z
			 M212.3,128.6h-30.4v-14.3l-15.2-4.9V63.6l45.6,14.8L212.3,128.6z"/>
		<path class="st1" d="M166.7,63.6v45.8l15.2,4.9v14.3h30.4V78.4L166.7,63.6z M189.5,93.6h-7.6v-10l7.6,2.5V93.6z"/>
		<polygon class="st2" points="159.1,12.4 159.1,53.1 110.3,37.3 		"/>
		<path class="st1" d="M100.8,42.2L68,58.8v39.4l15.2,4.9v13.5L60.4,117V81.6L30,97.1v31.5h129.1V61.1L100.8,42.2z M113.6,81.6H106
			V74l7.6-3.9V81.6z"/>
		<rect x="159.7" y="141.5" class="st0" width="5.2" height="5.4"/>
		<path class="st0" d="M163.4,150.9c-2.2-0.1-4.4,0.2-6.4,0.9c-1.5,0.6-2.8,1.7-3.6,3.1c-0.9,1.9-1.3,3.9-1.2,6c0,2,0.2,3.9,0.7,5.8
			H57.5v-15.9h-5.6v21.7c0.1,1.2-0.2,2.3-0.8,3.4c-0.5,0.8-1.4,1.2-2.3,1.2l-1.4-0.1v5c1.7,0.1,2.7,0.2,3.1,0.2
			c2.1,0.1,4.1-0.9,5.2-2.7c1.2-1.8,1.8-4.4,1.8-7.7h114.2v-20.3l-2.2-0.2C167.5,151,165.4,150.9,163.4,150.9z M166.1,166.7h-7.5
			c-0.2-0.8-0.4-1.5-0.6-2.2c-0.2-0.9-0.2-1.7-0.2-2.6c-0.1-1.3,0.1-2.6,0.4-3.8c0.2-0.8,0.8-1.4,1.6-1.8c1.1-0.4,2.2-0.6,3.4-0.5
			c0.7,0,1.7,0,2.9,0.1L166.1,166.7L166.1,166.7z"/>
		<path class="st0" d="M190.3,150.3c-1.7-0.2-3.4-0.3-5.2-0.3c-1.8-0.1-3.6,0.2-5.4,0.9c-1.5,0.7-2.6,2-3.1,3.5
			c-0.9,2.4-1.2,5-1.1,7.6c0,6.5,2.9,9.8,8.7,9.8h4.9c0,1.1-0.1,2.2-0.4,3.2c-0.2,0.6-0.6,1.2-1.1,1.6c-0.6,0.3-1.4,0.5-2.1,0.5
			c-2.3-0.1-4.6-0.4-6.8-0.8v5.1c2.4,0.4,4.9,0.7,7.3,0.8c2.6,0,4.6-0.8,5.9-2.3c1.3-1.5,2.1-3.4,2.5-5.3c0.4-2.1,0.5-4.3,0.5-6.4
			v-17.1C193.3,150.7,191.8,150.5,190.3,150.3z M189.2,166.7h-3.5c-1.9,0-3.1-0.5-3.7-1.4c-0.7-1.1-1-2.3-0.9-3.6
			c-0.1-1.4,0.1-2.8,0.6-4.2c0.3-0.8,0.9-1.5,1.6-1.9c0.9-0.4,1.8-0.5,2.8-0.5s2,0.1,3.1,0.2L189.2,166.7L189.2,166.7z"/>
	</g>
</g>
</svg>
