<?xml version="1.0" encoding="utf-8"?>
<!-- Generator: Adobe Illustrator 25.4.1, SVG Export Plug-In . SVG Version: 6.00 Build 0)  -->
<svg version="1.1" id="Layer_1" xmlns="http://www.w3.org/2000/svg" xmlns:xlink="http://www.w3.org/1999/xlink" x="0px" y="0px"
	 viewBox="0 0 144 192.1" style="enable-background:new 0 0 144 192.1;" xml:space="preserve">
<style type="text/css">
	.st0{fill:url(#SVGID_1_);}
	.st1{fill:url(#SVGID_00000082341643835960811210000010253988726989104256_);}
	.st2{fill:url(#SVGID_00000163071124711663820660000018126722522081463209_);}
	.st3{fill:url(#SVGID_00000067207728509323673350000010748461182772669337_);}
	.st4{fill:url(#SVGID_00000018930374195936595740000016456460586261975969_);}
	.st5{fill:url(#SVGID_00000065059536674523976240000008244920694264984464_);}
	.st6{fill:url(#SVGID_00000112602812049053878780000011095408115278030242_);}
	.st7{fill:url(#SVGID_00000023971170424897613210000013733838916697266077_);}
	.st8{fill:url(#SVGID_00000103239310512009336680000014099285143562381198_);}
	.st9{fill:url(#SVGID_00000106112217603396242280000001052805442011079826_);}
	.st10{fill:url(#SVGID_00000174560629222630395620000005577510843097458318_);}
	.st11{fill:url(#SVGID_00000062173540378164033170000011123284368756616124_);}
	.st12{fill:url(#SVGID_00000127012123807782558880000010809902434379160206_);}
	.st13{fill:url(#SVGID_00000124121395453008177600000007748527737334963372_);}
	.st14{fill:url(#SVGID_00000016768359914142025120000004588619121195764638_);}
	.st15{fill:url(#SVGID_00000070801287249305248590000004554327633008515756_);}
	.st16{fill:url(#SVGID_00000142148163899920977120000009575508802112580238_);}
	.st17{fill:url(#SVGID_00000132069039358918597590000009582796354266067117_);}
	.st18{fill:url(#SVGID_00000174580511490733893900000006327308345040877240_);}
	.st19{fill:url(#SVGID_00000160895175316104356630000018074978359715447462_);}
	.st20{fill:url(#SVGID_00000101104304518383541360000011512072227304411821_);}
	.st21{fill:url(#SVGID_00000107552971621830272430000017647647902444373377_);}
	.st22{fill:url(#SVGID_00000142858169603906383930000004524364532559284120_);}
	.st23{fill:url(#SVGID_00000173877928551475567520000013886537874950085291_);}
	.st24{fill:url(#SVGID_00000031168847475568934810000012159175243283941782_);}
	.st25{fill:url(#SVGID_00000183236382873970475460000015828908527067959996_);}
	.st26{fill:url(#SVGID_00000100359470620087163250000007228568817394196874_);}
	.st27{fill:url(#SVGID_00000067929434983554387270000001678374665614767541_);}
	.st28{fill:url(#SVGID_00000105420080147258572100000011114903526926676402_);}
	.st29{fill:url(#SVGID_00000069392318008742022540000009742991665604627339_);}
	.st30{fill:url(#SVGID_00000129895807746322144590000004253154304524752055_);}
	.st31{fill:url(#SVGID_00000147204267020478388570000016678818216438485640_);}
	.st32{fill:url(#SVGID_00000044155948565492887600000003129704162800113577_);}
	.st33{fill:url(#SVGID_00000074409243503851735200000007724957675487257003_);}
	.st34{fill:url(#SVGID_00000077287899080735878060000003071956727463093688_);}
	.st35{fill:url(#SVGID_00000183214794503887339500000006932715089650606466_);}
	.st36{fill:url(#SVGID_00000134962192532190669760000002530129978410250415_);}
	.st37{fill:url(#SVGID_00000101063242252678614780000001981725387574351004_);}
	.st38{fill:url(#SVGID_00000093150054921326921030000007516674209806903734_);}
	.st39{fill:url(#SVGID_00000163066582931561826550000013494381806943349905_);}
	.st40{fill:url(#SVGID_00000162349924915908175600000008584284339964977584_);}
	.st41{fill:url(#SVGID_00000147925478392782561730000014752308001401530004_);}
	.st42{fill:url(#SVGID_00000065062294825715060910000016323106986630963339_);}
	.st43{fill:url(#SVGID_00000145780822005756427250000016406280590032478858_);}
	.st44{fill:url(#SVGID_00000182505579406123666400000009944320996398761663_);}
	.st45{fill:url(#SVGID_00000118381639592661185690000012177400515114630543_);}
	.st46{fill:url(#SVGID_00000023261979300145434250000000550928514971870891_);}
	.st47{fill:url(#SVGID_00000017475935145353331970000006578952254514653581_);}
	.st48{fill:url(#SVGID_00000132771962546725011910000012183549151627913367_);}
	.st49{fill:url(#SVGID_00000005262282637844601760000006597384841896329377_);}
	.st50{fill:url(#SVGID_00000057835378359244072830000008081568134089570176_);}
	.st51{fill:url(#SVGID_00000114055260338961171760000009551113177881649057_);}
	.st52{fill:url(#SVGID_00000078016341405264879110000017911943128787649185_);}
	.st53{fill:url(#SVGID_00000158019892249754885130000017317214950711143818_);}
	.st54{fill:url(#SVGID_00000108293181505911135890000004523035067715521155_);}
	.st55{fill:url(#SVGID_00000062887078964016103340000006559166655587179191_);}
	.st56{fill:url(#SVGID_00000158004276310495110940000009246418485911094417_);}
	.st57{fill:url(#SVGID_00000159432177870020541120000018399127617829598871_);}
	.st58{fill:url(#SVGID_00000160155766527383707480000008367961928224129433_);}
	.st59{fill:url(#SVGID_00000035504942782216581330000003673719964918129547_);}
	.st60{fill:url(#SVGID_00000025439904172094479900000010627887178872767105_);}
	.st61{fill:#FFFFFF;}
</style>
<g id="Layer_2_00000112629139457598703900000012095623306482296491_">
	<g id="Layer_1-2">
		
			<linearGradient id="SVGID_1_" gradientUnits="userSpaceOnUse" x1="24.9624" y1="182.8009" x2="75.2724" y2="55.1109" gradientTransform="matrix(1 0 0 -1 0 194)">
			<stop  offset="0" style="stop-color:#5B9A43"/>
			<stop  offset="1" style="stop-color:#009F8E"/>
		</linearGradient>
		<path class="st0" d="M55.4,79.3c-0.1,0.5,0.3,0.9,0.8,0.9c0.5,0.1,0.9-0.3,0.9-0.8c0-0.1,0-0.1,0-0.2c0-2.9-2.4-5.3-5.3-5.3
			c-2.9,0-5.3,2.4-5.3,5.3c0,2.9,2.4,5.3,5.3,5.3c0,0,0,0,0,0c0.5,0.1,0.9-0.3,0.9-0.8c0.1-0.5-0.3-0.9-0.8-0.9c-0.1,0-0.1,0-0.2,0
			c-2,0-3.6-1.6-3.6-3.6c0-2,1.6-3.6,3.6-3.6C53.8,75.8,55.4,77.4,55.4,79.3z"/>
		
			<linearGradient id="SVGID_00000121968352884507478640000012445023901715775133_" gradientUnits="userSpaceOnUse" x1="24.1926" y1="182.501" x2="74.5026" y2="54.801" gradientTransform="matrix(1 0 0 -1 0 194)">
			<stop  offset="0" style="stop-color:#5B9A43"/>
			<stop  offset="1" style="stop-color:#009F8E"/>
		</linearGradient>
		<circle style="fill:url(#SVGID_00000121968352884507478640000012445023901715775133_);" cx="51.2" cy="80" r="1.2"/>
		
			<linearGradient id="SVGID_00000067958775919551373510000001604705777968470144_" gradientUnits="userSpaceOnUse" x1="25.1668" y1="182.8808" x2="75.4768" y2="55.1908" gradientTransform="matrix(1 0 0 -1 0 194)">
			<stop  offset="0" style="stop-color:#5B9A43"/>
			<stop  offset="1" style="stop-color:#009F8E"/>
		</linearGradient>
		<path style="fill:url(#SVGID_00000067958775919551373510000001604705777968470144_);" d="M60.9,79.4c0-4.8-3.9-8.8-8.8-8.8
			c-0.5,0.1-0.8,0.5-0.8,0.9c0,0.4,0.4,0.7,0.8,0.8c3.9,0,7.1,3.2,7,7.1c0,3.9-3.2,7.1-7.1,7c-3.9,0-7-3.2-7-7.1
			c0.1-0.5-0.3-0.9-0.8-0.9c-0.5-0.1-0.9,0.3-0.9,0.8c0,0.1,0,0.1,0,0.2c0,4.8,3.9,8.8,8.8,8.8C56.9,88.2,60.8,84.3,60.9,79.4
			L60.9,79.4z"/>
		
			<linearGradient id="SVGID_00000176727736851373273800000012409098787412640154_" gradientUnits="userSpaceOnUse" x1="28.885" y1="184.3562" x2="79.195" y2="56.6562" gradientTransform="matrix(1 0 0 -1 0 194)">
			<stop  offset="0" style="stop-color:#5B9A43"/>
			<stop  offset="1" style="stop-color:#009F8E"/>
		</linearGradient>
		<path style="fill:url(#SVGID_00000176727736851373273800000012409098787412640154_);" d="M55.2,91.8h0.1c4.1-0.6,7.7-3,9.7-6.6
			c0.2-0.4,0.1-0.9-0.3-1.2c-0.4-0.2-0.9-0.1-1.2,0.3c-1.8,3.1-4.9,5.2-8.5,5.7c-0.5,0.1-0.8,0.5-0.7,1c0,0,0,0,0,0
			C54.4,91.5,54.7,91.8,55.2,91.8z"/>
		
			<linearGradient id="SVGID_00000174578647044251895440000008806966159718650267_" gradientUnits="userSpaceOnUse" x1="23.0466" y1="182.0562" x2="73.3666" y2="54.3562" gradientTransform="matrix(1 0 0 -1 0 194)">
			<stop  offset="0" style="stop-color:#5B9A43"/>
			<stop  offset="1" style="stop-color:#009F8E"/>
		</linearGradient>
		<path style="fill:url(#SVGID_00000174578647044251895440000008806966159718650267_);" d="M40.1,78.6c0,4.8,2.6,9.3,6.9,11.6
			c0.1,0.1,0.3,0.1,0.4,0.1c0.5,0,0.9-0.4,0.9-0.8c0-0.3-0.2-0.6-0.5-0.8c-5.6-3.1-7.6-10.2-4.5-15.8c2.1-3.7,5.9-6,10.2-6
			c0.5,0.1,0.9-0.3,0.9-0.8c0.1-0.5-0.3-0.9-0.8-0.9c-0.1,0-0.1,0-0.2,0C46.1,65.2,40.1,71.2,40.1,78.6
			C40.1,78.5,40.1,78.5,40.1,78.6z"/>
		
			<linearGradient id="SVGID_00000008115175770479492140000003873535039243871364_" gradientUnits="userSpaceOnUse" x1="36.7875" y1="187.459" x2="87.0975" y2="59.769" gradientTransform="matrix(1 0 0 -1 0 194)">
			<stop  offset="0" style="stop-color:#5B9A43"/>
			<stop  offset="1" style="stop-color:#009F8E"/>
		</linearGradient>
		<path style="fill:url(#SVGID_00000008115175770479492140000003873535039243871364_);" d="M59.8,66.8c-0.4-0.2-0.9-0.1-1.2,0.3
			c-0.2,0.4-0.1,0.9,0.3,1.2c1.6,0.9,3.1,2.2,4.1,3.7c0.2,0.2,0.4,0.4,0.7,0.4c0.2,0,0.3,0,0.5-0.1c0.4-0.3,0.5-0.8,0.2-1.2
			C63.3,69.3,61.7,67.9,59.8,66.8z"/>
		
			<linearGradient id="SVGID_00000144336243453287453900000005369205099161725610_" gradientUnits="userSpaceOnUse" x1="26.1919" y1="183.2908" x2="76.5119" y2="55.5908" gradientTransform="matrix(1 0 0 -1 0 194)">
			<stop  offset="0" style="stop-color:#5B9A43"/>
			<stop  offset="1" style="stop-color:#009F8E"/>
		</linearGradient>
		<path style="fill:url(#SVGID_00000144336243453287453900000005369205099161725610_);" d="M37.7,65.1c0.1,0.1,0.3,0.1,0.5,0.2
			c0.3,0,0.5-0.1,0.7-0.4c3.3-4.8,8.4-7.9,14.2-8.7c0.5-0.1,0.8-0.5,0.7-1c-0.1-0.5-0.5-0.8-1-0.7l0,0c-6.2,0.9-11.8,4.3-15.3,9.5
			C37.2,64.3,37.3,64.9,37.7,65.1C37.7,65.1,37.7,65.1,37.7,65.1z"/>
		
			<linearGradient id="SVGID_00000082338327518562143020000000030920159438118050_" gradientUnits="userSpaceOnUse" x1="44.2717" y1="190.4167" x2="94.5817" y2="62.7167" gradientTransform="matrix(1 0 0 -1 0 194)">
			<stop  offset="0" style="stop-color:#5B9A43"/>
			<stop  offset="1" style="stop-color:#009F8E"/>
		</linearGradient>
		<path style="fill:url(#SVGID_00000082338327518562143020000000030920159438118050_);" d="M57.7,55.2c-0.1,0.5,0.3,0.9,0.7,0.9
			c0,0,0,0,0,0c9.1,1.1,16.5,8.1,18.1,17.1c0.1,0.4,0.4,0.7,0.8,0.7h0.2c0.5-0.1,0.8-0.5,0.7-1c0,0,0,0,0,0
			c-1.7-9.8-9.7-17.4-19.5-18.5C58.1,54.4,57.7,54.7,57.7,55.2C57.7,55.2,57.7,55.2,57.7,55.2z"/>
		
			<linearGradient id="SVGID_00000046302613672552575770000016509829091370742427_" gradientUnits="userSpaceOnUse" x1="42.5127" y1="189.7171" x2="92.8227" y2="62.0271" gradientTransform="matrix(1 0 0 -1 0 194)">
			<stop  offset="0" style="stop-color:#5B9A43"/>
			<stop  offset="1" style="stop-color:#009F8E"/>
		</linearGradient>
		<path style="fill:url(#SVGID_00000046302613672552575770000016509829091370742427_);" d="M71.8,92.3c0.2,0,0.5-0.1,0.6-0.3
			c3.1-3.3,5.1-7.5,5.8-11.9c0.1-0.5-0.3-0.9-0.7-1s-0.9,0.3-1,0.7c-0.6,4.1-2.5,8-5.3,11c-0.3,0.3-0.3,0.9,0,1.2
			C71.4,92.3,71.6,92.3,71.8,92.3z"/>
		
			<linearGradient id="SVGID_00000057828504189838173450000003378383491159379612_" gradientUnits="userSpaceOnUse" x1="23.2071" y1="182.1191" x2="73.5271" y2="54.4192" gradientTransform="matrix(1 0 0 -1 0 194)">
			<stop  offset="0" style="stop-color:#5B9A43"/>
			<stop  offset="1" style="stop-color:#009F8E"/>
		</linearGradient>
		<path style="fill:url(#SVGID_00000057828504189838173450000003378383491159379612_);" d="M68.7,93.2c-8,6.2-19.2,5.8-26.7-1
			c-0.4-0.3-0.9-0.3-1.2,0.1c-0.3,0.3-0.3,0.9,0,1.2c0,0,0,0,0,0c8.1,7.3,20.3,7.7,28.9,1c0.3-0.4,0.3-0.9-0.1-1.2
			C69.4,93,69.1,93,68.7,93.2L68.7,93.2z"/>
		
			<linearGradient id="SVGID_00000109714393182292959030000002642772468576879003_" gradientUnits="userSpaceOnUse" x1="12.728" y1="177.9813" x2="63.038" y2="50.2913" gradientTransform="matrix(1 0 0 -1 0 194)">
			<stop  offset="0" style="stop-color:#5B9A43"/>
			<stop  offset="1" style="stop-color:#009F8E"/>
		</linearGradient>
		<path style="fill:url(#SVGID_00000109714393182292959030000002642772468576879003_);" d="M38.9,91.5c0.3,0.4,0.8,0.4,1.2,0.1
			s0.4-0.8,0.1-1.2c-5.5-6.4-6.6-15.6-2.7-23.2c0.2-0.4,0-0.9-0.4-1.1c-0.4-0.2-0.8,0-1.1,0.3C31.8,74.6,32.9,84.5,38.9,91.5
			L38.9,91.5z"/>
		
			<linearGradient id="SVGID_00000157284113834054948080000012095237548035232649_" gradientUnits="userSpaceOnUse" x1="30.6718" y1="185.0607" x2="80.9918" y2="57.3607" gradientTransform="matrix(1 0 0 -1 0 194)">
			<stop  offset="0" style="stop-color:#5B9A43"/>
			<stop  offset="1" style="stop-color:#009F8E"/>
		</linearGradient>
		<path style="fill:url(#SVGID_00000157284113834054948080000012095237548035232649_);" d="M58.3,49.5c0-0.5-0.4-0.9-0.9-0.8
			c-7.2,0-14.1,2.8-19.2,7.9c-0.3,0.3-0.3,0.9,0,1.2c0.3,0.3,0.9,0.3,1.2,0c4.8-4.8,11.2-7.5,18-7.4C57.9,50.3,58.3,50,58.3,49.5z"
			/>
		
			<linearGradient id="SVGID_00000128445546788595153990000003802799842877833660_" gradientUnits="userSpaceOnUse" x1="50.4058" y1="192.8302" x2="100.7159" y2="65.1302" gradientTransform="matrix(1 0 0 -1 0 194)">
			<stop  offset="0" style="stop-color:#5B9A43"/>
			<stop  offset="1" style="stop-color:#009F8E"/>
		</linearGradient>
		<path style="fill:url(#SVGID_00000128445546788595153990000003802799842877833660_);" d="M83.7,76.6c0.5,0,0.8-0.4,0.8-0.8
			c0-12.5-8.5-23.3-20.6-26.3c-0.4-0.1-0.9,0.2-1,0.6c-0.1,0.4,0.2,0.9,0.6,1c11.3,2.8,19.3,13,19.2,24.7
			C82.9,76.2,83.2,76.6,83.7,76.6z"/>
		
			<linearGradient id="SVGID_00000083052136798571847930000011199846970995543967_" gradientUnits="userSpaceOnUse" x1="46.0103" y1="191.1001" x2="96.3203" y2="63.4001" gradientTransform="matrix(1 0 0 -1 0 194)">
			<stop  offset="0" style="stop-color:#5B9A43"/>
			<stop  offset="1" style="stop-color:#009F8E"/>
		</linearGradient>
		<path style="fill:url(#SVGID_00000083052136798571847930000011199846970995543967_);" d="M76.5,94.7c0.2,0,0.5-0.1,0.6-0.3
			c3.1-3.3,5.4-7.3,6.6-11.6c0.1-0.4-0.2-0.9-0.6-1c-0.4-0.1-0.9,0.2-1,0.6c-1.1,4.1-3.2,7.8-6.1,10.9c-0.3,0.4-0.3,0.9,0.1,1.2
			C76.1,94.7,76.3,94.8,76.5,94.7L76.5,94.7z"/>
		
			<linearGradient id="SVGID_00000171712323543180618410000015003401445584699010_" gradientUnits="userSpaceOnUse" x1="23.1681" y1="182.1035" x2="73.4781" y2="54.4035" gradientTransform="matrix(1 0 0 -1 0 194)">
			<stop  offset="0" style="stop-color:#5B9A43"/>
			<stop  offset="1" style="stop-color:#009F8E"/>
		</linearGradient>
		<path style="fill:url(#SVGID_00000171712323543180618410000015003401445584699010_);" d="M73,98c0.4-0.3,0.5-0.8,0.2-1.2
			s-0.8-0.5-1.2-0.2c-9.4,6.6-22,6.1-30.8-1.3c-0.3-0.3-0.9-0.3-1.2,0.1c0,0,0,0,0,0c-0.3,0.4-0.2,0.9,0.1,1.2
			C49.5,104.5,63,105,73,98z"/>
		
			<linearGradient id="SVGID_00000045597295527415315340000008302458675100190910_" gradientUnits="userSpaceOnUse" x1="9.838" y1="176.8453" x2="60.148" y2="49.1453" gradientTransform="matrix(1 0 0 -1 0 194)">
			<stop  offset="0" style="stop-color:#5B9A43"/>
			<stop  offset="1" style="stop-color:#009F8E"/>
		</linearGradient>
		<path style="fill:url(#SVGID_00000045597295527415315340000008302458675100190910_);" d="M37,93.6c0.2,0.2,0.4,0.3,0.6,0.3
			c0.5,0,0.9-0.4,0.9-0.9c0-0.2-0.1-0.4-0.2-0.6c-6.2-7.1-7.9-17-4.6-25.8c0.2-0.4,0-0.9-0.5-1.1c0,0,0,0,0,0
			c-0.4-0.2-0.9,0-1.1,0.5C28.5,75.4,30.4,86,37,93.6z"/>
		
			<linearGradient id="SVGID_00000044865414693250174460000001889992818680135345_" gradientUnits="userSpaceOnUse" x1="31.355" y1="185.3238" x2="81.665" y2="57.6238" gradientTransform="matrix(1 0 0 -1 0 194)">
			<stop  offset="0" style="stop-color:#5B9A43"/>
			<stop  offset="1" style="stop-color:#009F8E"/>
		</linearGradient>
		<path style="fill:url(#SVGID_00000044865414693250174460000001889992818680135345_);" d="M36,55.6c0.2,0,0.5-0.1,0.6-0.3
			c2.8-3.2,6.3-5.7,10.3-7.5c3.8-1.7,7.9-2.5,12-2.5c0.5,0.1,0.9-0.3,0.9-0.8s-0.3-0.9-0.8-0.9c-0.1,0-0.1,0-0.2,0
			c-4.4,0-8.7,0.9-12.7,2.7c-4.1,1.8-7.8,4.5-10.8,7.9c-0.3,0.3-0.3,0.9,0,1.2C35.5,55.5,35.8,55.6,36,55.6z"/>
		
			<linearGradient id="SVGID_00000039824586322882455730000016627697365286410881_" gradientUnits="userSpaceOnUse" x1="53.4625" y1="194.0331" x2="103.7825" y2="66.3431" gradientTransform="matrix(1 0 0 -1 0 194)">
			<stop  offset="0" style="stop-color:#5B9A43"/>
			<stop  offset="1" style="stop-color:#009F8E"/>
		</linearGradient>
		<path style="fill:url(#SVGID_00000039824586322882455730000016627697365286410881_);" d="M75.4,48.2c-3.8-2.4-8.1-3.8-12.6-4.4
			c-0.5-0.1-0.9,0.2-1,0.7c0,0,0,0,0,0c-0.1,0.5,0.3,0.9,0.8,1c4.2,0.5,8.3,1.9,11.9,4.2c4.2,2.6,7.7,6.1,10.2,10.4
			c0.2,0.3,0.4,0.4,0.7,0.4c0.2,0,0.3,0,0.4-0.1c0.4-0.2,0.5-0.8,0.3-1.2C83.5,54.7,79.8,50.9,75.4,48.2z"/>
		
			<linearGradient id="SVGID_00000067946313447852739820000010937352635210674106_" gradientUnits="userSpaceOnUse" x1="52.1094" y1="193.4976" x2="102.4193" y2="65.8076" gradientTransform="matrix(1 0 0 -1 0 194)">
			<stop  offset="0" style="stop-color:#5B9A43"/>
			<stop  offset="1" style="stop-color:#009F8E"/>
		</linearGradient>
		<path style="fill:url(#SVGID_00000067946313447852739820000010937352635210674106_);" d="M81.6,96.8c0.2,0,0.5-0.1,0.6-0.3
			c5.3-5.8,8.3-13.4,8.3-21.3c0.1-0.5-0.3-0.9-0.8-0.9c-0.5-0.1-0.9,0.3-0.9,0.8c0,0.1,0,0.1,0,0.2c0,7.5-2.8,14.7-7.8,20.2
			c-0.3,0.4-0.3,0.9,0.1,1.2C81.1,96.7,81.3,96.8,81.6,96.8z"/>
		
			<linearGradient id="SVGID_00000022518567779472906610000008782159615176882608_" gradientUnits="userSpaceOnUse" x1="31.3923" y1="185.337" x2="81.7123" y2="57.647" gradientTransform="matrix(1 0 0 -1 0 194)">
			<stop  offset="0" style="stop-color:#5B9A43"/>
			<stop  offset="1" style="stop-color:#009F8E"/>
		</linearGradient>
		<path style="fill:url(#SVGID_00000022518567779472906610000008782159615176882608_);" d="M58.9,106.8c7.1,0,14-2.3,19.6-6.8
			c0.4-0.3,0.4-0.8,0.1-1.2s-0.8-0.4-1.2-0.1c-5.3,4.1-11.8,6.4-18.5,6.3c-0.5,0-0.9,0.4-0.8,0.9C58,106.3,58.4,106.7,58.9,106.8
			C58.9,106.7,58.9,106.8,58.9,106.8z"/>
		
			<linearGradient id="SVGID_00000149379239318670645340000013426416770403589776_" gradientUnits="userSpaceOnUse" x1="13.9464" y1="178.4686" x2="64.2564" y2="50.7686" gradientTransform="matrix(1 0 0 -1 0 194)">
			<stop  offset="0" style="stop-color:#5B9A43"/>
			<stop  offset="1" style="stop-color:#009F8E"/>
		</linearGradient>
		<path style="fill:url(#SVGID_00000149379239318670645340000013426416770403589776_);" d="M54.6,106.5h0.1c0.5,0,0.9-0.4,0.8-0.9
			c0-0.4-0.3-0.8-0.7-0.8c-4.3-0.6-8.4-2.1-12.1-4.4c-0.4-0.3-0.9-0.1-1.2,0.3c0,0,0,0,0,0c-0.3,0.4-0.1,0.9,0.3,1.2
			C45.7,104.2,50.1,105.9,54.6,106.5z"/>
		
			<linearGradient id="SVGID_00000140706017261126192870000002238603670439557538_" gradientUnits="userSpaceOnUse" x1="5.5312" y1="175.1502" x2="55.8412" y2="47.4502" gradientTransform="matrix(1 0 0 -1 0 194)">
			<stop  offset="0" style="stop-color:#5B9A43"/>
			<stop  offset="1" style="stop-color:#009F8E"/>
		</linearGradient>
		<path style="fill:url(#SVGID_00000140706017261126192870000002238603670439557538_);" d="M38,98.8c0.2,0.1,0.4,0.2,0.6,0.2
			c0.2,0,0.5-0.1,0.6-0.3c0.3-0.3,0.3-0.9-0.1-1.2c0,0,0,0,0,0c-4.8-4.3-8.2-10.1-9.5-16.5c-0.1-0.5-0.5-0.8-1-0.7
			c-0.5,0.1-0.8,0.5-0.7,1C29.4,88.1,32.9,94.2,38,98.8z"/>
		
			<linearGradient id="SVGID_00000048467056247066218970000011441264622445303990_" gradientUnits="userSpaceOnUse" x1="8.4347" y1="176.2958" x2="58.7447" y2="48.5958" gradientTransform="matrix(1 0 0 -1 0 194)">
			<stop  offset="0" style="stop-color:#5B9A43"/>
			<stop  offset="1" style="stop-color:#009F8E"/>
		</linearGradient>
		<path style="fill:url(#SVGID_00000048467056247066218970000011441264622445303990_);" d="M28.2,76c0.5,0,0.9-0.4,0.9-0.8
			c0-3.4,0.6-6.8,1.7-10c0.2-0.4-0.1-0.9-0.5-1.1c-0.4-0.2-0.9,0.1-1.1,0.5l0,0c-1.2,3.4-1.8,6.9-1.8,10.5
			C27.3,75.6,27.7,76,28.2,76C28.1,76,28.2,76,28.2,76z"/>
		
			<linearGradient id="SVGID_00000100359523375959885980000010874444446388425912_" gradientUnits="userSpaceOnUse" x1="31.3155" y1="185.3104" x2="81.6355" y2="57.6104" gradientTransform="matrix(1 0 0 -1 0 194)">
			<stop  offset="0" style="stop-color:#5B9A43"/>
			<stop  offset="1" style="stop-color:#009F8E"/>
		</linearGradient>
		<path style="fill:url(#SVGID_00000100359523375959885980000010874444446388425912_);" d="M55.4,39.8c0.5-0.1,0.8-0.6,0.7-1
			c-0.1-0.4-0.5-0.7-0.9-0.7c-7.8,1.1-15,4.7-20.6,10.2c-0.3,0.3-0.3,0.9,0,1.2c0,0,0,0,0,0c0.3,0.3,0.9,0.3,1.2,0
			C41.1,44.3,48,40.8,55.4,39.8z"/>
		
			<linearGradient id="SVGID_00000095304895157404620430000014668437980324754312_" gradientUnits="userSpaceOnUse" x1="57.2375" y1="195.523" x2="107.5475" y2="67.823" gradientTransform="matrix(1 0 0 -1 0 194)">
			<stop  offset="0" style="stop-color:#5B9A43"/>
			<stop  offset="1" style="stop-color:#009F8E"/>
		</linearGradient>
		<path style="fill:url(#SVGID_00000095304895157404620430000014668437980324754312_);" d="M62.1,37.8c-0.5,0-0.9,0.3-0.9,0.8
			c0,0.5,0.3,0.9,0.8,0.9C76.5,40.4,88.8,50.2,93,64c0.1,0.4,0.4,0.6,0.8,0.6c0.1,0,0.2,0,0.2,0c0.5-0.1,0.7-0.6,0.6-1.1
			c0,0,0,0,0,0C90.3,49,77.3,38.7,62.1,37.8z"/>
		
			<linearGradient id="SVGID_00000037662745709444527190000008327794620164572829_" gradientUnits="userSpaceOnUse" x1="60.5343" y1="196.8275" x2="110.8543" y2="69.1275" gradientTransform="matrix(1 0 0 -1 0 194)">
			<stop  offset="0" style="stop-color:#5B9A43"/>
			<stop  offset="1" style="stop-color:#009F8E"/>
		</linearGradient>
		<path style="fill:url(#SVGID_00000037662745709444527190000008327794620164572829_);" d="M92,89.5c0.3,0,0.6-0.2,0.8-0.5
			c2.2-4.8,3.4-10,3.4-15.2c0.1-0.5-0.3-0.9-0.8-0.9c-0.5-0.1-0.9,0.3-0.9,0.8c0,0.1,0,0.1,0,0.2c0,5-1.1,10-3.2,14.5
			c-0.2,0.4,0,0.9,0.4,1.1C91.8,89.5,91.9,89.5,92,89.5z"/>
		
			<linearGradient id="SVGID_00000134219505244090010210000005558723820932821943_" gradientUnits="userSpaceOnUse" x1="37.2564" y1="187.6465" x2="87.5664" y2="59.9565" gradientTransform="matrix(1 0 0 -1 0 194)">
			<stop  offset="0" style="stop-color:#5B9A43"/>
			<stop  offset="1" style="stop-color:#009F8E"/>
		</linearGradient>
		<path style="fill:url(#SVGID_00000134219505244090010210000005558723820932821943_);" d="M65.8,109.4h0.1
			c7.6-1.2,14.5-4.9,19.9-10.4c0.3-0.3,0.3-0.9,0-1.2c0,0,0,0,0,0c-0.3-0.3-0.9-0.3-1.2,0c-5.1,5.2-11.7,8.7-18.9,9.9
			c-0.5,0.1-0.8,0.5-0.7,1C65,109,65.4,109.4,65.8,109.4L65.8,109.4z"/>
		
			<linearGradient id="SVGID_00000116958394771535543570000000211915804502925440_" gradientUnits="userSpaceOnUse" x1="11.4875" y1="177.4951" x2="61.8075" y2="49.8051" gradientTransform="matrix(1 0 0 -1 0 194)">
			<stop  offset="0" style="stop-color:#5B9A43"/>
			<stop  offset="1" style="stop-color:#009F8E"/>
		</linearGradient>
		<path style="fill:url(#SVGID_00000116958394771535543570000000211915804502925440_);" d="M56.4,109.7L56.4,109.7
			c0.6,0,0.9-0.4,0.9-0.9c0-0.4-0.3-0.7-0.7-0.8c-7.8-0.8-15.1-4.2-20.7-9.8c-0.3-0.3-0.9-0.3-1.2,0c0,0,0,0,0,0
			c-0.3,0.3-0.3,0.9,0,1.2C40.6,105.2,48.2,108.8,56.4,109.7z"/>
		
			<linearGradient id="SVGID_00000060023104385114174670000009263933178730103220_" gradientUnits="userSpaceOnUse" x1="1.8297" y1="173.6899" x2="52.1496" y2="45.9999" gradientTransform="matrix(1 0 0 -1 0 194)">
			<stop  offset="0" style="stop-color:#5B9A43"/>
			<stop  offset="1" style="stop-color:#009F8E"/>
		</linearGradient>
		<path style="fill:url(#SVGID_00000060023104385114174670000009263933178730103220_);" d="M31.2,95.4c0.2,0.2,0.4,0.3,0.7,0.3
			c0.5,0,0.9-0.4,0.9-0.8c0-0.2-0.1-0.4-0.2-0.5c-2.1-2.8-3.8-5.9-4.9-9.2c-0.2-0.4-0.7-0.6-1.1-0.4c-0.4,0.2-0.6,0.6-0.5,1
			C27.2,89.2,29,92.4,31.2,95.4z"/>
		
			<linearGradient id="SVGID_00000015353434187717313400000002742945675782756534_" gradientUnits="userSpaceOnUse" x1="3.5314" y1="174.3606" x2="53.8514" y2="46.6706" gradientTransform="matrix(1 0 0 -1 0 194)">
			<stop  offset="0" style="stop-color:#5B9A43"/>
			<stop  offset="1" style="stop-color:#009F8E"/>
		</linearGradient>
		<path style="fill:url(#SVGID_00000015353434187717313400000002742945675782756534_);" d="M25.1,78.3L25.1,78.3
			c0.6,0,0.9-0.5,0.9-0.9c0,0,0,0,0,0c-0.1-1.2-0.2-2.3-0.2-3.5c0-0.9,0-1.8,0.1-2.8c0-0.5-0.3-0.9-0.8-0.9s-0.9,0.3-0.9,0.8
			c-0.1,0.9-0.1,1.9-0.1,2.9c0,1.2,0.1,2.5,0.2,3.7C24.3,77.9,24.6,78.3,25.1,78.3z"/>
		
			<linearGradient id="SVGID_00000134953297023290333620000002874784386306086804_" gradientUnits="userSpaceOnUse" x1="1.1389" y1="173.415" x2="51.4489" y2="45.725" gradientTransform="matrix(1 0 0 -1 0 194)">
			<stop  offset="0" style="stop-color:#5B9A43"/>
			<stop  offset="1" style="stop-color:#009F8E"/>
		</linearGradient>
		<path style="fill:url(#SVGID_00000134953297023290333620000002874784386306086804_);" d="M21.8,76L21.8,76c0.5,0,0.8-0.4,0.8-0.9
			c0,0,0,0,0,0c0-0.7,0-1.3,0-2s0-1,0-1.6c0.2-0.4,0-0.9-0.5-1.1c-0.4-0.2-0.9,0-1.1,0.5c-0.1,0.2-0.1,0.4,0,0.6c0,0.5,0,1.1,0,1.6
			c0,0.7,0,1.4,0,2.1C21.1,75.6,21.4,76,21.8,76z"/>
		
			<linearGradient id="SVGID_00000183213246868529487260000017584595518556381081_" gradientUnits="userSpaceOnUse" x1="45.411" y1="190.8622" x2="95.721" y2="63.1622" gradientTransform="matrix(1 0 0 -1 0 194)">
			<stop  offset="0" style="stop-color:#5B9A43"/>
			<stop  offset="1" style="stop-color:#009F8E"/>
		</linearGradient>
		<path style="fill:url(#SVGID_00000183213246868529487260000017584595518556381081_);" d="M61.7,32.3c-1.7,0-3.3,0.1-5,0.3h-0.1
			l-0.4,0h-0.3c-0.5,0.1-1,0.2-1.5,0.2h-0.3c-5.4,1-10.6,3.2-15.2,6.3l-0.2,0.1c-0.4,0.3-0.8,0.6-1.2,0.9l-0.3,0.2l-1.1,0.8
			l-0.4,0.3c-0.5,0.4-0.9,0.8-1.3,1.2c-0.3,0.3-0.4,0.9-0.1,1.2c0.2,0.2,0.4,0.3,0.6,0.3c0.2,0,0.4-0.1,0.6-0.2
			c0.4-0.4,0.8-0.8,1.3-1.1l0.3-0.3c0.3-0.3,0.7-0.5,1-0.8l0.3-0.2l1.2-0.8l0.2-0.1c4.4-3,9.4-5,14.6-6h0.2l1.4-0.2h0.3
			c1.8-0.2,3.5-0.4,5.3-0.4c9.1,0,17.8,3.2,24.8,9c0.4,0.3,0.9,0.2,1.2-0.1c0,0,0,0,0,0c0.3-0.4,0.3-0.9-0.1-1.2c0,0,0,0,0,0
			C80.4,35.7,71.2,32.4,61.7,32.3z"/>
		
			<linearGradient id="SVGID_00000068647673016500605480000005865249179087284368_" gradientUnits="userSpaceOnUse" x1="71.5066" y1="201.1447" x2="121.8166" y2="73.4447" gradientTransform="matrix(1 0 0 -1 0 194)">
			<stop  offset="0" style="stop-color:#5B9A43"/>
			<stop  offset="1" style="stop-color:#009F8E"/>
		</linearGradient>
		<path style="fill:url(#SVGID_00000068647673016500605480000005865249179087284368_);" d="M94.6,48.9c-0.3-0.4-0.8-0.4-1.2-0.1
			c-0.3,0.3-0.4,0.7-0.2,1.1c5,6.7,7.6,14.8,7.6,23.2c-0.1,0.5,0.3,0.9,0.8,0.9c0.5,0.1,0.9-0.3,0.9-0.8c0-0.1,0-0.1,0-0.2
			C102.5,64.4,99.7,55.9,94.6,48.9z"/>
		
			<linearGradient id="SVGID_00000073680763887700948880000001929208019821681590_" gradientUnits="userSpaceOnUse" x1="48.5702" y1="192.104" x2="98.8801" y2="64.414" gradientTransform="matrix(1 0 0 -1 0 194)">
			<stop  offset="0" style="stop-color:#5B9A43"/>
			<stop  offset="1" style="stop-color:#009F8E"/>
		</linearGradient>
		<path style="fill:url(#SVGID_00000073680763887700948880000001929208019821681590_);" d="M69,113.2h0.2
			c17.7-3.3,31.1-17.8,33.1-35.7c0-0.5-0.3-0.9-0.8-0.9c-0.5,0-0.9,0.3-0.9,0.8l0,0c-1.9,17.1-14.8,31-31.7,34.2
			c-0.5,0.1-0.8,0.6-0.7,1C68.3,113,68.6,113.3,69,113.2L69,113.2z"/>
		
			<linearGradient id="SVGID_00000175321747802482768130000005061280470616503441_" gradientUnits="userSpaceOnUse" x1="17.1204" y1="179.7201" x2="67.4304" y2="52.0201" gradientTransform="matrix(1 0 0 -1 0 194)">
			<stop  offset="0" style="stop-color:#5B9A43"/>
			<stop  offset="1" style="stop-color:#009F8E"/>
		</linearGradient>
		<path style="fill:url(#SVGID_00000175321747802482768130000005061280470616503441_);" d="M62.6,113.1c0-0.5-0.4-0.8-0.8-0.8
			c-4,0-8-0.6-11.8-1.8c-0.5-0.1-0.9,0.1-1.1,0.6c-0.1,0.5,0.1,0.9,0.6,1.1c4,1.3,8.2,1.9,12.4,1.9
			C62.2,113.9,62.6,113.5,62.6,113.1z"/>
		
			<linearGradient id="SVGID_00000138565993730852948130000005067214387427373484_" gradientUnits="userSpaceOnUse" x1="3.49" y1="174.3461" x2="53.8" y2="46.646" gradientTransform="matrix(1 0 0 -1 0 194)">
			<stop  offset="0" style="stop-color:#5B9A43"/>
			<stop  offset="1" style="stop-color:#009F8E"/>
		</linearGradient>
		<path style="fill:url(#SVGID_00000138565993730852948130000005067214387427373484_);" d="M44.9,108.4c-9.7-4.6-17-13-20.4-23.2
			c-0.1-0.4-0.6-0.7-1.1-0.5c-0.4,0.1-0.7,0.6-0.5,1.1l0,0c3.5,10.6,11.2,19.4,21.3,24.2c0.1,0,0.2,0.1,0.4,0.1
			c0.5,0,0.9-0.4,0.8-0.9C45.4,108.9,45.2,108.6,44.9,108.4L44.9,108.4z"/>
		
			<linearGradient id="SVGID_00000083059919206556118380000001270468644508242609_" gradientUnits="userSpaceOnUse" x1="45.1117" y1="190.7431" x2="95.4217" y2="63.0431" gradientTransform="matrix(1 0 0 -1 0 194)">
			<stop  offset="0" style="stop-color:#5B9A43"/>
			<stop  offset="1" style="stop-color:#009F8E"/>
		</linearGradient>
		<path style="fill:url(#SVGID_00000083059919206556118380000001270468644508242609_);" d="M62.5,26.7c-10.8,0-21.3,3.9-29.5,10.9
			c-0.4,0.3-0.4,0.8-0.1,1.2c0.1,0.2,0.4,0.3,0.6,0.3c0.2,0,0.5,0,0.6-0.2c7.4-6.3,16.7-10,26.4-10.4c0.7,0,1.3,0,2,0
			c24.2,0,43.8,19.6,43.8,43.8c0,24.2-19.6,43.8-43.8,43.8c-3.7,0-7.5-0.5-11.1-1.4c-0.5-0.1-0.9,0.1-1,0.6c-0.1,0.5,0.1,0.9,0.6,1
			l0,0c24.3,6.3,49.2-8.3,55.5-32.7s-8.3-49.2-32.7-55.5C70.1,27.2,66.3,26.7,62.5,26.7z"/>
		
			<linearGradient id="SVGID_00000095300894301118645360000011394474201543275918_" gradientUnits="userSpaceOnUse" x1="0.8827" y1="173.3232" x2="51.1927" y2="45.6232" gradientTransform="matrix(1 0 0 -1 0 194)">
			<stop  offset="0" style="stop-color:#5B9A43"/>
			<stop  offset="1" style="stop-color:#009F8E"/>
		</linearGradient>
		<path style="fill:url(#SVGID_00000095300894301118645360000011394474201543275918_);" d="M44.3,112C33.3,107,24.9,97.7,21,86.3
			c-0.2-0.4-0.7-0.6-1.1-0.4c-0.4,0.2-0.6,0.6-0.5,1c4.1,11.8,12.8,21.5,24.1,26.7c0.1,0,0.2,0.1,0.3,0.1c0.5,0,0.9-0.4,0.9-0.8
			C44.8,112.5,44.5,112.2,44.3,112L44.3,112z"/>
		
			<linearGradient id="SVGID_00000096750641212806649210000017254467066479806604_" gradientUnits="userSpaceOnUse" x1="14.4925" y1="178.677" x2="64.8025" y2="50.9871" gradientTransform="matrix(1 0 0 -1 0 194)">
			<stop  offset="0" style="stop-color:#5B9A43"/>
			<stop  offset="1" style="stop-color:#009F8E"/>
		</linearGradient>
		<path style="fill:url(#SVGID_00000096750641212806649210000017254467066479806604_);" d="M56.8,118.8c-0.7-0.1-1.4-0.2-2.2-0.4
			c-0.5-0.1-0.9,0.2-1,0.7c0,0,0,0,0,0c-0.1,0.5,0.2,0.9,0.7,1c0.7,0.1,1.5,0.3,2.2,0.4h0.1c0.5,0,0.8-0.4,0.8-0.9
			C57.4,119.2,57.1,118.9,56.8,118.8L56.8,118.8z"/>
		
			<linearGradient id="SVGID_00000043452716089160478930000013955315764405016197_" gradientUnits="userSpaceOnUse" x1="-0.9337" y1="172.5986" x2="49.3763" y2="44.9086" gradientTransform="matrix(1 0 0 -1 0 194)">
			<stop  offset="0" style="stop-color:#5B9A43"/>
			<stop  offset="1" style="stop-color:#009F8E"/>
		</linearGradient>
		<path style="fill:url(#SVGID_00000043452716089160478930000013955315764405016197_);" d="M43.6,114.8c-9.9-4.7-18-12.7-22.8-22.6
			c-0.2-0.4-0.7-0.6-1.1-0.4c-0.4,0.2-0.6,0.7-0.4,1.1c5,10.3,13.3,18.5,23.6,23.4c0.1,0,0.2,0.1,0.4,0.1c0.5,0,0.8-0.4,0.8-0.9
			C44.1,115.2,43.9,114.9,43.6,114.8z"/>
		
			<linearGradient id="SVGID_00000146469596026137789610000008475870336181649573_" gradientUnits="userSpaceOnUse" x1="55.3574" y1="194.7826" x2="105.6774" y2="67.0826" gradientTransform="matrix(1 0 0 -1 0 194)">
			<stop  offset="0" style="stop-color:#5B9A43"/>
			<stop  offset="1" style="stop-color:#009F8E"/>
		</linearGradient>
		<path style="fill:url(#SVGID_00000146469596026137789610000008475870336181649573_);" d="M64.1,21.7c-10.5,0-20.8,3.3-29.2,9.5
			c-0.3,0.3-0.4,0.9,0,1.2c0.3,0.3,0.7,0.3,1,0.2C57.2,17,87.3,21.7,102.9,43.1c8.3,11.3,11.2,25.7,7.9,39.3c-0.1,0.5,0.2,0.9,0.6,1
			c0.1,0,0.1,0,0.2,0c0.4,0,0.7-0.3,0.8-0.7C118.7,56,102.1,29.3,75.4,23C71.7,22.1,67.9,21.7,64.1,21.7z"/>
		
			<linearGradient id="SVGID_00000044894644892949429290000011368721406221094070_" gradientUnits="userSpaceOnUse" x1="41.9992" y1="189.5239" x2="92.3192" y2="61.8239" gradientTransform="matrix(1 0 0 -1 0 194)">
			<stop  offset="0" style="stop-color:#5B9A43"/>
			<stop  offset="1" style="stop-color:#009F8E"/>
		</linearGradient>
		<path style="fill:url(#SVGID_00000044894644892949429290000011368721406221094070_);" d="M99,105.5c-0.3-0.3-0.9-0.3-1.2,0
			c0,0,0,0,0,0c-7.3,7.2-16.7,11.9-26.8,13.4c-0.5,0-0.8,0.4-0.8,0.9c0,0.5,0.4,0.8,0.9,0.8h0.1c10.5-1.5,20.2-6.4,27.8-13.9
			C99.3,106.4,99.3,105.8,99,105.5C99,105.5,99,105.5,99,105.5z"/>
		
			<linearGradient id="SVGID_00000142873240951261812150000003295528696250103734_" gradientUnits="userSpaceOnUse" x1="38.6391" y1="188.1957" x2="88.9491" y2="60.4957" gradientTransform="matrix(1 0 0 -1 0 194)">
			<stop  offset="0" style="stop-color:#5B9A43"/>
			<stop  offset="1" style="stop-color:#009F8E"/>
		</linearGradient>
		<path style="fill:url(#SVGID_00000142873240951261812150000003295528696250103734_);" d="M35.7,27.4c0.2,0,0.3-0.1,0.5-0.1
			c5.7-3.9,12-6.6,18.8-8c0.5-0.1,0.8-0.5,0.7-1c-0.1-0.5-0.5-0.8-1-0.7c-6.9,1.5-13.5,4.3-19.4,8.3c-0.4,0.3-0.5,0.8-0.2,1.2
			C35.1,27.3,35.4,27.4,35.7,27.4L35.7,27.4z"/>
		
			<linearGradient id="SVGID_00000116949665483781818460000012272160354267927963_" gradientUnits="userSpaceOnUse" x1="73.9744" y1="202.1217" x2="124.2944" y2="74.4217" gradientTransform="matrix(1 0 0 -1 0 194)">
			<stop  offset="0" style="stop-color:#5B9A43"/>
			<stop  offset="1" style="stop-color:#009F8E"/>
		</linearGradient>
		<path style="fill:url(#SVGID_00000116949665483781818460000012272160354267927963_);" d="M115.9,49.8
			c-8.4-20.3-28.2-33.5-50.1-33.4c-0.5,0-0.8,0.4-0.8,0.9s0.4,0.9,0.8,0.9c21.2,0,40.4,12.8,48.5,32.4c0.1,0.3,0.4,0.5,0.8,0.5
			c0.1,0,0.2,0,0.3-0.1C115.9,50.8,116.1,50.3,115.9,49.8z"/>
		
			<linearGradient id="SVGID_00000031171741598126635840000007448598716729677974_" gradientUnits="userSpaceOnUse" x1="87.1622" y1="207.3109" x2="137.4722" y2="79.6109" gradientTransform="matrix(1 0 0 -1 0 194)">
			<stop  offset="0" style="stop-color:#5B9A43"/>
			<stop  offset="1" style="stop-color:#009F8E"/>
		</linearGradient>
		<path style="fill:url(#SVGID_00000031171741598126635840000007448598716729677974_);" d="M116.4,53.6c-0.4,0.1-0.7,0.6-0.6,1
			c0,0,0,0,0,0c1.6,5.2,2.5,10.5,2.5,15.9c0,1.3-0.1,2.7-0.2,4c0,0.5,0.3,0.9,0.8,0.9h0c0.4,0,0.8-0.3,0.9-0.8
			c0.1-1.4,0.2-2.8,0.2-4.2c0-5.6-0.8-11.1-2.5-16.5C117.3,53.7,116.8,53.5,116.4,53.6z"/>
		
			<linearGradient id="SVGID_00000012461871733378233760000011649812467330820243_" gradientUnits="userSpaceOnUse" x1="40.5849" y1="188.9559" x2="90.8949" y2="61.2659" gradientTransform="matrix(1 0 0 -1 0 194)">
			<stop  offset="0" style="stop-color:#5B9A43"/>
			<stop  offset="1" style="stop-color:#009F8E"/>
		</linearGradient>
		<path style="fill:url(#SVGID_00000012461871733378233760000011649812467330820243_);" d="M97.1,113.9c-0.3-0.4-0.8-0.5-1.2-0.2
			c0,0,0,0,0,0c-6.5,4.5-13.9,7.5-21.6,8.8c-0.5,0.1-0.8,0.6-0.7,1c0.1,0.4,0.4,0.7,0.8,0.7h0.1c8-1.3,15.7-4.4,22.3-9.1
			C97.3,114.8,97.4,114.3,97.1,113.9C97.1,113.9,97.1,113.9,97.1,113.9z"/>
		
			<linearGradient id="SVGID_00000091696208768067681660000006327095450100702634_" gradientUnits="userSpaceOnUse" x1="-1.7615" y1="172.2755" x2="48.5485" y2="44.5755" gradientTransform="matrix(1 0 0 -1 0 194)">
			<stop  offset="0" style="stop-color:#5B9A43"/>
			<stop  offset="1" style="stop-color:#009F8E"/>
		</linearGradient>
		<path style="fill:url(#SVGID_00000091696208768067681660000006327095450100702634_);" d="M42.2,117.6c-5.3-2.7-10.1-6.2-14.2-10.4
			c-0.4-0.5-0.9-0.9-1.3-1.4c-0.3-0.3-0.8-0.4-1.2-0.1c0,0,0,0,0,0c-0.4,0.3-0.4,0.8-0.1,1.2c0.4,0.5,0.9,1,1.4,1.5
			c4.2,4.4,9.2,8,14.7,10.8c0.4,0.2,0.9,0,1.1-0.4C42.8,118.3,42.6,117.8,42.2,117.6C42.2,117.6,42.2,117.6,42.2,117.6z"/>
		
			<linearGradient id="SVGID_00000111902336723887200450000013624391445449912765_" gradientUnits="userSpaceOnUse" x1="38.7275" y1="188.229" x2="89.0475" y2="60.529" gradientTransform="matrix(1 0 0 -1 0 194)">
			<stop  offset="0" style="stop-color:#5B9A43"/>
			<stop  offset="1" style="stop-color:#009F8E"/>
		</linearGradient>
		<path style="fill:url(#SVGID_00000111902336723887200450000013624391445449912765_);" d="M39.5,18.7c0.1,0,0.3,0,0.4-0.1
			c2.2-1.1,4.4-2.1,6.7-2.9c0.4-0.2,0.7-0.6,0.5-1.1c-0.2-0.4-0.6-0.7-1.1-0.5l0,0c-2.4,0.9-4.7,1.9-6.9,3c-0.4,0.2-0.6,0.7-0.4,1.1
			C38.9,18.5,39.2,18.7,39.5,18.7z"/>
		
			<linearGradient id="SVGID_00000055706381657285767860000001980571348866054838_" gradientUnits="userSpaceOnUse" x1="76.9635" y1="203.2956" x2="127.2735" y2="75.5956" gradientTransform="matrix(1 0 0 -1 0 194)">
			<stop  offset="0" style="stop-color:#5B9A43"/>
			<stop  offset="1" style="stop-color:#009F8E"/>
		</linearGradient>
		<path style="fill:url(#SVGID_00000055706381657285767860000001980571348866054838_);" d="M65.8,12.4c20.4,0,39.2,10.8,49.5,28.4
			c0.2,0.3,0.4,0.4,0.7,0.4c0.2,0,0.3,0,0.4-0.1c0.4-0.2,0.5-0.8,0.3-1.2c-10.6-18.1-30-29.2-50.9-29.2c-0.5-0.1-0.9,0.3-0.9,0.8
			s0.3,0.9,0.8,0.9C65.7,12.4,65.7,12.4,65.8,12.4z"/>
		
			<linearGradient id="SVGID_00000170238570450231959090000005814199688126919080_" gradientUnits="userSpaceOnUse" x1="92.5214" y1="209.4227" x2="142.8414" y2="81.7327" gradientTransform="matrix(1 0 0 -1 0 194)">
			<stop  offset="0" style="stop-color:#5B9A43"/>
			<stop  offset="1" style="stop-color:#009F8E"/>
		</linearGradient>
		<path style="fill:url(#SVGID_00000170238570450231959090000005814199688126919080_);" d="M123.8,59c-0.1-0.5-0.5-0.8-1-0.7
			c-0.5,0.1-0.8,0.5-0.7,1c0.5,2.5,0.8,5.1,0.9,7.7c0,0.5,0.4,0.8,0.9,0.8l0,0c0.5,0,0.8-0.4,0.8-0.9
			C124.6,64.3,124.3,61.6,123.8,59z"/>
		
			<linearGradient id="SVGID_00000133486836703041872410000012458164685380243881_" gradientUnits="userSpaceOnUse" x1="41.5047" y1="189.3218" x2="91.8147" y2="61.6218" gradientTransform="matrix(1 0 0 -1 0 194)">
			<stop  offset="0" style="stop-color:#5B9A43"/>
			<stop  offset="1" style="stop-color:#009F8E"/>
		</linearGradient>
		<path style="fill:url(#SVGID_00000133486836703041872410000012458164685380243881_);" d="M79.8,127.1c6-1.5,11.7-3.9,17-7.1
			c0.4-0.2,0.5-0.8,0.3-1.2c-0.2-0.4-0.8-0.5-1.2-0.3c-5.1,3.2-10.7,5.5-16.5,6.9c-0.5,0.1-0.7,0.6-0.6,1.1c0.1,0.4,0.4,0.6,0.8,0.6
			C79.7,127.1,79.8,127.1,79.8,127.1z"/>
		
			<linearGradient id="SVGID_00000052103773443385252950000015437636007973223052_" gradientUnits="userSpaceOnUse" x1="83.9602" y1="206.0461" x2="134.2702" y2="78.3561" gradientTransform="matrix(1 0 0 -1 0 194)">
			<stop  offset="0" style="stop-color:#5B9A43"/>
			<stop  offset="1" style="stop-color:#009F8E"/>
		</linearGradient>
		<path style="fill:url(#SVGID_00000052103773443385252950000015437636007973223052_);" d="M77.5,7.1c0.3,0,0.6,0.1,0.9,0.2
			c12.7,2.6,24.3,9.1,33.2,18.6c0.2,0.2,0.4,0.3,0.6,0.3c0.2,0,0.4-0.1,0.6-0.2c0.3-0.3,0.3-0.9,0-1.2c-9.1-9.8-21-16.5-34.1-19.2
			l-0.9-0.2c-0.5-0.1-0.9,0.2-1,0.7c0,0,0,0,0,0C76.7,6.5,77,7,77.5,7.1z"/>
		
			<linearGradient id="SVGID_00000078014531921083678940000001038473333700339588_" gradientUnits="userSpaceOnUse" x1="45.7459" y1="190.9923" x2="96.0559" y2="63.3023" gradientTransform="matrix(1 0 0 -1 0 194)">
			<stop  offset="0" style="stop-color:#5B9A43"/>
			<stop  offset="1" style="stop-color:#009F8E"/>
		</linearGradient>
		<path style="fill:url(#SVGID_00000078014531921083678940000001038473333700339588_);" d="M98.1,123.2c-0.2-0.4-0.8-0.5-1.2-0.3
			c0,0,0,0,0,0c-2.2,1.3-4.5,2.4-6.8,3.4c-0.4,0.2-0.6,0.7-0.4,1.1c0.1,0.3,0.4,0.5,0.8,0.5c0.1,0,0.2,0,0.3-0.1
			c2.4-1,4.7-2.2,7-3.5C98.2,124.1,98.4,123.6,98.1,123.2z"/>
		
			<linearGradient id="SVGID_00000005964056436290622120000004890588968740740248_" gradientUnits="userSpaceOnUse" x1="33.4068" y1="186.1308" x2="83.7168" y2="58.4408" gradientTransform="matrix(1 0 0 -1 0 194)">
			<stop  offset="0" style="stop-color:#5B9A43"/>
			<stop  offset="1" style="stop-color:#009F8E"/>
		</linearGradient>
		<path style="fill:url(#SVGID_00000005964056436290622120000004890588968740740248_);" d="M82.5,128.9c-0.8,0.2-1.5,0.4-2.3,0.6
			c-0.4,0.1-0.7,0.5-0.6,1c0.1,0.4,0.4,0.7,0.8,0.7h0.2c0.8-0.2,1.6-0.4,2.4-0.6c0.4-0.2,0.7-0.7,0.5-1.1
			C83.3,129.1,82.9,128.8,82.5,128.9L82.5,128.9z"/>
		
			<linearGradient id="SVGID_00000072969159990785847810000008012507385204607628_" gradientUnits="userSpaceOnUse" x1="87.7013" y1="207.5245" x2="138.0113" y2="79.8245" gradientTransform="matrix(1 0 0 -1 0 194)">
			<stop  offset="0" style="stop-color:#5B9A43"/>
			<stop  offset="1" style="stop-color:#009F8E"/>
		</linearGradient>
		<path style="fill:url(#SVGID_00000072969159990785847810000008012507385204607628_);" d="M81.9,1.7c10.3,2.5,19.8,7.4,27.9,14.2
			c0.4,0.3,0.9,0.3,1.2-0.1c0.3-0.3,0.3-0.9-0.1-1.2c0,0,0,0,0,0c-8.3-7-18.1-12-28.6-14.6c-0.4-0.1-0.9,0.2-1,0.6
			C81.1,1.1,81.4,1.6,81.9,1.7z"/>
		
			<linearGradient id="SVGID_00000057860961673766815050000006438278984530140297_" gradientUnits="userSpaceOnUse" x1="47.0572" y1="191.5128" x2="97.3672" y2="63.8128" gradientTransform="matrix(1 0 0 -1 0 194)">
			<stop  offset="0" style="stop-color:#5B9A43"/>
			<stop  offset="1" style="stop-color:#009F8E"/>
		</linearGradient>
		<path style="fill:url(#SVGID_00000057860961673766815050000006438278984530140297_);" d="M100.2,127.3c-0.2-0.4-0.8-0.6-1.2-0.3
			c-1.6,0.9-3.3,1.8-5,2.5c-0.4,0.2-0.6,0.7-0.4,1.1c0.1,0.3,0.4,0.5,0.8,0.5c0.1,0,0.2,0,0.3-0.1c1.8-0.8,3.5-1.7,5.2-2.6
			C100.3,128.2,100.4,127.7,100.2,127.3z"/>
		
			<linearGradient id="SVGID_00000133525582076936422510000008593890229967427203_" gradientUnits="userSpaceOnUse" x1="47.9883" y1="191.8793" x2="98.3082" y2="64.1793" gradientTransform="matrix(1 0 0 -1 0 194)">
			<stop  offset="0" style="stop-color:#5B9A43"/>
			<stop  offset="1" style="stop-color:#009F8E"/>
		</linearGradient>
		<path style="fill:url(#SVGID_00000133525582076936422510000008593890229967427203_);" d="M100.2,131.2c-0.8,0.4-1.6,0.9-2.4,1.3
			c-0.4,0.2-0.6,0.7-0.4,1.1c0.2,0.4,0.7,0.6,1.1,0.4c0.8-0.4,1.7-0.9,2.5-1.3c0.4-0.2,0.6-0.7,0.3-1.1c0,0,0,0,0,0
			C101.2,131.2,100.7,131,100.2,131.2z"/>
		
			<linearGradient id="SVGID_00000096033023382878847610000015641687706899697027_" gradientUnits="userSpaceOnUse" x1="38.8104" y1="188.2583" x2="89.1203" y2="60.5683" gradientTransform="matrix(1 0 0 -1 0 194)">
			<stop  offset="0" style="stop-color:#5B9A43"/>
			<stop  offset="1" style="stop-color:#009F8E"/>
		</linearGradient>
		<path style="fill:url(#SVGID_00000096033023382878847610000015641687706899697027_);" d="M54.8,61.4c5.6,0,10.8,2.9,13.8,7.6
			c0.2,0.2,0.4,0.4,0.7,0.4c0.2,0,0.3,0,0.4-0.1c0.4-0.2,0.5-0.8,0.3-1.2c-3.3-5.3-9-8.5-15.2-8.5c-0.5-0.1-0.9,0.3-0.9,0.8
			s0.3,0.9,0.8,0.9C54.7,61.4,54.7,61.4,54.8,61.4L54.8,61.4z"/>
		
			<linearGradient id="SVGID_00000029017248945810762610000014357617782304464300_" gradientUnits="userSpaceOnUse" x1="35.238" y1="186.8492" x2="85.548" y2="59.1592" gradientTransform="matrix(1 0 0 -1 0 194)">
			<stop  offset="0" style="stop-color:#5B9A43"/>
			<stop  offset="1" style="stop-color:#009F8E"/>
		</linearGradient>
		<path style="fill:url(#SVGID_00000029017248945810762610000014357617782304464300_);" d="M71.3,70.7c-0.2-0.4-0.7-0.6-1.2-0.4
			c-0.4,0.2-0.5,0.6-0.4,1c3.5,8.3-0.4,17.8-8.7,21.3c-0.6,0.3-1.3,0.5-1.9,0.7c-0.5,0.1-0.7,0.6-0.6,1.1c0.1,0.4,0.4,0.6,0.8,0.6
			c0.1,0,0.2,0,0.2,0c7.8-2.2,13.1-9.3,13.1-17.3C72.7,75.2,72.2,72.9,71.3,70.7z"/>
		
			<linearGradient id="SVGID_00000151501288229829822140000007803044172154969264_" gradientUnits="userSpaceOnUse" x1="17.233" y1="179.7612" x2="67.553" y2="52.0612" gradientTransform="matrix(1 0 0 -1 0 194)">
			<stop  offset="0" style="stop-color:#5B9A43"/>
			<stop  offset="1" style="stop-color:#009F8E"/>
		</linearGradient>
		<path style="fill:url(#SVGID_00000151501288229829822140000007803044172154969264_);" d="M54.8,95.6c0.5,0,0.9-0.4,0.8-0.9
			c0-0.5-0.4-0.8-0.8-0.8c-7.7,0-14.4-5.4-15.9-13c-0.1-0.5-0.6-0.7-1.1-0.6c-0.4,0.1-0.7,0.5-0.6,0.9
			C38.9,89.5,46.2,95.5,54.8,95.6z"/>
		
			<linearGradient id="SVGID_00000170990162042561872240000010256682424871522471_" gradientUnits="userSpaceOnUse" x1="22.1561" y1="181.6985" x2="72.4761" y2="54.0085" gradientTransform="matrix(1 0 0 -1 0 194)">
			<stop  offset="0" style="stop-color:#5B9A43"/>
			<stop  offset="1" style="stop-color:#009F8E"/>
		</linearGradient>
		<path style="fill:url(#SVGID_00000170990162042561872240000010256682424871522471_);" d="M37.8,75H38c0.4,0,0.8-0.3,0.8-0.7
			C40,68.4,44.4,63.7,50.2,62c0.4-0.1,0.7-0.6,0.6-1c-0.1-0.4-0.6-0.7-1-0.6c-6.4,1.8-11.3,7.1-12.6,13.6
			C37.1,74.5,37.4,74.9,37.8,75C37.8,75,37.8,75,37.8,75z"/>
		<path class="st61" d="M18.8,147.4L18.8,147.4c0-0.3-0.3-0.6-0.6-0.6c0,0,0,0,0,0h-2.7c-0.8,0.1-1.6-0.4-1.9-1.1
			c-0.2-0.4-0.3-0.9-0.3-1.4c-0.1-1.2,0.8-2.2,1.9-2.3c0.1,0,0.3,0,0.4,0H16c0.5,0,1-0.3,1-0.9c0,0,0,0,0-0.1l0,0
			c0-0.5-0.3-0.9-0.8-0.9c-0.3,0-0.6,0-0.9,0c-1.2-0.1-2.3,0.3-3.2,1.1c-0.8,0.8-1.3,1.8-1.3,2.9c0,0.4,0,0.7,0.1,1.1
			c0.1,0.5,0.3,1.1,0.6,1.6h-1.4c-0.6,0-1,0.4-1,1l0,0c0,0.6,0.4,1,1,1h7.4c0.2,0,0.4-0.1,0.5-0.2l0.6-0.8
			C18.7,147.7,18.8,147.5,18.8,147.4z"/>
		<path class="st61" d="M42.9,162c-0.6,0-1.1,0.2-1.5,0.6c-0.8,0.8-0.8,2.2,0,3c0.4,0.4,0.9,0.6,1.5,0.6c0.6,0,1.1-0.2,1.5-0.6
			c0.8-0.8,0.8-2.2,0-3C44.1,162.2,43.5,162,42.9,162z"/>
		<path class="st61" d="M37.9,162c-0.6,0-1.1,0.2-1.5,0.6c-0.8,0.8-0.8,2.2,0,3c0.8,0.8,2.2,0.8,3,0c0.8-0.8,0.8-2.2,0-3
			C39,162.2,38.5,162,37.9,162z"/>
		<path class="st61" d="M52.5,155.4c0,0.2-0.1,0.4-0.2,0.6c-0.2,0.2-0.4,0.3-0.6,0.3h-6.5v-9.8c0-1.1-0.9-2-2-2l0,0
			c-1.1,0-2,0.9-2,2v8.9c0,0.3-0.1,0.5-0.3,0.7c-0.2,0.2-0.4,0.3-0.7,0.3H27.8c0-0.2,0-0.3,0-0.5V138c0-1.1-0.9-2-2-2l0,0
			c-1.1,0-2,0.9-2,2v17.4c0,0.2-0.1,0.4-0.2,0.6c-0.1,0.2-0.4,0.3-0.6,0.3H6.6c-0.7,0-1.4-0.3-1.9-0.9c-0.4-0.5-0.7-1.1-0.7-1.7
			v-5.4c0-0.8-0.7-1.5-1.5-1.5c0,0,0,0,0,0l0,0c-0.3,0-0.7,0.1-0.9,0.3L0.6,148c-0.3,0.3-0.5,0.7-0.6,1.1v4.5c0,1.7,0.7,3.3,2,4.5
			c1,1,2.4,1.5,3.8,1.5h18.4c1.1,0,2.1-0.5,2.8-1.4h0.1l0.5,0.6c0.4,0.5,1,0.8,1.7,0.8h12.2c1.1,0,2.1-0.5,2.8-1.4h0.1l0.6,0.7
			c0.4,0.4,0.9,0.7,1.5,0.7h6.4c1,0,2-0.4,2.7-1.2c0.6-0.7,0.9-1.5,0.9-2.4v-9.6c0-1.1-0.9-2-2-2l0,0c-1.1,0-2,0.9-2,2L52.5,155.4z"
			/>
		<path class="st61" d="M49.7,141.4c1.2,0,2.1-0.9,2.1-2.1c0-0.6-0.2-1.1-0.6-1.5c-0.8-0.8-2.2-0.8-3,0c-0.4,0.4-0.6,0.9-0.6,1.5
			C47.6,140.5,48.6,141.4,49.7,141.4C49.7,141.4,49.7,141.4,49.7,141.4L49.7,141.4z"/>
		<path class="st61" d="M54.7,137.1c-0.6,0-1.1,0.2-1.5,0.6c-0.4,0.4-0.6,0.9-0.6,1.5c0,0.6,0.2,1.1,0.6,1.5c0.8,0.8,2.2,0.8,3,0
			c0,0,0,0,0,0c0.4-0.4,0.6-0.9,0.6-1.5c0-0.6-0.2-1.1-0.6-1.5C55.8,137.4,55.3,137.1,54.7,137.1z"/>
		<path class="st61" d="M84.3,162c-0.6,0-1.1,0.2-1.5,0.6c-0.8,0.8-0.8,2.2,0,3c0.4,0.4,0.9,0.6,1.5,0.6c0.6,0,1.1-0.2,1.5-0.6
			c0.8-0.8,0.8-2.2,0-3C85.4,162.2,84.9,162,84.3,162z"/>
		<path class="st61" d="M79.3,162c-0.6,0-1.1,0.2-1.5,0.6c-0.8,0.8-0.8,2.2,0,3c0.4,0.4,0.9,0.6,1.5,0.6c1.2,0,2.2-1,2.2-2.1
			C81.4,162.9,80.4,162,79.3,162L79.3,162z"/>
		<path class="st61" d="M137.6,156.2c-1.4,0.1-2.7-0.6-3.4-1.8c-0.5-0.8-0.7-1.7-0.7-2.6c0-3,1.5-4.5,4.5-4.5c0.5,0,1,0,1.4,0.1
			c0.9,0.1,1.7-0.5,1.8-1.4c0-0.1,0-0.1,0-0.2l0,0c0-0.8-0.6-1.4-1.3-1.6c-0.8-0.2-1.5-0.2-2.3-0.2c-2-0.1-3.9,0.5-5.5,1.6
			c-1.8,1.4-2.8,3.5-2.7,5.8c0,1,0.2,2,0.5,2.9c0.2,0.7,0.6,1.3,1.1,1.9h-8.1v-9.8c0-1.1-0.9-2-2-2l0,0c-1.1,0-2,0.9-2,2v9
			c0,0.5-0.4,0.8-0.8,0.8h-6.2v-0.5c0-0.3,0-0.5,0-0.6v-8.7c0-1.1-0.9-2-2-2l0,0c-1.1,0-2,0.9-2,2v9c0,0.5-0.4,0.8-0.8,0.8h-6.3
			c0-0.2,0-0.6,0-1v-8.8c0-1.1-0.9-2-2-2l0,0c-1.1,0-2,0.9-2,2v9c0,0.5-0.4,0.8-0.8,0.8h0h-9.6v-9.8c0-1.1-0.9-2-2-2l0,0
			c-1.1,0-2,0.9-2,2v8.9c0,0.3-0.1,0.5-0.3,0.7c-0.2,0.2-0.4,0.3-0.7,0.3H69.2v-9.8c0-1.1-0.9-2-2-2l0,0c-1.1,0-2,0.9-2,2v12
			c0,3.8-2,5.7-5.8,5.7c-0.3,0-0.7,0-1,0c-0.5,0-1,0.4-1,0.9l0,0c0,0.2,0.1,0.4,0.2,0.6l1.1,1.4c0.2,0.2,0.4,0.4,0.7,0.4h0.8
			c2.1,0,4.1-0.6,5.8-1.8c1.9-1.4,3.1-3.7,3.1-6.1h13.7c1.1,0,2.1-0.5,2.8-1.4h0.1l0.6,0.7c0.4,0.4,1,0.7,1.5,0.7h9.4
			c1.1,0,2.1-0.5,2.8-1.4h0.1c0.7,0.9,1.8,1.4,2.9,1.4h5.4c1.1,0,2.1-0.5,2.8-1.4h0.1c0.7,0.8,1.7,1.3,2.8,1.4h5.3
			c1.1,0,2.1-0.5,2.8-1.4h0.1l0.4,0.5c0.4,0.5,1.1,0.8,1.7,0.8h17.5c0.3,0,0.6-0.1,0.8-0.4l1.1-1.4c0.1-0.2,0.2-0.4,0.2-0.6l0,0
			c0-0.6-0.4-1-1-1L137.6,156.2z"/>
		<path class="st61" d="M0.3,189.9l5.3-17.5c0.4-1.1,1.4-1.9,2.6-1.9l0,0c1.2,0,2.2,0.8,2.6,1.9l5.3,17.5c0.2,0.7-0.2,1.4-0.9,1.6
			c-0.1,0-0.2,0.1-0.4,0.1l0,0c-0.6,0-1.1-0.4-1.2-0.9l-5.3-17.6c0-0.1-0.1-0.1-0.2-0.1l0,0c-0.1,0-0.2,0.1-0.2,0.1l-5.3,17.6
			c-0.2,0.5-0.7,0.9-1.2,0.9l0,0c-0.7,0-1.3-0.6-1.3-1.3C0.2,190.2,0.3,190,0.3,189.9z M2.7,186.6v-2.2h11v2.2H2.7z"/>
		<path class="st61" d="M19.3,179.1c-0.1-1.4,0.4-2.8,1.5-3.7c1.4-0.9,3-1.3,4.6-1.2c0.9,0,1.8,0.1,2.7,0.2c0.5,0.1,1,0.2,1.6,0.3
			c0.5,0.1,0.9,0.6,0.8,1.2c0,0,0,0,0,0l0,0c-0.1,0.5-0.6,0.9-1.1,0.8c0,0-0.1,0-0.1,0l-1-0.2c-0.7-0.1-1.4-0.2-2.1-0.2
			c-0.8,0-1.5,0-2.2,0.1s-1.3,0.1-1.9,0.2v4.6c2,0.3,3.7,0.6,4.9,0.9c1,0.2,2,0.5,2.9,1c0.6,0.3,1.1,0.9,1.3,1.5
			c0.3,0.7,0.4,1.5,0.4,2.3c0,1-0.2,2.1-0.7,3c-0.5,0.8-1.2,1.4-2.1,1.7c-1.3,0.4-2.6,0.6-4,0.5c-1,0-1.9-0.1-2.9-0.2
			c-0.7-0.1-1.4-0.3-2.1-0.4c-0.5-0.1-0.9-0.7-0.8-1.2c0,0,0,0,0,0V190c0.1-0.5,0.6-0.9,1.1-0.8c0.1,0,0.1,0,0.2,0
			c1.5,0.4,3,0.7,4.5,0.6c0.6,0,1.3,0,1.9-0.1c0.6-0.1,1.3-0.2,1.9-0.4v-4.5c-2.2-0.3-3.9-0.6-5.1-0.9c-1-0.2-2-0.5-2.8-1
			c-0.6-0.3-1-0.9-1.2-1.5C19.3,180.7,19.3,179.9,19.3,179.1z"/>
		<path class="st61" d="M41.5,191.9c-1,0-2.1-0.1-3.1-0.4c-0.8-0.2-1.4-0.7-1.9-1.3c-0.5-0.8-0.8-1.7-0.9-2.7
			c-0.2-1.4-0.3-2.9-0.2-4.4c-0.1-1.8,0.1-3.6,0.6-5.3c0.3-1.1,1-2.1,2.1-2.7c1.3-0.6,2.7-0.8,4.1-0.8c1.3,0,2.7,0.1,4,0.4
			c0.9,0.2,1.6,0.7,2,1.5c0.4,0.9,0.6,2,0.5,3c0,1-0.1,1.9-0.3,2.9c-0.2,0.7-0.7,1.3-1.4,1.6c-1,0.4-2.1,0.7-3.2,0.7
			c-1.4,0.1-3.3,0.2-5.6,0.2h-1v-2h6.1c0.8,0.1,1.6-0.1,2.3-0.4c0.5-0.4,0.7-1,0.6-1.7v-3.9h-5.2c-0.8-0.1-1.6,0.1-2.3,0.4
			c-0.5,0.4-0.7,1-0.6,1.7v10.4c0.6,0.1,1.1,0.2,1.7,0.3c0.7,0.1,1.4,0.1,2.2,0.1c0.9,0,1.8-0.1,2.6-0.2c0.6-0.1,1.3-0.2,2.1-0.4
			c0.6-0.1,1.2,0.2,1.3,0.8c0,0,0,0,0,0l0,0c0.1,0.6-0.2,1.1-0.8,1.2c-0.7,0.2-1.4,0.3-2,0.4C44.1,191.8,42.8,191.9,41.5,191.9z"/>
		<path class="st61" d="M59.6,191.9c-1,0-2.1-0.1-3.1-0.4c-0.8-0.2-1.4-0.7-1.9-1.3c-0.5-0.8-0.8-1.7-0.9-2.7
			c-0.2-1.4-0.3-2.9-0.2-4.4c-0.1-1.8,0.1-3.6,0.6-5.3c0.3-1.1,1-2.1,2.1-2.7c1.3-0.6,2.7-0.8,4.1-0.8c1.3,0,2.7,0.1,4,0.4
			c0.9,0.2,1.6,0.7,2,1.5c0.4,0.9,0.6,2,0.5,3c0,1-0.1,1.9-0.3,2.9c-0.2,0.7-0.7,1.3-1.4,1.6c-1,0.4-2.1,0.7-3.1,0.7
			c-1.4,0.1-3.3,0.2-5.7,0.2h-1v-2h6.1c0.8,0.1,1.6-0.1,2.3-0.4c0.5-0.4,0.7-1,0.6-1.7v-3.9h-5.2c-0.8-0.1-1.6,0.1-2.3,0.4
			c-0.5,0.4-0.7,1-0.6,1.7v10.4c0.6,0.1,1.1,0.2,1.7,0.3c0.7,0.1,1.4,0.1,2.2,0.1c0.9,0,1.8-0.1,2.6-0.2c0.6-0.1,1.3-0.2,2.1-0.4
			c0.6-0.1,1.2,0.3,1.3,0.8c0,0,0,0,0,0l0,0c0.1,0.5-0.2,1.1-0.8,1.2c-0.7,0.2-1.3,0.3-2,0.4C62.2,191.8,60.9,191.9,59.6,191.9z"/>
		<path class="st61" d="M74.1,175.2l0.9,2.3c1.1-1,2-1.7,2.7-2.2l0.2-0.2c0.5-0.4,1.3-0.2,1.7,0.3c0.1,0.1,0.2,0.3,0.2,0.5l0,0
			c0.1,0.5-0.2,1.1-0.7,1.2l-0.7,0.3c-0.5,0.2-1,0.5-1.6,0.8c-0.5,0.3-0.9,0.6-1.3,0.9v11.1c0,0.7-0.6,1.3-1.3,1.4l0,0
			c-0.7,0-1.4-0.6-1.4-1.4v-14.8c0-0.4,0.3-0.7,0.7-0.7l0,0l0,0C73.7,174.7,74,174.9,74.1,175.2z"/>
		<path class="st61" d="M89.5,172.7v17.6c0,0.7-0.6,1.3-1.3,1.4l0,0c-0.7,0-1.3-0.6-1.3-1.4l0,0v-17.6h-4.6c-0.6,0-1.1-0.5-1.1-1.1
			c0,0,0,0,0,0l0,0c0-0.6,0.5-1.1,1.1-1.1h12c0.6,0,1.1,0.5,1.1,1.1l0,0c0,0.6-0.5,1.1-1.1,1.1H89.5z"/>
		<path class="st61" d="M102.4,191.9c-1,0-2.1-0.1-3.1-0.4c-0.8-0.2-1.4-0.7-1.9-1.3c-0.5-0.8-0.8-1.7-0.9-2.7
			c-0.2-1.4-0.3-2.9-0.3-4.4c-0.1-1.8,0.1-3.6,0.6-5.3c0.3-1.1,1-2.1,2.1-2.7c1.3-0.6,2.7-0.8,4.1-0.8c1.3,0,2.7,0.1,4,0.4
			c0.8,0.2,1.6,0.7,2,1.5c0.4,0.9,0.6,2,0.5,3c0,1-0.1,1.9-0.3,2.9c-0.2,0.7-0.7,1.3-1.4,1.6c-1,0.4-2.1,0.7-3.2,0.7
			c-1.4,0.1-3.3,0.2-5.6,0.2h-1v-2h6.1c0.8,0.1,1.6-0.1,2.3-0.4c0.5-0.4,0.7-1,0.6-1.7v-3.9h-5.1c-0.8-0.1-1.6,0.1-2.3,0.4
			c-0.5,0.4-0.7,1-0.6,1.7v10.4c0.6,0.1,1.1,0.2,1.7,0.3c0.7,0.1,1.4,0.1,2.1,0.1c0.9,0,1.8-0.1,2.6-0.2c0.6-0.1,1.3-0.2,2.1-0.4
			c0.6-0.1,1.1,0.3,1.2,0.9c0,0,0,0,0,0l0,0c0.1,0.5-0.2,1.1-0.8,1.2c-0.7,0.2-1.3,0.3-2,0.4C105,191.8,103.7,191.9,102.4,191.9z"/>
		<path class="st61" d="M120.2,191.9c-1,0-2-0.1-2.9-0.4c-0.7-0.2-1.3-0.7-1.8-1.3c-0.5-0.8-0.8-1.7-0.9-2.7c-0.3-2.9-0.3-5.9,0-8.8
			c0.1-0.9,0.4-1.9,0.9-2.7c0.4-0.6,1-1.1,1.8-1.3c1-0.3,1.9-0.4,2.9-0.4c0.6,0,1.2,0,1.8,0.1s1.3,0.1,1.9,0.2l0.6,0.1
			c0.6,0.1,1,0.7,0.9,1.3l0,0c-0.1,0.6-0.7,1-1.3,0.9l-1.4-0.2c-0.8-0.1-1.6-0.1-2.5-0.1c-0.8-0.1-1.7,0.1-2.4,0.7
			c-0.5,0.6-0.8,1.5-0.7,2.3v9.7c1.2,0.3,2.5,0.5,3.8,0.4c0.7,0,1.4-0.1,2.1-0.2c0.4-0.1,0.9-0.2,1.5-0.3c0.6-0.1,1.1,0.2,1.3,0.8
			c0,0,0,0.1,0,0.1l0,0c0.1,0.5-0.2,1-0.7,1.2c-0.6,0.2-1.2,0.3-1.8,0.4C122.3,191.8,121.3,191.9,120.2,191.9z"/>
		<path class="st61" d="M130.9,190.2v-19.7c0-0.7,0.5-1.3,1.2-1.3l0,0c0.7-0.1,1.4,0.5,1.5,1.2c0,0,0,0.1,0,0.1v5.3
			c0.7-0.5,1.5-0.9,2.4-1.2c1-0.3,2.1-0.4,3.1-0.4c1.2-0.1,2.4,0.2,3.6,0.7c0.8,0.4,1.2,1.2,1.2,2v13.2c0,0.7-0.6,1.4-1.4,1.4l0,0
			c-0.7,0-1.3-0.6-1.4-1.4v-13.6h-4.5c-0.8-0.1-1.6,0.1-2.4,0.4c-0.5,0.4-0.7,1-0.6,1.6v11.6c0,0.7-0.6,1.4-1.3,1.4h0l0,0
			C131.5,191.6,130.9,191,130.9,190.2z"/>
	</g>
</g>
</svg>
