<?xml version="1.0" encoding="utf-8"?>
<!-- Generator: Adobe Illustrator 25.4.1, SVG Export Plug-In . SVG Version: 6.00 Build 0)  -->
<svg version="1.1" id="Layer_1" xmlns="http://www.w3.org/2000/svg" xmlns:xlink="http://www.w3.org/1999/xlink" x="0px" y="0px"
	 viewBox="0 0 460.5 572.9" style="enable-background:new 0 0 460.5 572.9;" xml:space="preserve">
<style type="text/css">
	.st0{fill:#009640;}
</style>
<g id="Layer_2_00000154385609891635966690000013547337504490741654_">
	<g id="Layer_1-2">
		<g>
			<path class="st0" d="M230.3,0C108.5,0,9.8,98.7,9.8,220.5C9.7,342.3,108.4,441,230.2,441c121.8,0,220.5-98.7,220.6-220.5
				c0,0,0,0,0,0C450.6,98.8,352,0.2,230.3,0 M230.3,430.8c-116.1-0.1-210.2-94.3-210.1-210.5c0.1-116.1,94.3-210.2,210.5-210.1
				c116.1,0.1,210.2,94.3,210.1,210.4C440.5,336.7,346.4,430.7,230.3,430.8"/>
			<path class="st0" d="M419.4,236.8c-4.7,3.4-9.4,6.8-14.2,10.1c-1.7,1.1-2.9,2.9-3.2,4.9c-0.6,2.8-1.3,5.6-2,9
				c0.9-0.3,1.8-0.7,2.7-1.2c3.6-2.2,7.1-4.4,10.8-6.6c2.4-1.5,4.1-1.5,4.9-0.3c0.9,1.2,0.2,3.4-2.2,5c-5.2,3.4-10.5,6.7-15.8,9.9
				c-2.2,1.1-3.8,3.2-4.5,5.6c-0.6,2.3-1.6,4.5-2.7,7.5c1.7-0.5,2.7-0.7,3.7-1.1l10.6-3.8c0.8-0.3,1.6-0.6,2.5-0.7
				c1.3-0.3,2.6,0,3.2,1.3c0.5,1.3-0.1,2.7-1.3,3.3c-1,0.6-2.1,1.1-3.2,1.5c-5.4,2-10.9,4.1-16.2,6c-1.8,0.5-3.4,1.8-4.1,3.6
				c-0.6,1.7-1.5,3.4-2.6,5.6h4.1l13.5-0.7h1.9c1.4,0,2.6,0.5,2.8,2.1c0.1,1.4-0.8,2.6-2.2,2.8c-1.5,0.3-3,0.5-4.5,0.6
				c-5.6,0.4-11.2,0.8-16.8,1.1c-1.7,0-3.3,1-4.1,2.6c-1.1,2.1-2.4,4.1-4.1,6.6c1.6,0,2.8,0.4,4.1,0.4l15.2,0.2c1,0,1.9,0.1,2.8,0.4
				c1.2,0.3,1.9,1.6,1.5,2.8c-0.2,0.5-0.5,1-1,1.3c-1.1,0.6-2.4,0.9-3.7,0.8c-6.7,0-13.3,0-20,0c-1.9-0.2-3.8,0.7-4.8,2.4
				c-1.5,2.2-3.2,4.1-5.2,6.9c1.9,0.3,3.3,0.6,4.7,0.6c5.2,0.3,10.5,0.5,15.8,0.7c0.9,0,1.7,0,2.6,0c1.2,0.1,2.2,1.1,2.3,2.3
				c0.2,1.2-0.6,2.4-1.8,2.8c-1.2,0.4-2.5,0.5-3.8,0.4c-7.4,0-14.9-0.3-22.3-0.6c-2.1-0.2-4.3,0.6-5.6,2.4c-1.7,2.1-3.8,4.1-6.1,6.5
				c2.4,0.3,4.1,0.6,6,0.8l15.7,1.5c1,0.1,1.9,0.2,2.9,0.4c1.2,0.2,2.1,1.2,2.2,2.4c0.2,1.4-0.7,2.6-2,3c-1,0.3-2.1,0.4-3.2,0.3
				c-8.1-0.5-16.2-1-24.3-1.7c-2.8-0.6-5.6,0.2-7.6,2.2c-1.4,1.4-3,2.8-4.6,4.1c0,0.2,0,0.5,0,0.7c2.2,0.3,4.3,0.6,6.5,0.9
				c6.2,0.7,12.4,1.3,18.6,1.9c0.5,0,1.1,0,1.6,0c1.6,0.2,2.8,1.8,2.5,3.4c-0.2,1.1-0.9,2-2,2.4c-1,0.4-2.1,0.6-3.2,0.5
				c-5.9-0.3-11.8-0.8-17.7-1.2l-16.2-1.2c-0.8-0.1-1.5,0.1-2.2,0.4c-1.9,1.1-3.6,2.2-5.9,3.7c0.7,0.4,1.5,0.7,2.3,0.9
				c7.8,1.5,15.6,3,23.4,4.5c0.9,0.2,1.9,0.4,2.8,0.7c1.2,0.4,2,1.4,2,2.7c0.1,1.2-0.6,2.4-1.8,2.8c-1.4,0.5-2.9,0.6-4.4,0.4
				c-8.1-1.2-16.2-2.5-24.3-3.8c-3.2-0.5-6.4-1-9.5-1.7c-2.2-0.2-4.3,0.3-6.1,1.5c-0.9,0.4-1.9,0.9-3.4,1.7c0.9,0.5,1.8,1,2.8,1.4
				l22.6,8.4c1,0.3,2,0.7,2.9,1.3c1.5,0.8,2,2.7,1.2,4.1c-0.3,0.6-0.9,1.1-1.5,1.3c-1.6,0.8-3.4,0.8-5,0l-19.6-6.5
				c-4.1-1.4-8.1-2.6-12.2-4.1c-2.9-1.2-6.3-1-8.9,0.8c0,1.5,1.3,1.6,2.2,2.1c6.9,4.1,13.9,7.7,20.9,11.6c0.9,0.4,1.7,0.9,2.5,1.5
				c1.2,0.8,1.8,2.3,1.3,3.7c-0.4,1.4-1.8,2.3-3.2,2.1c-1.4-0.1-2.8-0.5-4.1-1.1c-8.5-4.3-17-8.4-25.3-12.9
				c-4.4-2.7-9.6-3.5-14.6-2.3c-11.6,2.5-23.4,3.6-35.3,3.3c-12.1-0.1-24.1-1.5-35.8-4.1c-1.8-0.5-3.6-0.2-5.2,0.7
				c-9.7,5-19.3,9.9-29,14.9c-1.2,0.7-2.5,1.2-3.9,1.5c-1.8,0.6-3.8-0.4-4.5-2.2c-0.5-1.5,0-3,2.2-4.1c4.7-2.7,9.5-5.2,14.1-7.8
				l9.9-5.5c0.4-0.3,0.8-0.7,1.2-1.1c-2.3-1.7-5.3-2.3-8.1-1.5c-10.8,3.7-21.6,7.2-32.5,10.8c-1,0.4-2.1,0.6-3.1,0.8
				c-2,0.3-3.9-0.9-4.5-2.8c-0.3-1.5,0.7-3,2.8-3.8c3.4-1.3,6.9-2.5,10.3-3.8l13.9-5.2c0.8-0.3,1.5-0.7,2.4-1
				c-2.2-2.5-5.4-3.9-8.7-3.7l-24.2,4.1c-3.1,0.5-6.1,1.1-9.2,1.5c-1.2,0.2-2.4,0.2-3.5,0c-1.5-0.3-2.6-1.7-2.6-3.3
				c0.1-1.5,1.3-2.6,2.8-2.8c1.9-0.4,3.8-0.7,5.7-1.1l19.9-4.1c0.5-0.1,1-0.2,1.5-0.4c-1.7-2.6-4.5-4.3-7.5-4.6l-26.1,1.9
				c-2.7,0-5.4,0.3-8.1,0.4c-0.5,0.1-1.1,0.1-1.6,0c-1.8-0.2-3.1-1.7-3.2-3.4c0-1.5,1.3-2.6,3.4-2.8c7.9-0.9,15.8-1.7,23.7-2.5
				c0.7,0,1.4-0.3,2.8-0.6c-1.8-1.5-3.2-2.6-4.4-4.1c-2.3-2.3-5.6-3.3-8.7-2.7c-7.8,0.9-15.7,1.2-23.5,1.7c-1.2,0.1-2.4,0-3.5-0.3
				c-1.3-0.3-2.3-1.5-2.2-2.8c-0.1-1.4,1-2.5,2.3-2.6c0,0,0,0,0,0c3.1-0.4,6.2-0.8,9.3-1.1l12.8-1.3c0.6-0.1,1.2-0.2,1.8-0.4
				c-0.4-0.7-0.8-1.3-1.3-1.9c-1.1-1-2.1-2.1-3.1-3.2c-2-2.9-5.5-4.3-9-3.7c-6.7,0.4-13.3,0.4-20,0.6c-1,0.1-1.9,0.1-2.9,0
				c-1.6-0.1-2.8-1.4-3-2.9c0-1.4,1.1-2.5,3.1-2.6c4.1-0.3,8.4-0.4,12.6-0.6l10.1-0.5c-2.6-3.4-4.7-6.2-7-8.8c-0.6-0.6-2-0.6-3-0.6
				c-6.7,0-13.3,0-20,0c-1.1,0-2.1-0.1-3.2-0.3c-1.2-0.3-2.1-1.4-2-2.6c0-1.4,1.1-2.1,2.3-2.3c0.9-0.1,1.7-0.1,2.6,0l14.5-0.2h4.1
				c-0.9-1.7-1.8-2.9-2.3-4.1c-1.4-3.8-5.3-6.2-9.4-5.5c-4.8,0-9.7-0.4-14.5-0.8c-1.2-0.1-2.3-0.4-3.4-0.8c-1.2-0.5-1.8-1.7-1.5-2.9
				c0.2-1.1,1.2-1.9,2.4-1.7c3.6,0,7.1,0.3,10.6,0.4c2.9,0,5.7,0,8.8,0c-0.7-2.6-1.9-5.1-3.4-7.3c-0.4-0.8-1.7-1.2-2.7-1.5
				c-5.5-2.1-11.1-4.1-16.6-6.2c-1.2-0.4-2.4-1-3.4-1.8c-1-0.7-1.3-2-0.6-3c0,0,0.1-0.1,0.1-0.1c0.6-0.7,1.5-1,2.4-1.1
				c1,0.1,1.9,0.3,2.8,0.7l10.6,3.7c1,0.4,2,0.6,3.7,1.2c-0.5-1.7-0.9-2.7-1.1-3.8c-1.1-5.1-4.5-9.4-9.3-11.5
				c-3.8-2.4-7.6-5-11.1-7.8c-0.9-0.5-1.8-1.2-2.6-1.9c-1.1-0.8-1.3-2.4-0.6-3.5c0.9-1.3,2.2-1.1,3.4-0.6c0.7,0.3,1.3,0.7,1.9,1.1
				c3.4,2.1,6.8,4.1,10.2,6.2c0.9,0.5,1.9,0.9,2.8,1.3c-1-4.1-1.8-7.9-2.8-11.4c-0.3-0.9-1.4-1.6-2.2-2.2c-4.5-3.2-9-6.3-13.4-9.5
				c-0.9-0.6-1.7-1.3-2.4-2.2c-0.9-1-0.9-2.5,0-3.5c0.9-0.8,2.3-0.8,3.2,0c1.5,0.9,2.9,1.9,4.3,2.9l8.1,5.7c0.2-0.7,0.3-1.3,0.3-2
				c-0.4-7.4-0.4-7.4-5.4-12.8c-3.3-3.6-6.7-7.1-9.9-10.6c-1.7-1.9-2-3.2-0.9-4.1c1.1-0.9,2.8-0.9,4.5,0.7c2.5,2.4,4.8,5,7.2,7.5
				l2.6,2.5c0.2-0.8,0.3-1.7,0.4-2.6c-0.1-1.9-0.1-3.9,0-5.8c0.3-2.8-0.8-5.6-3-7.4c-2.8-2.8-5.4-5.8-8.1-8.8
				c-0.7-0.8-1.3-1.7-1.9-2.6c-0.6-0.9-0.4-2.1,0.4-2.7c0.1,0,0.1-0.1,0.2-0.1c0.9-0.2,1.8-0.2,2.6,0.2c0.6,0.2,1.1,1,1.6,1.5
				c1.9,2.2,4.1,4.3,5.9,6.4c0.6,0.6,1.2,1.1,2.4,2.1c0.3-3.8,0.8-6.9,0.9-10.1c-0.2-1-0.8-2-1.6-2.7c-2.8-3-5.6-5.9-8.4-8.9
				c-0.7-0.7-1.3-1.4-1.8-2.3c-0.7-0.8-0.6-2.1,0.3-2.8c0,0,0.1-0.1,0.1-0.1c0.8-0.6,1.9-0.5,2.5,0.2c0,0,0.1,0.1,0.1,0.1
				c1.1,1,1.9,2,2.9,3l6.3,6.7c1.1-1.8,1.7-3.9,1.8-6c1.1-4.7,1-4.7-2.2-8.1l-6.8-7.8c-1.4-1.7-1.6-2.9-0.7-3.7s2.3-0.4,3.6,1.1
				c1.3,1.5,3.6,4.3,5.4,6.4c0.6,0.8,1.4,1.5,2.6,2.8c1-3.4,1.9-6.2,2.6-9.1c0-0.9-0.3-1.9-0.9-2.6c-2-3.3-4.1-6.5-6.2-9.8
				c-0.6-0.8-1-1.6-1.3-2.6c-0.1-0.7,0.2-1.4,0.7-1.9c0.7-0.2,1.4-0.1,1.9,0.3c0.6,0.5,1,1.1,1.3,1.8c1.4,2.4,2.8,4.8,4.3,7.2
				c0.4,0.7,0.9,1.3,1.6,2.2c1.3-2.2,2.3-4.6,2.8-7.1c0-1-0.3-1.9-0.8-2.7c-1.8-3.5-3.8-7-5.6-10.5c-0.5-0.8-0.9-1.7-1.3-2.6
				c-0.3-1-0.3-2.2,0.9-2.4c1.2-0.2,1.5,0.4,2.1,0.9c0.4,0.5,0.7,1.1,0.9,1.7c1.3,2.7,2.6,5.4,4.1,8.1c0.4,0.9,0.9,1.6,1.7,2.9
				c1.7-3.7,3.3-6.8,4.7-10c0.3-0.7-0.2-1.9-0.7-2.6c-1.6-2.9-3.4-5.8-5-8.6c-0.5-0.7-0.7-1.5-0.9-2.4c0.1-0.6,0.5-1.1,1.1-1.4
				c0.5-0.1,1,0.1,1.3,0.5c0.6,0.9,1.2,1.8,1.7,2.8c1.3,2.5,2.6,5.1,4.3,8.1c1.7-3,3.2-5.2,4.3-7.6c0.2-0.9,0-1.9-0.4-2.7
				c-1.2-2.8-2.6-5.4-4.1-8.1c-0.5-1.1-1.6-2.6,0-3.4c1.6-0.8,2,1,2.5,2.1l3.5,8.6c1.9-1.9,3.5-4.1,4.7-6.5c0.3-0.5,0-1.4-0.3-2.1
				c-1-2.8-2.1-5.7-3.1-8.5c0-0.5-0.4-1-0.5-1.5s-0.5-2.1,0.8-2.4c0.4,0,1.4,0.9,1.6,1.5c0.9,2.6,1.5,5.2,2.2,7.8
				c0.2,0.8,0.6,1.6,1.1,3c2-2.7,4.1-5,5.4-7.3c0.4-1,0.4-2.1,0-3.1c-0.6-2.7-1.5-5.4-2.2-8.1c-0.4-1.5-0.4-1.5,1-3.3
				c2.1,3.7,1.4,7.8,3,11.7c0.6-0.4,1.2-0.8,1.7-1.3c0.6-0.6,1.2-1.3,1.7-1.9c4.5-5.2,4.1-3,2.6-10.3c-0.2-1.6-0.7-3.2-0.9-4.8
				c0-0.7,0.4-1.9,0.9-2c1.2-0.4,1.2,0.8,1.3,1.7c0.2,1.8,0.3,3.7,0.5,5.4c0,1.1,0.2,2.3,0.4,4.1c1.4-1.4,2.9-2.8,4.4-4.1
				c3-1.9,4.3-5.5,3.4-8.9c-0.2-1.7,0-3.5,0.3-5.2c0.2-0.5,0.5-0.8,1-1c0.5,0.1,0.8,0.5,1,1c0.1,1,0.1,1.9,0,2.9
				c0,1.6-0.2,3.2-0.4,5.2c0.7-0.2,1.4-0.5,2-0.9c2-1.6,4.1-3.4,5.9-5c1.1-0.8,1.7-2.2,1.6-3.6c0-2.8,0-5.6,0-8.4
				c0-1.1,0-2.2,1.8-2.5c1.1,4.1-1.2,7.7-0.6,11.8c0.9-0.5,1.5-0.8,2.1-1.2c2-1.5,4.1-3.1,6-4.3c2.1-1,3.2-3.3,2.8-5.6
				c-0.1-1.8-0.1-3.6,0-5.4c0.1-0.7,0.3-1.5,0.6-2.2c1.9,0.4,1.6,1.6,1.5,2.7c-0.3,2.2-0.6,4.5-1,7.1c0.8-0.2,1.6-0.5,2.3-0.9
				c1.1-0.6,2.2-1.3,3.3-2c4.5-2.7,4.5-2.7,4.9-8.1c0-2.3,0.4-4.5,0.6-6.7c0-0.9,0.4-1.7,2-1.3c-0.4,4-1.1,8-1.9,11.9
				c1.5,0.6,2.4-0.7,3.6-1.1c3.8-0.8,6.3-4.3,5.9-8.1c0.1-2,0.4-4.1,0.8-6.1c0-1,0.3-1.9,1.8-1.8c1.3,1.9,0,3.9-0.4,5.7
				c-0.4,1.9-0.8,4.1-1.3,6.6l3.5-1.3l17.1-6.7c0.9-0.3,1.9-0.5,2.8-0.6c0.1,0.3,0.2,0.6,0.3,0.9c-3.9,1.7-7.8,3.3-11.6,5
				c-4.1,1.7-8.1,3.8-11.9,6c0.8,0.4,1.6,0.7,2.4,1c2.7,0.8,5.4,1.4,8.1,2.2c1,0.3,2,0.7,2.9,1.2c-1.1,1.8-2.2,1.3-3.3,1
				c-3.1-1.1-6.3-2.2-9.4-3.4c-1.8-0.9-3.9-0.7-5.4,0.5c-2.5,1.4-4.9,3-7.2,4.7c4.8,1.8,9.6,1.9,13.9,3.8c-0.6,1.8-1.7,1.5-2.7,1.2
				c-2.8-1-5.7-1.9-8.5-3c-2.4-1.3-5.4-1-7.4,0.9c-4.7,4.1-9.7,7.8-14.6,11.6c-0.7,0.6-1.3,1.3-1.9,2.1c5.2,1,10-1,14.9,0.2
				c-0.4,2-1.7,1.7-2.6,1.6c-3.4-0.3-6.9-0.5-10.3-1c-1.8-0.4-3.7,0.2-5,1.5c-2.5,2.6-5.2,5.2-7.7,7.8c-0.7,0.8-1.4,1.6-2,2.5
				c2.8,1,5.3,0,7.8,0c2.5-0.4,5.1-0.4,7.6,0c0,1.7-1.1,1.6-2,1.6c-3,0-6-0.3-9-0.5c-6.6-0.4-4.8-0.9-8.9,3.8
				c-1.1,1.3-2,2.7-3.2,4.4c5,0.6,9.5-1.7,14.1-0.8c-0.2,2.1-1.5,2-2.6,2c-3.1,0-6.2,0.2-9.3,0c-2.3-0.3-4.5,0.9-5.6,3
				c-1.1,1.7-2.2,3.3-3.6,5.4c5,0.8,9.3-0.2,13.5,1c0,2.1-1.1,2.2-2.3,2.1c-2.5-0.2-4.9-0.5-7.4-0.8c-0.4,0-0.9,0-1.3-0.2
				c-2.3-0.9-4.9,0.3-5.8,2.6c0,0,0,0,0,0c-1.2,2.5-2.7,4.8-4.3,7.5c0.8,0.2,1.7,0.3,2.6,0.4l9-0.5c1.2-0.1,2.4-0.1,3.5,0
				c0.4,0,1.1,0.7,1,1c-0.1,0.6-0.4,1.1-0.9,1.4c-0.8,0.2-1.7,0.3-2.6,0.2c-3.7,0-7.5,0-11.3,0c-1.8-0.3-3.5,0.8-4.1,2.5
				c-1.3,3-2.8,6-4.5,9.6c1.6,0,2.6-0.2,3.5-0.4c3.5-0.6,7-1.2,10.5-1.8c0.4-0.1,0.8-0.2,1.3-0.2c0.9,0,1.9,0,1.9,1.2
				c-0.1,1.2-0.7,1.4-1.4,1.8c-0.7,0.3-1.4,0.5-2.2,0.4c-4.1,0.5-8.1,1-12.2,1.4c-1.7,0-3.1,1.1-3.5,2.7c-1,3-2.2,6-3.4,9.5
				c0.8,0,1.7-0.1,2.5-0.2l10.5-3.2c0.6-0.3,1.2-0.4,1.9-0.5c0.7,0,1.9,0.5,2,1c0,0.8-0.3,1.6-0.9,2.1c-0.7,0.4-1.5,0.7-2.4,0.9
				c-3.7,1-7.4,2.3-11.2,3c-2.4,0.3-4.3,2.2-4.5,4.6c-0.7,2.5-1.2,5.1-1.5,7.7c1.8-0.6,3.2-1,4.5-1.5l6.9-2.6
				c0.7-0.3,1.4-0.5,2.2-0.6c0.6,0,1.6,0.4,1.8,0.9c0.2,0.7,0.1,1.4-0.4,2c-0.7,0.6-1.6,1.1-2.5,1.3c-3.7,1.4-7.5,2.7-11.3,4.1
				c-1.9,0.4-3.2,2-3.3,3.9c-0.4,3.4-1,6.7-1.6,10.6c1-0.2,1.9-0.5,2.8-0.9l9.9-4.8c0.8-0.4,1.5-0.8,2.4-1c0.9-0.3,2.2-0.4,2.4,0.8
				c0.1,0.9-0.1,1.8-0.6,2.6c-0.7,0.7-1.6,1.2-2.5,1.5c-4.1,1.9-8.1,4.1-12.2,5.8c-1.8,0.5-3,2.2-2.9,4.1v13.1
				c0.7-0.2,1.3-0.5,1.9-0.9l8.4-6.5c0.9-0.7,1.9-1.5,2.8-2.2c1.8-1.3,3.2-1.3,4.1-0.2c0.9,1.1,0.4,2.6-1.2,4.1
				c-4.5,3.6-8.9,7.1-13.6,10.4c-2,1.2-3,3.5-2.5,5.7c0.4,3.2,0.7,6.4,1.1,10.1c0.7-0.5,1.4-1.1,2.1-1.7c3-3.4,6-6.8,8.9-10.2
				c0.6-0.6,1.1-1.3,1.7-1.9c0.8-1,2.2-1.2,3.2-0.5c1,0.8,1.3,2.1,0.6,3.2c-0.6,1-1.3,2-2.1,2.9c-3.9,4.5-7.7,9-11.7,13.4
				c-1.3,1.3-1.8,3.2-1.3,5c0.6,2.2,1,4.5,1.6,7.4c1.2-1.1,1.9-1.6,2.5-2.3l8.5-9.3c0.5-0.7,1.2-1.3,1.8-1.8c0.8-0.8,2-0.9,2.9-0.2
				c1,0.6,1.4,1.8,1,2.8c-0.4,1.1-1.1,2.1-1.8,3c-3.8,4.3-7.5,8.6-11.4,12.8c-1.3,1.2-1.7,3-1,4.6c1.2,3.2,2.2,6.5,3.4,10.3
				c0.9-1,1.5-1.5,2-2.2c3.1-4.5,6.2-9.1,9.3-13.6c0.5-0.8,1.1-1.6,1.8-2.3c0.6-0.9,1.9-1.2,2.8-0.6c1.1,0.5,1.7,1.8,1.3,3
				c-0.4,1.2-1,2.4-1.7,3.4c-3.7,5.6-7.3,11.2-11.1,16.6c-1.3,1.5-1.5,3.7-0.5,5.4c1.6,3,3,6.1,4.7,9.7c0.8-1.2,1.3-1.8,1.6-2.6
				l6.8-14.6c0.3-0.8,0.7-1.6,1.2-2.3c0.5-1,1.6-1.5,2.7-1.2c1.2,0.3,2,1.5,1.8,2.7c-0.1,1.2-0.4,2.3-0.9,3.4
				c-2.7,6.2-5.5,12.4-8.4,18.5c-1,1.7-0.8,3.8,0.4,5.4c2.2,3.2,4.1,6.5,6.7,10.3c0.6-1.3,1-2,1.2-2.8c1.6-5.9,3.2-11.8,4.9-17.7
				c0.2-0.7,0.4-1.5,0.7-2.2c0.4-1.1,1.4-1.9,2.5-1.5c0.9,0.4,1.7,1.1,2.1,2.1c0.3,1,0.3,2.1,0,3.1c-1.8,7.3-3.7,14.6-5.7,21.8
				c-0.8,2.1-0.3,4.5,1.4,6.1c2.2,2.4,4.3,5,6.5,7.5l0.8-0.3c0-1.1,0.4-2.2,0.5-3.3c0.7-6.4,1.4-12.8,2.1-19.2
				c0-0.8,0.2-1.5,0.5-2.2c0.6-0.8,1.4-1.8,2.2-1.9c1,0,2,0.6,2.5,1.5c0.5,1.5,0.6,3.1,0.5,4.7c-0.7,8.1-1.5,16.4-2.4,24.7
				c-0.3,1.8,0.4,3.7,1.9,4.8c2.4,2,4.6,4.1,6.9,6.2c1.5-1.1,1.1-2.4,1.1-3.5c0-7,0.3-14,0.4-21c-0.1-0.9,0-1.7,0.2-2.6
				c0.4-0.9,1.1-1.7,2-2.2c1.1-0.5,2.4,0.1,2.9,1.2c0,0,0,0.1,0,0.1c0.6,1.5,1,3,1.1,4.6c0,8.7,0,17.4,0,26.1
				c-0.3,2.3,0.8,4.5,2.8,5.6c3.2,1.9,6.2,4.1,9.8,6.7c0-1.7,0.3-2.8,0.2-3.8l-1.1-22.4c0-0.9,0-1.7,0-2.6c0-1.6,1.3-2.9,2.9-2.8
				c1,0,1.9,0.6,2.4,1.4c0.7,1.3,1.2,2.6,1.3,4.1c0.6,6.7,1,13.3,1.5,20c0.2,2.9,0.4,5.8,0.7,8.6c0,0.9,0.4,1.8,1.1,2.4
				c4.4,2.4,9,4.5,13.5,6.8l0.6-0.5c-0.1-1.1-0.3-2.2-0.6-3.2c-2-8.1-4.1-16.4-6.2-24.7c-0.2-0.8-0.4-1.7-0.5-2.5
				c-0.3-1.3,0.5-2.7,1.7-3.2c1.2-0.6,2.7-0.4,3.6,0.6c1,1.2,1.8,2.6,2.2,4.1c2.9,9.6,5.6,19.2,8.4,28.8c0.2,0.7,0.4,1.5,0.6,2.2
				c0.3,1.6,1.5,2.9,3.1,3.2c10.3,3.4,20.9,5.8,31.7,7.3c7.1,1.1,14.3,1.5,21.5,1.2c15.2-0.9,30.2-3.8,44.6-8.6
				c1.6-0.4,2.7-1.8,3-3.4c2.8-10.1,5.8-20.3,8.7-30.4c0.3-1.2,0.8-2.4,1.5-3.6c0.9-1.6,2.7-2.3,4.4-1.7c1.5,0.6,2.2,1.9,1.7,4.1
				c-0.4,2.2-1.2,4.8-1.8,7.2c-1.7,6.7-3.3,13.4-4.9,20c0,0.8-0.3,1.6-0.4,2.7c0.8-0.2,1.7-0.4,2.5-0.7c3.5-1.6,6.9-3.4,10.5-5
				c1.5-0.6,2.5-2.1,2.5-3.7c0.3-4.5,0.6-9,1-13.5c0.4-5.2,0.7-10.3,1.3-15.5c0.2-1.2,0.6-2.4,1.2-3.5c0.6-1.1,2-1.6,3.1-1.1
				c0.9,0.4,1.7,1.2,2,2.2c0.2,1.2,0.2,2.3,0,3.5c-0.3,7.8-0.7,15.5-1,23.2c0,0.6,0.1,1.2,0.2,1.8c0.7-0.2,1.5-0.5,2.2-0.9
				c2.8-1.9,5.6-4.1,8.5-5.8c1.6-1,2.5-2.8,2.2-4.6c0-8.8,0-17.6,0-26.5c-0.1-1.1-0.1-2.1,0-3.2c0.2-1.7,1.6-3,3.3-3
				c1.6,0,2.6,1.2,2.7,3.4c0,3.2,0,6.5,0,9.7c0,4.8,0.3,9.7,0.4,14.5c0.1,0.6,0.2,1.2,0.3,1.7c2-1.3,3.9-2.8,5.6-4.5
				c2.9-1.8,4.4-5.2,3.8-8.5c-1.1-7.7-1.5-15.4-2.2-23.1c-0.1-0.9-0.1-1.7,0-2.6c0-1.6,1.2-2.9,2.7-3.1c1.5,0,2.6,1,2.8,2.9
				c0.3,1.9,0.5,4.9,0.8,7.4c0.6,5.4,1.3,10.9,1.9,16.6c0.7-0.3,1.2-0.3,1.4-0.6c2.4-2.8,4.7-5.6,7.1-8.4c1-1.1,0.7-2.3,0.4-3.6
				c-1.9-7.1-3.7-14.3-5.5-21.5c-0.3-1.3-0.5-2.7-0.5-4.1c-0.1-1.1,0.7-2.1,1.9-2.3c1.2-0.3,2.5,0.4,2.8,1.6c0,0,0,0,0,0
				c0.4,0.9,0.7,1.8,0.9,2.8c1.5,5.4,3,10.8,4.4,16.2c0.3,1,0.6,1.9,1.1,3.3c0.8-0.9,1.3-1.4,1.7-1.9c1.9-2.9,3.7-5.9,5.6-8.7
				c0.8-1.2,0.8-2.8,0-4.1c-2.9-6.2-5.7-12.5-8.4-18.8c-0.5-1.2-0.9-2.4-1.1-3.7c-0.3-1.1,0.4-2.3,1.6-2.5c0.1,0,0.2,0,0.3,0
				c1,0.1,2,0.5,2.7,1.2c0.5,0.4,0.7,1.3,1,1.9c2.2,4.7,4.3,9.4,6.5,14c0.4,1,1,1.9,1.8,3.4c0.9-1.6,1.7-2.8,2.2-4.1
				c1.3-2.7,2.4-5.5,3.6-8.1c-1.6-2.6-3.1-5.2-4.7-7.7c-2.7-4.1-5.5-8.1-8.1-12.4c-0.7-1.2-1.1-2.6-1.2-4.1c0-2,2.1-2.8,3.7-1.5
				c0.7,0.7,1.3,1.4,1.8,2.2l8.7,12.8c0.6,1,1.4,1.9,2.3,3.1c0.5-0.7,0.9-1.4,1.3-2.1c0.9-2.6,1.6-5.3,2.6-8.1
				c0.7-1.6,0.3-3.5-1-4.6c-3.8-4.1-7.5-8.1-11.2-12.5c-0.9-0.9-1.5-2-1.9-3.2c-0.1-1,0.3-2,1-2.8c0.9-1,2-0.4,2.9,0.3
				c0.7,0.5,1.3,1.1,1.8,1.8l8.1,8.8l2.6,2.5c1.3-3.1,2-6.5,2.1-9.9c0-0.8-0.9-1.7-1.5-2.4c-4.1-4.7-8.1-9.3-12.2-13.9
				c-0.8-0.9-1.4-1.9-1.8-3c-0.1-0.9,0.2-1.8,0.9-2.5c0.8-0.4,1.8-0.4,2.6,0c0.7,0.3,1.3,1.1,1.8,1.7l8.1,9.3
				c0.9,0.9,1.7,1.8,2.7,2.8c1.4-4.2,1.9-8.7,1.6-13.1c-0.4-0.7-1-1.4-1.7-1.8l-12.3-9.7c-1-0.7-1.8-1.5-2.5-2.5
				c-0.4-0.8-0.4-1.8,0-2.6c0.8-0.4,1.7-0.5,2.6-0.3c0.7,0,1.3,0.8,1.9,1.2l9.5,7.3c0.8,0.6,1.7,1.2,3,2.2c0-1.6,0.3-2.6,0.3-3.6
				c0-3.4-0.4-6.9-0.4-10.3c0.1-1.7-1-3.2-2.6-3.7c-4.3-1.9-8.6-4.1-12.8-6c-1-0.5-2-1.2-2.8-2.1c-0.3-0.6-0.3-1.4,0-2
				c0.4-0.5,1-0.8,1.6-0.7c0.9,0.2,1.9,0.5,2.7,0.9l9.6,4.7c0.9,0.4,1.9,0.8,3.3,1.3c-0.2-4.2-0.8-8.4-1.8-12.5
				c0-0.7-1.5-1.4-2.5-1.7c-3.7-1.4-7.5-2.6-11.2-4.1c-0.9-0.2-1.8-0.6-2.6-1.3c-0.5-0.6-0.7-1.4-0.6-2.2c0-0.4,1.2-0.9,1.8-0.8
				c1.1,0.1,2.1,0.4,3.1,0.9c3.4,1.2,6.8,2.5,10.8,4.1c-0.5-3.7-1.4-7.3-2.8-10.8c-0.2-0.7-1.5-1.1-2.4-1.3
				c-4.1-1.2-8.1-2.2-12.5-3.4c-0.9-0.2-1.8-0.6-2.6-1.1c-0.5-0.5-0.8-1.2-0.6-1.9c0.5-0.6,1.1-0.9,1.9-0.9c0.9,0.1,1.7,0.3,2.5,0.7
				l12.2,3.7c0-0.8-0.1-1.6-0.2-2.4c-0.9-2.6-1.9-5-2.8-7.6c-0.4-1.6-1.9-2.7-3.6-2.6c-4.1-0.4-8.1-0.9-12.2-1.4
				c-1-0.1-1.9-0.3-2.8-0.7c-0.5-0.4-0.8-0.9-0.8-1.5c0.3-0.5,0.8-0.9,1.3-1.1c0.6-0.1,1.3-0.1,1.9,0l10.8,1.9c0.8,0,1.6,0,3,0.2
				c-1.4-3.8-3.2-7.6-5.3-11.1c-0.4-0.6-1.7-0.8-2.6-0.8c-4.1,0-7.8,0-11.6,0c-0.9,0.1-1.7,0-2.6-0.2c-0.5-0.3-0.9-0.8-0.9-1.4
				c0.2-0.6,0.7-1,1.3-1.1c1.4-0.1,2.7-0.1,4.1,0l10.1,0.5c-0.3-2.2-1.3-4.3-2.8-6c-3.4-5.3-1.7-5.2-8.8-4.3
				c-2.1,0.3-4.1,0.5-6.4,0.7c-1.2,0-2.5,0.2-2.8-1.8c4.1-1.9,8.8-0.2,13.6-1.4c-1.4-2.8-3.2-5.4-5.4-7.7c-0.5-0.6-1.8-0.5-2.7-0.6
				h-10.3c-1.1,0-2.2,0-2.2-2c4.4-0.7,8.8,1.2,13.3,1c0.2-1.5-0.9-2.3-1.5-3.1c-5.7-6.8-3.2-5.7-11.7-5.1c-2.4,0-4.7,0.3-7.1,0.3
				c-0.9,0-2,0.3-2.5-1.5c0.7-0.2,1.5-0.4,2.3-0.4c3,0,6,0.3,9,0.5l4.3,0.3c-0.3-0.8-0.7-1.5-1.2-2.2c-2.8-3-5.8-5.8-8.6-8.8
				c-1.2-1.3-3-1.8-4.7-1.5c-3.3,0.5-6.6,0.8-9.9,1c-1.1,0-2.1-0.1-3.2-0.3c0.6-2.1,1.9-1.7,3-1.7l8.4,0.5h3.7
				c-1.1-1.2-1.5-1.9-2.2-2.4l-15.7-12.2c-1.3-1.2-3.2-1.4-4.8-0.7c-3,1.3-6.2,2.3-9.4,3.4c-1.6,0.5-1.6,0.5-3.2-0.6
				c1.8-1.9,4.3-1.6,6.5-2.2s4.5-1.1,7.2-1.7c-1.9-1.7-4-3.3-6.2-4.5c-2-1.7-4.9-1.9-7.2-0.6c-2.8,1.2-5.6,2.1-8.5,3
				c-1.5,0.5-1.5,0.5-3.5-0.7c4.1-2.6,8.9-2.4,13.6-4.6c-7.5-4.2-15.3-7.8-23.3-10.8l0.2-0.8c0.8,0,1.5,0.1,2.3,0.3l17.2,6.6
				l3.8,1.6c-0.2-1.7-0.4-2.8-0.6-4.1c-0.5-2.2-1.1-4.4-1.4-6.7c0-0.7,0.1-1.4,0.3-2c2.1,0.5,1.9,2,2.2,3.2c0.3,2.4,0.6,4.7,0.9,7
				c-0.1,2.2,1.3,4.2,3.4,4.9c1.9,0.8,3.7,1.7,5.5,2.8c0.3-4.6-2-8.4-1.6-12.6c2,0,2,1.1,2.1,2.2c0.2,2.8,0.6,5.6,0.6,8.4
				c-0.1,1.9,0.9,3.6,2.6,4.4c2.4,1.2,4.6,2.7,7.1,4.1c0.7-2,0-3.7,0-5.3s-1.3-3.3,0.9-4.9c0.3,0.7,0.5,1.4,0.7,2.2
				c0,2.4,0,4.7,0,7.1c0,1,0.4,2,1.1,2.8c3,2.4,6.2,4.5,9.7,6.9c1-4.1-1.4-8.1-0.2-11.8c1.7,0,1.5,1.1,1.5,2.1c0,2.8,0,5.6,0,8.4
				c-0.1,1.6,0.6,3.1,1.9,4.1c2.4,1.8,4.6,3.8,7.1,5.9c1.1-3.2-0.6-6.4,0.6-9.3c1.5,0,1.5,0.9,1.5,1.7c0,2.4,0,4.7,0,7.1
				c-0.2,1.5,0.4,3.1,1.6,4.1c1.9,1.7,3.8,3.7,6.2,6c0.5-2.8,0.8-5.7,1-8.5c0-1.1-0.3-2.9,1.3-2.7c1.7,0.2,1,1.9,0.8,3
				c-0.4,2.6-0.9,5.3-1.5,7.9c-0.4,1.2,0,2.6,0.9,3.5c1.8,1.9,3.5,4.1,5.6,6.2c2.1-3.9,1-8.1,3.1-11.8c1.7,0.6,1.6,1.6,1.3,2.7
				c-0.9,2.9-1.5,5.8-2.5,8.7c-0.5,1.4-0.2,3,0.8,4.1c1.5,1.8,2.9,3.7,4.5,5.8c0.4-0.6,0.8-1.2,1.1-1.8c0.6-2.2,1.3-4.5,1.9-6.8
				c0.1-0.7,0.4-1.5,0.7-2.2c0.3-0.5,1-0.8,1.5-1.2c0.3,0.6,0.6,1.3,0.7,1.9c-0.1,0.7-0.3,1.5-0.6,2.1c-1,2.6-1.9,5.3-3,7.9
				c-0.6,1.3-0.4,2.9,0.4,4.1c1.2,1.5,2.2,3.1,3.6,5.2l2.7-6.4l1.5-3.6c0.4-0.9,0.9-1.7,1.9-1.3c1,0.4,0.9,1.5,0.6,2.4
				c-0.2,0.6-0.5,1.2-0.8,1.7c-1.2,2.6-2.4,5.1-3.7,7.5c-0.7,1.1-0.7,2.5,0,3.7c1.2,1.9,2.3,3.8,3.6,6.1c0.6-0.6,1.1-1.2,1.5-1.8
				c1.2-2.3,2.4-4.6,3.5-6.9c0.3-0.7,0.8-1.3,1.3-1.9c0.4-0.3,0.9-0.5,1.4-0.4c0.5,0.2,0.8,0.7,0.8,1.2c-0.1,0.9-0.4,1.9-0.9,2.7
				c-1.6,2.9-3.4,5.8-5,8.7c-0.5,0.8-0.7,1.8-0.5,2.7c1.3,3.1,2.8,6.2,4.5,9.7c0.5-0.7,1-1.3,1.5-2.1c1.3-2.7,2.6-5.4,4.1-8.1l1-2
				c0.5-0.9,1.1-1.7,2.3-1.3c1.1,0.4,1.1,1.7,0.8,2.8c-0.2,0.7-0.6,1.4-1,2c-1.9,3.6-3.8,7.2-5.8,10.8c-1.1,1.4-1.3,3.4-0.4,5
				c0.8,1.6,1.3,3.3,2.2,5.6c0.9-1.4,1.5-2.2,2.1-3.1c1.6-2.6,3.1-5.2,4.6-7.8c0.6-1,1.4-1.9,2.6-1.1s0.9,1.9,0.3,2.9
				c-0.4,0.7-0.7,1.3-1.2,1.9c-2,3.2-4.1,6.3-6,9.5c-0.6,0.9-0.9,1.9-0.8,3c0.6,2.7,1.5,5.4,2.4,8.4c0.7-0.5,1.3-1,1.9-1.5
				c1.9-2.3,3.8-4.6,5.8-6.9c0.6-0.8,1.4-1.4,2.2-1.7c0.7-0.2,1.4,0,1.9,0.4c0.3,0.6,0.3,1.4,0,2c-0.5,0.8-1.1,1.6-1.8,2.3
				c-2.6,2.9-5.2,5.8-7.6,8.8c-0.7,0.8-1.1,1.8-1.1,2.8c0.4,3,1.1,6.1,1.8,9.5c0.7-0.4,1.4-0.9,2-1.4c2.1-2.2,4.1-4.4,6.1-6.6
				c0.5-0.7,1.1-1.3,1.9-1.8c0.6-0.3,1.9-0.6,2.2-0.2c0.6,0.7,0.8,1.6,0.7,2.5c-0.4,0.9-0.9,1.7-1.7,2.3c-2.9,3.2-5.8,6.3-8.8,9.4
				c-1.1,1-1.7,2.6-1.4,4.1c0.4,2.6,0.6,5.3,0.9,8.4c0.7-0.4,1.4-0.9,2-1.5c2.2-2.3,4.1-4.6,6.3-6.9c0.5-0.6,1-1.3,1.6-1.5
				c0.6-0.2,1.9-0.5,2.3,0c0.6,0.7,0.9,1.6,0.8,2.5c-0.4,1-1,1.9-1.7,2.6c-3.1,3.4-6.2,6.9-9.4,10.2c-1.2,1.2-1.8,2.9-1.7,4.6
				c0,3.1,0,6.2,0,9.8c0.7-0.4,1.4-0.9,2.1-1.5c2.4-2.5,4.7-5,7.1-7.5c0.7-0.8,1.6-1.4,2.5-2c0.9-0.7,2.1-0.5,2.7,0.4
				c0,0.1,0.1,0.1,0.1,0.2c0.3,0.9,0.3,1.8,0,2.7c-0.2,0.7-1.1,1.3-1.6,1.9c-4.1,4.1-7.8,8.4-11.7,12.5c-1.7,1.5-2.6,3.7-2.6,6
				c0,1.9-0.4,3.8-0.6,6.3c1.3-0.7,2.2-1.1,2.9-1.6c3-2.1,6-4.1,9-6.2c2.2-1.5,3.7-1.6,4.6-0.4c0.9,1.2,0.5,3.3-1.5,4.7"/>
			<path class="st0" d="M205.2,292.2L205.2,292.2z M366.1,210h-36.2c-1,3-1.9,5.9-3,8.7c-20.6,54-81.1,81.2-135.1,60.6
				c-30-11.4-53.1-35.9-62.7-66.5c-0.3-1-0.7-1.9-1.1-2.7H91.6c8.4,52.5,60.1,114.1,141.1,112.1c38.3-0.6,74.6-17.4,100-46.2
				c16.6-18,34.1-53.1,33.2-66 M114.8,248c-3,0-3,0-3.6-2.3c0-0.5-0.3-1.2-0.6-1.4c-1.7-1.1-1.1-2.3-0.4-3.7c1.8,0,3.3,0.3,3.2,2.6
				c0.1,0.5,0.4,0.9,0.8,1.2C115.9,245.5,115.4,246.7,114.8,248 M116.8,243.7c-2.1-4.3-4.1-8.7-6.1-13.1c-0.8-1.6-0.9-3.1,1.3-4.1
				c-3.7-1.6-2.6-4.5-2.9-7.4c2.5-0.5,5.1,0.2,7.1,1.8c2.3,2,5.1,3.1,8.1,3.2l0,0l-0.4-0.4c0,0,0,0,0-0.2c-0.3-0.3-0.6-0.6-0.8-1
				c-0.5-0.9-0.8-1.9-1-2.9c0-0.9,0.2-1.9,0.4-2.8c1.7,0.8,3.6,0.6,2.9,3c0,0.3,0.4,0.9,0.8,1.3c0.7,0.5,0.9,1.6,0.3,2.3
				c-0.5,1-1.3,1-2.2,0.6l0,0c0.5,0.7,0.5,1.3-0.5,1.6l-4.9,1.7c-1.2,0.4-2.4,0.9-3.8,1.5c1.8,5.3,4.2,10.4,7.1,15.2
				c2.1-1.7,4.1-4.1,6.9-1.8c-0.9,2.2-2.8,3.8-5,4.4c-4.7,1.6-5,1.5-7.2-2.8 M121.2,250.1l3.7-1.3l1.8,2.3l2.1,2.8
				c0.7-1.7,1.2-3,2-4.9l3.9-0.5c0.5,1.4,0.2,2.9-0.8,4.1c-0.9,1.2-2,2.2-3.2,3c-4.1,2.5-5,2.2-7.4-1.7c-0.6-1-1.2-2-1.8-3
				c0-0.3,0-0.6,0-0.9 M185.9,294.6c-0.6,1.4-1.3,2.8-2.2,4.1c-1.5,2.2-1.9,2.3-4.3,1.3c-3.1-1.3-6.2-2.6-9.1-4.1
				c-8.2-4.1-16-9.2-23.1-15c-0.9-0.9-1.7-1.8-2.5-2.8c0,0-0.2-0.4-0.3-0.5c-4.2-2.5-7.8-5.8-10.7-9.7c-1-1.2-2.5-1.9-4.1-1.6
				c-1.3,0.2-2.6,0-3.8-0.3c-3.1-0.9-4.9-4.2-3.9-7.3c0.1-0.3,0.2-0.6,0.3-0.9c1.3,2.9,4.1,5,7.3,5.4c0-0.8-0.2-1.4-0.2-2
				c-0.2-1.1,0.5-2.2,1.6-2.5c0,0,0,0,0,0c2.2-0.6,4.4-1,6.6-1.1c2.3,0,3,1.4,1.7,3.4c-0.6,1-1.5,1.9-2.4,3.1
				c2.6,3.3,5.7,6.3,9.1,8.8l-0.7-1.8c2.9-2,5.6-1.9,7.3,0.3c1.7,2.2,0.9,3.8-2.1,6.2l9,6.9l4.8-2.1l0.4,0.6l-2.6,2.8l2.2,1.5
				l4.5-2.2l0.5,0.6l-2,3.2c2.2,1.3,3.1-2.5,5.4-1.3c-0.4,1.1-0.7,2.1-1.2,3.6c3.4,2,7,3.8,10.7,5.1c0.9-2.1,1.6-4.3,2.1-6.5
				c0.2-2.2,1.6-4.1,3.7-5l2,4.9c-0.5,0.5-1,1-1.5,1.4c-1.3,0.8-2.2,2.1-2.6,3.5 M187.6,302.6c0-0.8,0.1-1.5,0.2-2.3
				c0.6-2.4,1.4-4.7,2-7.1c0.6-2.1,2.1-3.9,4.1-4.9C194.1,293.8,191.8,299.1,187.6,302.6 M222.6,315.8c-1.6-0.2-2.7-1.7-4.4-0.6
				c-0.4,0.3-1.7-0.8-2.8-1.3c1-1.9,1.7-3.2,3.8-1.8c0.4,0.2,0.8,0.2,1.2,0c1.8-1.3,2.7,0,4.1,1.4L222.6,315.8 M221.3,308.8
				c-1,0.3-2.1,0.4-3.2,0.4c-4.1-0.4-7.9-0.9-11.8-1.5c-1.9-0.2-3.5-1-3.7-3.4c-3.2,2.4-5.2-0.4-7.6-1.2c0.3-2.4,1.8-4.5,4.1-5.6
				c2-0.7,3.7-1.9,4.9-3.6l0.6-0.9l0.5-0.9l0,0c-0.8,0.1-1.6,0.1-2.4,0c-0.6,0-1.2-0.7-1.7-0.6c-1.5,0.4-2.5,0-2.6-1.5
				c-0.1-1.5,1-1.5,1.4-2.2c1,0.4,2.1,0.7,3.2,0.9c2.3,0,2.8,0.9,2,3.4c1.1-0.4,1.3,0.3,1.3,1.1c0,1.6-0.2,3.2-0.3,4.8
				c-0.1,1.6,0,2.8-0.2,4.3c4.8,1.4,9.8,2.1,14.8,2.2c1-1.7,0.9-4.1,3.2-5.2c0.8,1.1,0.3,2.1,0,3.1c-0.3,1,0.3,2.3,1.9,2.3
				c4.4,0,8.8,0,13.7,0c-0.8-1.3-1.4-2.6-1.8-4.1c0.1-1.3,0.5-2.5,1-3.6c3.8,2.8,5,7.9,2.9,12.2c-6.7,1-13.6,0.9-20.3-0.5
				 M240.6,314.6c-0.1,0.2-0.2,0.4-0.4,0.6l-0.3,0.3c-0.3,0.3-0.7,0.5-1.1,0.6c-1.6,0.7-2.4-0.7-3.7-1.9l2.4-2.8l2.8,1.3l0,0
				c0.1,0.2,0.2,0.4,0.2,0.6c0,0.1,0,0.2,0,0.3C240.7,313.9,240.7,314.3,240.6,314.6 M277.8,301.2c-2.6,1.5-5.6,2.3-8.6,2.3
				c-2.4,1.7-5.2,2.7-8.1,2.9c-2.9,0.8-5.8,1.3-8.9,1.9c-0.5,1.4-1.2,2.8-1.9,4.1c-0.6,1.9-2.6,2.9-4.5,2.3
				c-0.2-0.1-0.4-0.1-0.6-0.2c-0.9-0.3-1.7-0.6-2.5-1l-1.2-0.6l-1.2-0.6c0-0.3,0.4-0.9,0.4-0.9c4.1,1.6,5.8-0.9,7.8-3.4
				c0.8-0.8,0.9-2.1,0.1-2.9c-0.1-0.1-0.2-0.2-0.3-0.3c-1.8-1.5-1.5-3.1,0-5.2c0.6,0.7,1.3,1.3,2,1.8c0.9,0.6,2.1,1.6,3,1.5
				c4-0.4,8-1.4,11.7-3.2l-2.3-0.3c-0.4-3.7,0.4-5.2,3-5.8c2.6-0.6,4.5,1,5.8,4.7l10.3-4.1c-0.9-2.5-2.5-4.7-4.5-6.4
				c-1.6-1.4-2.3-3.5-1.8-5.6l5.6,1.8c0.2,0.5,0.3,1,0.2,1.6c-0.2,1.7,0.4,3.4,1.6,4.7c1.5,1.9,2.5,4.1,2.8,6.5
				C283.4,298.9,280.7,300.3,277.8,301.2 M291.3,294.4c-0.7-0.5-1.3-1.1-1.9-1.7c-1.7-1.9-3.3-4.1-5-5.9c-1.2-1.7-1.8-3.8-1.7-5.8
				C287.4,283.8,291.9,290.8,291.3,294.4 M290.3,278.2c-0.7,0.9-1.9,1.1-2.9,0.5c-0.6-0.4-0.6-1.5-1.1-2.8c2.8,0.5,3.5-3.4,6.5-1.7
				c0,0.5,0.2,1.3,0.4,2.1C292.2,276.8,291.2,277.5,290.3,278.2 M347.6,229.9c-1.3,2.8-2.5,5.7-3.7,8.6c-0.4,1.5-0.7,3-0.9,4.5
				l-5.3,3.6c0.8,1.5,0.6,3.3-0.6,4.5c-1.8,3.6-4.3,6.9-7.3,9.7c-1.1,3.7-4.1,5.8-6.3,8.8c-1.1,1.7-3,2.6-5,2.3
				c0.6,1.8-0.2,3.7-1.8,4.7c-3.1,2.5-6,5.2-9.1,7.7c-2.1,1.7-2.2,1.6-5.2,0.9c-0.4,4.1-4.1,3.1-6.3,4.8c-1.5-2.7-3-5.1-1.7-8.1
				c0.7-1.3,0.7-2.8,0-4.1c-0.4-0.9-0.6-1.8-0.6-2.7l0.6-0.4l9,6.9c3.9-2.7,7.6-5.9,10.9-9.4c-0.7-0.2-1.5-0.4-2.2-0.4
				c-3.6,0.6-7-1.7-7.8-5.2l4.5-7.6l2.9,3.4l-2.8,5.2c3.1,0.3,6.3,0.3,9.4,0c0.6-0.1,1.2-0.5,1.6-1c2.1-2.4,4.1-4.9,6.4-7.5
				c-2.3-1.4-4.7-2.6-7.3-3.3c-1.9-0.8-3.2-2.6-3.4-4.6c2.3,0.6,4.4,1.4,6.5,2.4c2.1,0.9,4.1,1.8,6.4,2.8c2.2-3.3,4.1-6.4,6-9.3
				c-0.9-1.6-1.6-3.2-2.2-5c-0.5-2.2,0.4-3.1,2.7-3c2.4,0.4,4.8-1.1,5.4-3.5c0.9-2.4,2-4.7,3-7.2c-2.4-1-5-1.2-7.6-0.8
				c-1.9,0.4-3.8-0.4-4.9-2l5.2-3.2c1.5,1.6,3.5,2.6,5.7,2.6c1.5,0.1,2.9-0.3,4.1-1.2c2.2-1.7,2.8-1.5,5,0.3c-1,2-2.1,4.1-3,5.9
				 M335,217.9c5.5-1,11.1-0.5,16.2,1.6C345.9,221.7,339.8,221.1,335,217.9 M205.2,292.2L205.2,292.2z"/>
			<path class="st0" d="M311.3,210c-9.9,0-19.8,0-29.7,0c-2.8-0.2-5.4,1.2-6.8,3.6c-13.8,18.8-32.5,27.2-55.6,23.4
				c-15.2-2.5-28.6-11.4-36.8-24.3c-0.9-1.6-2.6-2.5-4.4-2.4c-10.8,0-21.5,0-32.3,0c-0.9,0-1.8,0-2.8,0c12,38.3,48.1,63.8,88.1,62.5
				c21.2-0.3,41.6-8.3,57.3-22.5c12.4-10.7,21.6-24.6,26.7-40.2L311.3,210z M272.7,227.5c0.6,0.2,1,0.6,1.2,1.2
				c0,0.5-0.2,1.4-0.6,1.5c-0.9,0.4-1.8,0.5-2.7,0.2c-0.5,0-0.7-1.2-1.4-2.4C270.4,227.7,271.5,227.5,272.7,227.5 M202.9,241.4
				c0.9-0.8,1.9-1.5,3-2c1.1,1.6,1.8,2.7,0.6,3.7c-0.8,0.5-1.7,0.6-2.6,0.4C203.3,243.4,202.7,241.7,202.9,241.4 M179.7,219.1
				c0.9,0.2,2,0.3,2.6,0.9c1.1,1.1,2.1,2.4,2.9,3.7c0.2,0.3,0,1,0,1.4c-2.9,0.4-2.8,0.4-4.1-1.7c-0.3-0.5-0.9-0.9-1.2-1.4
				c-0.4-0.7-0.7-1.5-1-2.2L179.7,219.1 M173.1,244.2c-0.4-0.7-1-1.3-1.7-1.7c-1.8-0.7-1.9-2-1.7-3.8c1.9,0,3.7-0.5,4.3,2.1
				c0.3,0.7,0.9,1.2,1.6,1.3c2,0.5,2.2,2,2.3,3.7C174.5,246.6,174.6,246.5,173.1,244.2 M204.7,254.7c-2.1-1.1-4.5-1.6-6.9-1.6
				c-4.5-0.6-8.7-2.6-11.9-5.8c-0.6-0.5-1.3-0.9-1.9-1.3c-2.1-1.3-4.4-2.4-4.7-4.9c-1.3-0.8-2.6-1.6-3.8-2.5
				c-1.3-1.2-2.5-2.7-3.7-4.1c-1.2-1.4-1.8-2.7,0-4.3c-1.6-0.9-3.5-0.9-4.1-3c-0.5-1.6-1-3.1-1.7-4.6c2.3-0.8,4.9-0.6,7.1,0.6
				c3,1.8,6.5,2.7,10.1,2.6c0.2,0,0.5,0.2,1.3,0.6l-8.5,5.5c1.2,2.9,3.7,4.1,5.3,6.4c1.1-0.5,2.2-0.9,3.4-1.3c1.1-0.1,2.2-0.1,3.3,0
				c-0.3,2.1-2.6,1.9-3.4,3.8l3.6,3.2c1.7-1.9,3.2-3.5,4.5-5.3c1.6-1.8,3.9-2.9,6.3-2.7c-2.4,3.5-4.9,6.8-7.7,10l8.1,4.3
				c-0.5-2.8-2.6-3-4.1-4.1c4.1-2.7,6.2-2.4,9.1,0.7c2.1,2.2,4.3,4.3,6.6,6.5C209.6,255.5,206.8,256,204.7,254.7c0-0.1,0-0.1,0-0.1
				 M213.7,258.7c-0.2-3.6,0.2-7.1,1.3-10.5c0.4-1.6,1.7-2.8,4.1-4.1c-0.9,5.6-0.6,10.9-5.2,14.6 M237.3,260
				c-2.2,0.2-4.4,1.1-6.6-0.3c-0.3-0.1-0.6-0.1-0.9,0c-2.6,1.6-5.4,0.6-8.1,0.5c-2.7,0-2.8-0.8-2-3.1c0.5-1.3,1-2.5,1.7-3.7h0.7
				c0,0.8,0.3,1.5,0.5,2.5h6.6c0-3-2.3-6.2,1.1-8.9c0.4,0.6,0.7,1.2,0.9,1.8c0.4,1.2,0.7,2.5,1.1,3.7c1.2,4.1,1.3,4.1,5.9,2.5
				c-0.5-2.2-1.2-4.3-2.2-6.2c-1.4-2.1-0.6-3.6,0.3-5.4l4.9,2.9c-0.2,0.7-0.4,1.4-0.5,2.1c-0.1,1.2-0.1,2.5,0,3.7
				c0.1,0.7,0.3,1.5,0.6,2.2C242.2,258.3,241.3,259.5,237.3,260 M248.5,258.1c-2.1-3.4-3.9-6.9-5.4-10.6c-0.4-1.1,0.2-2.6,0.4-4.1
				c4.1,3.7,5.9,9.4,4.7,14.9 M250.2,243.1c-0.2,0-0.3-1.1-0.3-1.7s0.2-0.8,0.4-0.8c1.5-0.3,3-0.9,4.3-1.8c0.6-0.3,1.6,0,2.6,0
				c0.5,1.8,0.2,2.8-1.5,3.2c-0.9,0-1.6,0.9-2.5,1.1C252.2,243.3,251.2,243.3,250.2,243.1 M262.9,252.3c-0.4,0.5-0.9,0.9-1.5,1.2
				c-1.5,0.8-3.1,1.8-4.8,0.8c-1.7-1-1.3-2.6-1.2-4.1c0.1-1.5,0.5-4.1,0.8-6.5c1.6,0.2,3.2,0.5,4.8,0.9c2.4,0.7,3.9,3.2,3.2,5.6
				C263.9,251,263.5,251.8,262.9,252.3 M271.7,253.6c-2.1,0.9-4.5,1.1-6.8,0.7c1.9-1.3,3.7-2.8,5.4-4.3c0.8-1,1.3-2.2,1.6-3.4
				c0.1-0.6,0.1-1.2,0-1.7c-2.2-1.6-6.5,0.3-6.5-4.6c3.6-0.6,7.1,0.8,9.4,3.6c2.2,2.6,1.8,6.5-0.8,8.6
				C273.3,253,272.6,253.4,271.7,253.6 M278.8,242.2c-3.8-2.1-7.1-3.7-10.3-5.7c-1.1-0.7-1.7-2.4-2.6-3.8c4,0.7,7.7,2.5,10.8,5
				C278.2,238.8,279,240.5,278.8,242.2 M296.8,230.1c-1,1.4-2.1,2.8-3.2,4.1c-1.4,1.4-2.6,3-3.7,4.6c-2.1,2.6-5.2,4.3-8.6,4.7
				l-0.4-0.8l2.3-1.5c2.3-1.5,3.3-4.4,2.4-7.1c-0.2-1-1.2-1.6-2.2-1.5c-0.7,0.1-1.5,0.2-2.2,0.4c-1.7,0.6-3.6-0.3-4.2-2
				c0-0.1-0.1-0.2-0.1-0.3c4.8-2.6,9-1.4,13.4,3.6c3-2.3,3.9-6.5,2.1-9.8c-0.9,2.2-2,3.8-4.4,3.5c-2.3-0.3-4.3-1.6-5.4-3.7
				c-0.9-1.4-0.6-2.2,0.9-2.8c4.3-1.8,9.2-1,12.7,1.9c1.9,1.4,2.4,4,1,5.9c-0.1,0.1-0.2,0.2-0.3,0.3"/>
			<path class="st0" d="M259.4,54.3c0.1,0.7,0.4,1.3,0.6,1.9c1,1.7,2.1,3.2,3.1,5c2.1,3.7,2.5,8.2,1,12.2c-2.3-1.7-2.3-5.4-6-5.7
				c0,1.4,0,2.6,0,3.9c0.1,4-0.6,8-2.2,11.6c-0.5,1.1-1,2.4-2.8,2.4c-0.1-1.5-0.3-2.9-0.6-4.4c-0.3-0.9-0.7-1.8-1.3-2.5
				c-0.3-0.5-1-0.6-1.5-0.3c-0.3,0.2-0.5,0.5-0.5,0.8c-0.1,0.5-0.1,1.1,0,1.6c0,3.4-1.2,6.6-3.4,9.3c-0.5-2.4-1.6-4.5-3.3-6.3
				c-1-1.2-2.2-2.2-4.1-1.6c-1.5,0.5-2.5,1.9-2.5,3.4c0,3.2-0.6,6.4-1.6,9.5c-0.1,0.4-0.1,0.8,0,1.3c0.7,4.3,1.5,8.6,2.1,12.9
				c0,1.1-0.3,2.1-0.8,3c-0.9,1.5-0.9,3.3,0,4.8c0.8,2.5,1.1,5.1,0.9,7.8c0,1.5,0,3,0,4.5l1.3,0.3c2.7,0.5,3.3,1,3.2,3.8
				s-0.4,6.9-0.7,10.1c-7.3,1.1-14.8,1.2-22.2,0.4c-0.9-3.6-1.3-7.3-1.2-11c0-2.5,0.7-2.9,4.7-3.7c0-1,0-2.2,0-3.3l0.7-10.6
				c0-0.3,0-0.7,0-1c-0.3-6.1,0-12.3,1.1-18.3c0.1-0.2,0.1-0.4,0-0.6c-1.1-3-1.5-6.3-1.1-9.5c-0.1-1.9-1.4-3.5-3.2-4.1
				c-1.8-0.4-2.8,0.6-3.8,1.8c-1.7,1.6-2.6,3.8-2.6,6.1c-2.5-1.5-3-2.9-4.4-11.4c-2.2,0-2.2,0-3.7,7.1c-1.5,0-2.1-1.3-2.6-2.5
				c-1.5-3.5-2.3-7.2-2.3-11c0-1.5,0-2.9,0-4.5c-3.9,0-3.7,4.1-6,5.5c-2.4-7.6,0.2-13.2,6.4-18.1c-3.2-0.8-6.6-0.4-9.5,1.1
				c-1-3.4,0.4-7,3.4-8.9c2.2-1.1,4.5-1.9,6.8-2.9c0.9-0.3,2.1,0,2-1.6c-0.1-1.6-1.4-1.5-2.5-1.5c-1.9,0-3.9,0.2-5.8,0.4l-3.4,0.3
				c0.8-2,2.6-3.4,4.7-3.6c3.4-0.5,6.8-0.6,10.2-0.9c1.5,0,3,0,4.5,0c0.9-2.6-1.2-4.1-2.1-5.8c3.8-1.4,6.6,0.9,9.6,2.6
				c0.8-2.8,0.5-5.8-0.6-8.5c3.7,0.7,4.9,4.1,7.4,5.9c2-3.8,3.2-7.9,3.6-12.2c1.9,2.1,1.1,4.3,1.7,6s1.3,3.8,2.1,6.2l7.1-6.5
				l0.6,0.4c-1.1,2.6-1.4,5.4-0.8,8.1c2.1,0.4,3.1-1.8,4.8-2.1c1.8-0.3,3.6-0.5,5.4-0.5c-1.1,2.2-3.1,3.4-2.6,6.1l3.7,0.2
				c3.1,0,6.2,0,9.3,0.4c2.8,0,5.3,1.6,6.6,4.1c-1.5,0-2.6-0.4-3.8-0.4c-2,0-4.1-0.3-6.1-0.3c-1.2,0-2.1,0.5-2,2.2
				c0.6,0.2,1.2,0.5,1.9,0.8c1.6,0.6,3.2,1.1,4.8,1.8c4.7,2.1,6,4.1,5.7,9.8c-2.5-0.9-4.7-3.1-8.1-1.9"/>
			<path class="st0" d="M279.3,185.9c0.3,5.2-3,10-7.9,11.6c-2.4,0.7-5,0.1-6.9-1.5c-4.1-3.3-8.1-6.7-12.2-10.1
				c-0.9-0.8-1.7-1.6-2.8-2.6c-1.7,1.5-2.9,3.6-5.4,3.2c-1-0.1-2-0.5-2.9-1.1c-2.2-1.8-1.9-4.3,1.1-8.5l-12.2-9.5
				c-0.7-0.7-1.9-0.7-2.6,0l-12,9.4c1.3,2.1,3.2,3.5,2.6,5.9c-0.3,1.1-1,2.2-1.8,3c-2.1,1.8-4.5,1.1-8.1-2.2
				c-0.9,0.8-1.8,1.7-2.8,2.5c-3.9,3.2-7.8,6.4-11.6,9.7c-3.7,3.1-9.2,2.6-12.3-1.1c-0.5-0.6-0.9-1.3-1.2-2
				c-0.8-1.5-1.3-3.2-1.7-4.9c-0.7-2.1,0.4-4.4,2.5-5.2c0.1,0,0.1,0,0.2-0.1c2.2-1.1,4.9-0.4,6.4,1.6c0.9,1.5,1.6,3,2.2,4.5
				c4.6-3.1,8.8-6.8,12.4-11c-1.3-1.6-3.2-3.1-2.5-5.5c0.3-1.1,0.9-2.1,1.8-2.9c2.4-2,4.7-1.2,7.8,2.5l12.7-10
				c-20.2-14.1-44-22-68.6-22.8c4.9-2,10-3.1,15.3-3.2c11-0.3,21.9,1.8,32.1,6.1c8.7,3.5,17,7.9,24.8,13.1l3.2,2l3-1.8
				c10.7-7.3,22.4-12.9,34.8-16.6c11.2-3.5,23.1-3.8,34.4-0.9c1.1,0.3,2.3,0.8,3.3,1.3c-24.4,0.7-48,8.5-68.1,22.4
				c3.6,3.9,7.7,7.3,12.2,10.1c1.1-1.7,2.4-3.4,4.7-3.3c1.2,0.1,2.3,0.5,3.2,1.2c2.3,1.8,1.9,4.7-1.1,8.4l12.2,11.4
				c0.8-1.7,1.2-3.2,1.9-4.4c1.4-2.6,4.6-3.5,7.2-2.1c0.1,0.1,0.2,0.1,0.3,0.2c1.1,0.6,1.9,1.8,2,3.1"/>
			<path class="st0" d="M144.6,71.4c-1.8,1.5-3.4,1.5-13.5,0.2l12.9-0.9C144,70.7,144.4,71.2,144.6,71.4"/>
			<path class="st0" d="M325.8,72c-4.4,0.4-8.8,0.6-13.2,0.4c0-0.5,0-0.9,0-1.4c2.2-1.3,4.4,0,6.6,0C321.5,71.2,323.7,71.5,325.8,72
				"/>
			<path class="st0" d="M133.7,260.5l0.6-0.6l0.7,0.6c-0.2,0-0.4,0.6-0.6,0.6S134,260.7,133.7,260.5"/>
			<path class="st0" d="M202.4,299.4c0,0.3,0.4,0.6,0.4,0.7c-0.1,0.2-0.3,0.4-0.6,0.5c0,0-0.4-0.3-0.6-0.5L202.4,299.4"/>
			<path class="st0" d="M116,225.2c0-0.4-0.5-0.6-0.5-0.8c0-0.2,0.4-0.5,0.4-0.5c0.3,0.1,0.5,0.3,0.6,0.5
				C116.5,224.5,116.2,224.9,116,225.2"/>
			<path class="st0" d="M174.3,226.7l1.3,0.8c0,0-0.5,0.6-0.6,0.6c-0.4-0.2-0.7-0.5-1.1-0.8L174.3,226.7"/>
			<path class="st0" d="M288,224.3l-1.5,1.2l-0.4-0.3c0-0.3,0-0.6,0.4-0.8c0.4-0.2,0.5,0,1.4,0"/>
			<path class="st0" d="M261.2,248.8c-3.7,2.1-3.7,2.1-4.1-0.8L261.2,248.8"/>
		</g>
		<g>
			<path class="st0" d="M357.2,525.5c-1.6-2.7-3.8-3.1-6.1-0.9c-1.2,1.3-2.3,2.8-3.1,4.4c-2.5,4.8-3.8,10.2-3.8,15.6
				c-0.1,3.2-0.3,3.4-3.3,4.1c-1.2,0.3-2.4,0.4-3.7,0.3c-3.7-0.1-6.7-3.1-6.6-6.9c0-0.2,0-0.3,0-0.5c0-0.8,0-1.7,0-2.6
				c-4.5,2.2-8.7,4.4-13,6.2c-5.5,2.3-11.5,3.2-14,2.5c0.9-0.7,1.8-1.4,2.6-2.2c2.2-2.2,4.3-4.6,6.2-7.1c2.2-2.9,2.3-6.9,0.2-9.9
				c-0.9-1.5-2-3-3.1-4.4c-2.5-3-6.6-4.3-10.4-3.2c-4.3,1-8.3,2.9-11.8,5.6c-3.7,2.8-7.3,6-10.9,9c-0.6,0.5-1.3,0.9-2.5,1.8
				c0.2-2.1,0.4-3.4,0.5-4.7c0.4-5.7,1.1-11.5,0.9-17.1c-0.4-9.7-1.6-19.3-2.4-28.9c-0.1-1.8,0-3.7,0-5.8l3.2,2.2
				c-1.3-6.3-3.7-12.1-6.2-18.6c-1.6,3.8-3.5,6.7-1.8,10.3c0.2,0.6,0.3,1.3,0.3,2c0.2,3.9,0.4,7.9,0.6,11.8
				c0.5,7.6,1.3,15.2,1.8,22.9c0.5,8.5,0.8,17.1,1,25.6c0,1.7-0.5,3.3-1.3,4.7c-1.5,2.1-3.1,4.2-4.8,6.1c-0.7,1-2,1.6-3.2,1.4
				c-3.3-0.3-6.4-1.4-9.1-3.3c1-3.3,2.2-6.4,2.9-9.5c0.9-3.9,0.5-7.9-1.2-11.5c-1.4-3-3.8-3.8-6.3-1.7c-5.8,5-9.4,11.1-8.2,19.2
				c0.1,1.1,0.3,2.2,0.4,3.2c-4.4,2.5-8.9,2.8-13.6,3c-5.8,0.3-10-2-12.8-7c-0.8-1.4-1.7-2.9-2.7-4.2c-2-2.9-4.2-3.3-7.3-1.5
				c-1,0.6-2,1.4-2.9,2.3c-2.9,2.7-5.2,6-6.8,9.6c-1.6,3.5-3.2,7-4.8,10.4c-0.6,1.4-1.4,2.8-2.4,4.1c-3.3,4.2-8.1,3.9-10.7-0.7
				c-1-1.8-1.6-3.7-2-5.7c-1.1-5.6-0.8-11.2-0.3-16.8c0.2-2.7,1.4-3.9,3.6-4.9c6.1-2.6,12.1-5.4,18.2-8.1c3.3-1.7,5.4-5.1,5.5-8.8
				c-1.1,0.5-2.1,0.8-3.1,1.3c-6.1,2.6-12.2,5.3-18.3,7.9c-2.7,1.2-5.6,1.6-8.5,1.1c-7.3-1.4-16.9-10.4-18.6-17.6
				c0-0.1,0-0.2-0.1-0.3c-0.5-1.3,0.1-2.8,1.4-3.5c1-0.7,2.2-1.2,3.3-1.7c4.6-1.8,9.5-2.8,14.5-3c4.7,0,9.4,0.4,14.2,0.6
				c-0.8-0.7-1.6-1.3-2.5-1.9c-4.9-3.1-10.6-4.6-16.4-4.5c-4.9,0.1-9.6,2.1-13.1,5.5c-2.8,2.6-4.5,6.3-4.6,10.2
				c-0.4,8.4,3.6,14.6,10,19.6c0.9,0.7,1.9,1.4,3.4,2.5c-6.2,2.8-12.1,3.8-18.2,2.6c-2.6-0.5-4-2.8-4.2-5.6c-0.1-1.1,0-2.1,0-3.2
				c-0.9,0.7-1.8,1.6-2.4,2.6c-1.3,1.8-2.7,3.6-4.2,5.2c-1.6,1.6-3.7,2.6-6,2.6c-3.4,0.2-6.3-2.3-6.5-5.7c0-0.4,0-0.8,0-1.1
				c0.1-0.7,0.1-1.4,0.2-2c-2.1,1.9-4.1,3.7-6,5.6c-3.5,3.5-8.4,5.2-13.3,4.6c-4.8-0.5-6.9-3.2-6.4-8c0-0.8,0-1.7-0.1-2.5
				c-0.9,0.7-1.5,1.1-1.9,1.5c-2.1,2-4.2,4-6.4,6c-3.2,2.9-7.4,4.5-11.7,4.7c-4.5,0.3-7.2-1.7-8.4-6.1c-0.5-1.9-0.7-3.8-1.1-5.6
				c-0.9-4.7-1.7-9.5-2.7-14.2c-0.3-1.3-0.9-2.5-1.7-3.6c-0.8-1.2-2.1-0.9-2.6,0.5c-0.2,0.8-0.2,1.6-0.3,2.3
				c-0.3,2.1-0.7,4.2-1.3,6.2c-0.6,2.3-2.6,3.9-5,3.9c-2.7,0.1-4.9-0.5-6.2-3.1c-0.5-0.8-1-1.7-1.5-2.4c-1.7,3.7-2.6,6.8-0.6,10.6
				c1.5,2.8,2.2,6.1,3,9.3c0.9,2.9-0.1,6-2.5,7.8c-6.2,5.5-12.7,10.5-20.2,14c-3,1.4-6.2,2.6-9.5,3.3c-3.8,0.9-7.4,0.2-10.2-2.8
				c-3.1-3.2-4.6-7-4-11.4c0.6-3.9,1.3-7.7,2-11.5c-2.1,4.5-3.3,9.4-3.5,14.4c-0.2,4-0.1,7.9,1.6,11.6c2.6,5.9,7.5,8.8,13.9,7.6
				c2.9-0.5,5.7-1.4,8.3-2.6c7.3-3.3,13.9-7.9,19.7-13.5c3-2.9,5-6.7,5.6-10.9c0.4-2.8,0.6-5.6,0.9-8.4c0.1-1.2,0.2-2.4,0.4-3.8
				c5,0.6,6.9-2.4,8-6.2c0.4-1.4,0.6-2.9,1-4.3c0.4-1,0.9-2,1.5-3c0.6,1.2,1.1,2.5,1.5,3.7c0.5,2.4,0.8,4.9,1.2,7.3c0.6,4,1,8,2,12
				c1.1,4.6,4,6.7,8.8,6.9s8.8-1.7,12.2-4.9c1.5-1.4,2.8-3,4.2-4.4c0.7-0.8,1.5-1.5,2.9-2.7c0.4,2,0.7,3.2,1,4.5
				c0.6,3.1,2.4,5.1,5.5,5.6c1.9,0.3,3.8,0.3,5.6,0c4.6-1,7.8-4.2,10.8-7.6c0.6-0.7,1.2-1.5,2.2-2.6c0.5,1.6,0.8,2.8,1.2,3.9
				c1.9,5.2,7.3,7,11.7,3.8c1.7-1.3,3-3.3,4.3-5.1c0.7-1.1,1.4-2.3,1.9-3.5c0.6,1.1,1,1.6,1.3,2.2c2.9,5.9,5.6,7.2,12.2,6.3
				c6.8-1,12.9-3.7,19.1-6.6c1-0.5,2.2-0.9,3.6-1.5c-0.5,3.3-1.1,6.1-1.4,8.8c-0.8,6.9-0.1,13.7,3.1,20.1c0.7,1.5,1.7,2.9,2.8,4.2
				c2.8,3,6.1,3,8.8-0.1c1.5-1.8,2.7-3.9,3.7-6c1.5-3.2,2.8-6.6,4.3-9.9c1.7-4,4.5-7.4,8.1-9.7c3-1.8,4.9-1.3,6.9,1.6
				c1.1,1.6,2,3.2,3,4.9c2,3.8,5.8,6.2,10,6.5c6.9,0.6,13.8-1,19.8-4.5c1.6-1.2,3.8-1.3,5.5-0.2c4.6,2.8,9.9,4.5,15.3,4.9
				c14.5,0.7,29,0.4,43.4-2.1c6.7-1.1,13.2-2.7,18.9-6.7c0.5-0.2,1-0.4,1.6-0.5c0.2,0.9,0.3,1.6,0.4,2.2c0.7,4.5,2.7,6.4,7.1,7.2
				c2.6,0.5,5.2,0,7.5-1.2c1.2-0.6,2.2-0.9,3.2,0.8c0-2.4,1.7-3,3.1-3.8c6.4-3.5,10.2-8.7,10.5-16.2
				C359.9,532.7,359.1,528.8,357.2,525.5 M251.6,540.8c-3.4,2.8-6.5,2.2-8.8-1.6c-0.9-1.1-0.9-2.7,0-3.8c1.5-1.9,3.3-3.7,5.1-5.3
				c1.5-1.2,2.6-0.9,3.6,0.9c1,2,1.8,4.1,2.6,6.1c-0.3,0.8-0.6,1.6-1,2.4C252.6,539.9,252.1,540.4,251.6,540.8 M268.6,549.4
				c-0.5-0.1-1-0.4-1.5-0.6c2.2-2.3,4-4.3,5.9-6.2c4.4-4.4,9.1-8.4,14.6-11.2c2.2-1.1,4.5-2,6.9-2.7c5.8-1.5,9.6,0,13.1,4.9
				c3,4.3,2.9,4.8-1.9,7.1c-9.6,4.7-20,7.5-30.6,8.2C272.9,549.1,270.7,549.3,268.6,549.4 M356,541.3c-2.8,2.6-6.2,4.2-10.4,5.9
				c-0.3-6,1.1-10.7,4.3-14.8c1.6-2,3.7-2.1,5,0.1c1.1,2,1.8,4.1,2.2,6.2C357.2,539.7,356.8,540.6,356,541.3"/>
			<path class="st0" d="M446.6,530.1c-1.7-3.3-4.2-3.6-6.7-0.9c-1,1.1-1.8,2.3-2.5,3.6c-2.4,4.5-3.7,9.4-3.9,14.5
				c-0.2,5.2-0.4,5.3-5.7,5.5c-5.5,0.2-8-1.4-9.3-6.7c-0.7-2.8-1-5.8-1.1-8.7c-0.6-14.5-0.9-29-1.5-43.5c-0.1-7.1-1.2-14.1-3.2-21
				c-0.4-1.2-0.5-2.5-2.1-3.6c-0.7,2.8-2.2,5-1.3,7.8c2.8,9.1,3.4,18.5,3.7,28c0.4,12.6,0.8,25.2,1.5,37.8c0.2,3.8,0.9,7.6,2.1,11.3
				c1.3,4.3,4.7,6.6,9.2,6.5c2.2,0,4.4-0.7,6.6-1c1,0,2,0.1,3,0.2c0.6-1.6,0.6-1.7,2.9-2.9c6.2-3.5,10.1-8.4,10.6-15.8
				C449.1,537.4,448.3,533.5,446.6,530.1 M445.3,545.3c-2.9,2.7-6.4,4.4-10.5,6.1c-0.5-5.2,1-10.5,4.2-14.6c1.8-2.4,3.9-2.3,5.4,0.2
				c1,1.8,1.6,3.7,2,5.7C446.4,543.6,446.1,544.6,445.3,545.3"/>
			<path class="st0" d="M401.4,544.7c-6.7,5.8-14.2,10.2-21.9,14.5c-4.5,2.7-9.5,4.6-14.7,5.8c-8,1.6-16,3.6-24,5.5
				c-0.8,0.2-1.6,0.1-2.3-0.2c1.3-0.6,2.6-1.2,3.9-1.8c9.5-4.1,19-8.1,28.5-12.4c9.6-4.3,18.7-9.4,27.3-15.4c2-1.5,3.9-3.1,5.7-4.7
				c1.3-1,1.7-2.8,0.9-4.2c-2.5-5.8-4.9-11.6-7.4-17.4c-0.8-2-0.7-4.4,0.8-8.5l7.7,8.1l-3.1,0.2l1.3,3.5c1,2.6,2.2,5.2,3,7.9
				C409,533,407.4,539.5,401.4,544.7"/>
			<path class="st0" d="M383.8,514.3c2.1-3.3,4.1-6.4,6-9.5s3.7-6.5,3.2-10.5c-3.5,6.2-7.4,12.2-11.5,18c-3.2-2.1-6-4.8-8.1-8
				l3.5-1.3c-3.2-2.2-5.8-4.3-9.3-5.8c-0.4,1.8-0.7,3.1-0.9,4.4c-0.3,1.6,0.1,3.2,1.1,4.4c3.2,3.8,6.4,7.8,9.8,12.1
				c-0.7,1.2-1.3,2.2-1.9,3.3c-1.3,2.5-2.7,4.9-3.8,7.5c-1.6,3.7-2.2,7.8-1.7,11.9c0.4,3.7,2.2,5.2,5.5,5
				c5.1-0.4,12.2-5.9,13.6-10.8c1.6-5.5,1.3-10.9-2.1-15.8C386.2,517.6,385,516,383.8,514.3 M387.7,531.9c-2.9,3.2-6.8,5.3-11,6.1
				c-3.8,0.6-5.5-1.7-4-5.3c2-4.5,4.5-8.7,7.6-12.4c3.1,2.5,5.7,5.5,7.7,8.9C388.7,530,388.5,531.2,387.7,531.9"/>
			<path class="st0" d="M456.7,481.7c-0.1,1.1-0.2,2.1-0.2,3.2c0.5,7.4,1.2,14.8,1.6,22.2c0.5,8.3,0.9,16.6,1,24.9
				c0,4.8-1.2,9.5-3.7,13.6c0-0.7,0-1.4,0-2.1c-0.3-9.7-0.5-19.3-0.9-29c-0.4-8.2-1.1-16.4-1.7-24.6c-0.4-5.5-1-10.9-1.5-16.4
				c-0.2-2.7,1-4.9,2.5-7.8c2.4,6.4,4.6,12.2,6.8,18c-0.3,0.2-0.5,0.3-0.8,0.5C458.9,483.4,458,482.7,456.7,481.7"/>
			<path class="st0" d="M188,466.7c-0.1,2.2-1.7,2.4-3,2.9c-8.5,3.2-17,6.4-25.5,9.7c-13.8,5.3-27.6,10.7-41.4,16.1
				c-1,0.4-1.9,0.7-3.1,1.2c-0.3-2.6,1.4-3.2,3-3.8l22.4-8.4c14.7-5.5,29.4-11.1,44.1-16.6C185.6,467.4,186.8,467.1,188,466.7"/>
			<path class="st0" d="M444.1,470.4c-0.5-0.2-0.9-0.3-1.1-0.4c-2.1-1-2.7-0.9-3.5,1.2c-0.5,1.5-1,3-1.3,4.5c-0.5,2.2-1,4.4-1.5,6.6
				c1.5,1,2.9,2.1,4.3,3.3c2,1.9,1.4,4.3-1.2,5.3c-1.4,0.5-2.8,0.8-4.2,1.3c-2.5,1-2.5,1.5-2,4.1c0.9,4.3,1.6,8.6,2.3,12.9
				c0.2,1.2,0.1,2.5-0.2,3.7c-0.9-4.9-1.7-9.8-2.6-14.7c-0.2-1-0.4-2-0.5-3c-0.3-3.2,0.7-5,3.6-6.5c0.5-0.3,0.9-0.5,1.4-0.8
				c-0.9-2.1-2.2-1.1-3.9-0.6c0.4-1.2,0.4-2.4,1-3c1.6-1.6,1.1-3.2,0.5-5c-0.5-1.3-1-2.5-1.5-3.8c-0.7-1.6-1.4-3-3.6-2.8
				c-0.7,0.1-2.1-1.2-2.1-2c0-1.1,0.6-2.1,1.5-2.7c0.9-0.3,1.9,0,2.6,0.6c1.3,1.9,2.4,4,3.5,6.1c0.3,1,0.8,1.8,1.5,2.6
				c0.5-2.1,1-4.3,1.6-6.4c0.3-1.3,0.8-2.5,1.5-3.6c0.6-0.8,1.5-1.2,2.4-1.3c0.8,0.2,1.5,1.2,1.9,2.1
				C444.5,468.7,444.2,469.6,444.1,470.4"/>
			<path class="st0" d="M350.7,469.6c-0.2,0.1-0.5,0.2-0.6,0.2c-2.8-1.4-3.4-1.2-4.4,1.6c-0.3,0.7-0.5,1.5-0.7,2.2
				c-0.6,2.7-1.2,5.5-1.8,8.2c1.4,0.9,2.8,1.9,4.1,3c2.3,2.1,1.7,4.5-1.3,5.6c-1.8,0.6-3.6,1.3-5.3,2c-0.4,0.2-0.8,0.4-1.1,0.6
				c2,7.1,3.5,13.9,2.7,20c-0.8-4.7-1.7-10.4-2.7-16c-0.2-1.1-0.4-2.2-0.4-3.3c-0.1-2.4,0.8-4.4,3.2-5.4c0.6-0.3,1.1-0.6,1.6-0.9
				c-0.8-2.2-2.3-0.9-3.8-1c0.3-1.1,0.7-2.1,1.3-3.1c0.9-0.9,1-2.3,0.5-3.4c-0.7-1.7-1.3-3.4-2-5c-0.6-1.4-1.1-2.9-3.3-2.5
				c-0.7,0.1-2.2-1.1-2.4-1.9c-0.2-0.8,0.5-2.1,1.3-2.9c0.7-0.4,1.6-0.3,2.3,0.1c1.3,1.5,2.5,3.1,3.4,4.9c0.6,1.5,1.2,3.1,1.5,4.6
				c0.4-0.7,0.7-1.4,1-2.1c0.7-2.4,1.2-4.8,2-7.1s2.2-3.1,3.3-2.7C350.5,465.8,351,467.2,350.7,469.6"/>
			<path class="st0" d="M67.1,564.3c-2-1.3-4-2.6-6.3-4.1l-2.9,4.8c-2.2-1.5-4.3-2.9-6.6-4.5c1-2,1.9-3.8,3-6.1l6.9,4.3
				c0.9-1.5,1.8-2.9,2.8-4.6c1,0.6,1.8,1,2.7,1.5C71.2,558.6,71.3,559.9,67.1,564.3"/>
			<path class="st0" d="M257.5,508.9l-3.1,6.1c-2.4-1.5-4.5-2.9-6.7-4.4c-1,1.7-1.9,3.1-3,4.8l-6.6-4.5c1-2.1,1.9-3.9,3-6.1l6.8,4.4
				c0.9-1.6,1.8-3,2.8-4.8L257.5,508.9"/>
			<path class="st0" d="M388.4,488.9c-1.1,2.1-2,3.9-3.1,6.1c-2.6-1.6-4.6-2.9-6.8-4.3l-2.9,4.7l-6.6-4.5l3-6.1l6.8,4.3
				c0.9-1.5,1.8-2.9,3-4.7L388.4,488.9"/>
			<path class="st0" d="M324,468.4c0.2,2.3-1.4,2.5-2.5,3c-5.1,2-10.3,3.9-15.4,5.8c-8,3-15.9,6.1-23.9,9.2
				c-0.7,0.3-1.4,0.4-2.3,0.7c-0.2-2.2,1.2-2.7,2.5-3.2l24-8.9C312.2,472.8,318,470.6,324,468.4"/>
			<path class="st0" d="M261.1,489c-0.6,2.5-2.3,2.7-3.7,3.2c-11,4.2-22.1,8.3-33.1,12.5c-2.5,0.9-5,2-7.7,3.1
				c-0.3-2.1,0.8-2.8,2.2-3.3c3-1.1,5.9-2.2,8.9-3.3l30-11.2C258.6,489.7,259.7,489.4,261.1,489"/>
			<path class="st0" d="M171.8,566.9c-1.4,1.5-3.2,2.5-5.2,2.8c-2,0.4-4,0.6-6,0.5c-2.7-0.2-4.1-2-3.4-4.6c0.9-2.7,1.9-5.4,3-8.1
				c0.1,0.2,0-0.1-0.1-0.2c-3.1-2.5-3.3-3.8-1-7c1.3-2,3.3-3.6,5.6-4.3v3c-1.6,0.4-3,0.3-4,1c-1.7,1.2-1.3,2.7,0.5,3.7
				c1.2,0.7,2.7,0.6,3.8-0.2c0.9-0.6,1.8-1.4,2.7-2.1c0.1,2.5,0,2.3-1.8,4.1c-2.4,2.2-4.6,4.5-6.7,7.1c-2.3,3-1.2,5.2,2.7,5.2
				C165.1,567.7,168.3,567.2,171.8,566.9"/>
			<path class="st0" d="M31.8,474.5c0.2-1.9,0.4-3.8,0.4-5.7c0.1-1-0.6-1.9-1.6-2c-0.2,0-0.4,0-0.5,0c-1.7,0.1-4.4,2.7-4.9,4.7
				c-0.7,1.9,0.2,4,2,4.9c0.6,0.4,1.1,0.9,1.6,1.3c-5.1,5.3-11.8,8.2-17.6,12.3c7.3-1.9,13.9-6,18.8-11.7c1,0.4,1.8,0.7,2.6,1
				C33.9,476.9,33.9,476.9,31.8,474.5 M27.6,472.5c-0.4-0.4-0.6-1.1-0.5-1.7c0.3-0.6,0.9-0.9,1.5-1c0.6,0,1.2,0.3,1.6,0.8
				c0.3,1.2,0.4,2.4,0.4,3.6C29.5,473.7,28.5,473.2,27.6,472.5"/>
			<path class="st0" d="M378.9,472.7c0.2-0.8,0.4-1.7,0.4-2.5c0-1.7,1-4-1.1-4.8s-3.4,1.2-4.8,2.5c-0.1,0.2-0.3,0.3-0.4,0.5
				c-1.2,1.9-1.4,4.5,0.8,6c0.7,0.5,1.4,1.1,2,1.7c-5,5.2-11.4,8-17,12c7.1-1.9,13.5-5.9,18.2-11.5l2.6,1
				C381.1,475.4,381.1,475.4,378.9,472.7 M377.5,472c-1.7,0.2-2.7-0.7-3.5-2.2c0.9-1.3,1.8-2,3-1.2
				C378.1,469.4,377.9,470.7,377.5,472"/>
			<path class="st0" d="M211.6,475.7c0.2-1.8,0.4-3.6,0.4-5.4c-0.1-2.4-1.5-3.2-3.6-1.8c-1.1,0.7-2.1,1.7-2.8,2.8
				c-1.4,2.1-1.1,3.9,0.8,5.7c0.6,0.6,1.3,1.1,2.1,1.9c-5.1,5.2-11.6,8-17.2,12c7.2-1.8,13.7-5.9,18.5-11.6c0.9,0.4,1.7,0.7,2.6,1.1
				c0.3-0.3,0.6-0.7,0.8-1.1c0.2-0.5,0.3-1,0.4-1.4C212.8,476.9,212.1,476.2,211.6,475.7 M209.7,475.2l-3.3-2.6
				c1-1.5,1.9-2.3,3.2-1.4S210.8,473.4,209.7,475.2"/>
			<path class="st0" d="M305.9,502.7c-0.9-1.1-2.4-1.4-3.7-0.9c-1.2,0.5-2.3,1.4-3.5,1.9c-0.6,0.2-1.3,0.4-2,0.5h-0.1l0,0l0.1,0.1
				c-2.3,5.6-7,6.1-12.2,5.6c0.2,0.5,0.2,0.7,0.2,0.7c0.3,0.2,0.5,0.4,0.8,0.5c6.9,3.1,12.9,0.8,18.6-3c0.7-0.6,1.2-1.3,1.6-2.1
				C306.3,505,307,503.8,305.9,502.7 M295.4,509c2.9-4.1,5.5-5.2,8.5-3.4C301.4,507.5,298.5,508.7,295.4,509"/>
			<path class="st0" d="M131.5,502.3c-0.7,1.4-2.1,1.3-3.2,1c-1.2-0.4-2.5-0.1-3.4,0.8c-1.3,1.2-3.1,1.6-4.7,1.1
				c-3.5-1.2-6.5,0-9.1,2.1c-2.4,1.9-4.5,4.1-6.7,6.1c-1,1-2.2,1.9-3.3,2.8l-0.3-0.3c3-3.2,6-6.5,9.2-9.7c1.5-1.5,3.2-2.8,5.1-3.8
				c1.6-0.8,3.4-1,5.2-0.7c3.1,0.8,5.3,0.1,6.5-2.3l4,1.3c0.3-1.5,0.6-2.5,0.9-4.1C133.2,499.1,132.2,500.7,131.5,502.3"/>
			<path class="st0" d="M186.2,554.3c-0.4,0.8-0.9,1.5-1.5,2.4l-5.4-3.7c0.7-1.8,1.3-3.3,2.1-5.1c-1.6-1.2-3.1-2.4-4.8-3.8l2.4-5
				c2,1.2,3.7,2.3,5.8,3.7c-0.8,1.9-1.4,3.4-2.2,5.2l2.6,1.9C187.4,551.4,187.5,551.8,186.2,554.3"/>
			<path class="st0" d="M360.2,555.8c-0.6,0.7-1.3,1.3-2,1.7c-10.7,4.2-21.5,8.4-32.4,12.6c-0.3-2.4,1.3-3,2.9-3.5l24.4-9l6.6-2.4
				C359.8,555.4,360,555.6,360.2,555.8"/>
			<path class="st0" d="M128.4,558.5c-7,2.7-14.1,5.4-21.1,8.1c-3.4,1.3-6.9,2.7-10.5,4.1c-0.4-2.4,1.1-3,2.7-3.5l23.4-8.7
				c2.6-1,5.2-1.9,7.9-2.8C131.1,557.8,129.5,558,128.4,558.5"/>
			<path class="st0" d="M55.7,470.4c-0.5-0.3-0.9-0.6-1.3-0.9c-0.4-0.2-0.9-0.4-1.4-0.6c-3.6,3.6-2.4,9-4.9,13.4
				c-1-2.7-1.9-5-2.9-7.4c-0.6-1.3-1.2-2.2-3-2.2c-1,0-2-1-2.8-1.4c0-0.7,0-1,0.1-1.2c1.7-3.3,3.5-3.5,5.4-0.4
				c1.4,2.2,2.2,4.8,3.5,7.8c0.4-1.2,0.7-2.1,1-3.1c0.6-2.3,1.3-4.5,2.1-6.7c0.9-2,2.1-2.5,3.3-1.9
				C56.3,466.8,56.6,468.2,55.7,470.4"/>
			<path class="st0" d="M328.1,500.4c-3.3-1.6-3.9-1.4-4.9,1.9c-0.6,1.9-0.9,3.9-1.4,5.9c-0.3,1.4-0.8,2.7-1.4,4.7
				c-1.2-3.1-2.1-5.6-3.1-8c-0.5-1.1-1-2.2-2.7-1.8c-1.5,0.3-2.3-1-3.1-2.4l2-3.2c5.1,1.6,5.4,6.3,7.2,10.9c0.7-2.4,1.1-4,1.6-5.6
				c0.4-1.6,1-3.2,1.6-4.8c0.5-1.2,1.4-2.5,3-1.9C328.2,496.5,328.6,498,328.1,500.4"/>
			<path class="st0" d="M88,489.8l-2.8-1.3c-3.8,3.7-2.4,9.2-5,13.5c-1.1-2.9-2-5.4-3.1-7.9c-0.4-0.8-1-1.4-1.8-1.7
				c-4.3-1-4.6-1.9-1.6-5.5c4.9,1.4,5,6.3,7,10.6c0.7-2.8,1.2-4.8,1.7-6.8c0.3-1.2,0.7-2.4,1.2-3.5c0.6-1.2,1.4-2.4,3.1-1.9
				c1.5,0.4,1.9,1.9,1.2,4.3"/>
			<path class="st0" d="M34.3,535.8c0,0.5-0.1,1-0.3,1.5c-0.3,0-0.7-0.1-1-0.2c-2.4-1.2-3.1-1.1-3.9,1.4c-0.7,2-1,4.1-1.6,6.2
				c-0.3,1.6-0.9,3.1-1.7,4.5c-0.8-2.1-1.6-4.2-2.4-6.3c-0.7-1.7-1.2-3.3-3.7-3c-0.8,0.1-1.7-1.1-2.6-1.8c0.2-0.6,0.5-1.2,0.8-1.8
				c1.2-1.9,2.5-2.2,4-0.4c1.2,1.6,2.2,3.3,3,5.2c0.4,1.2,1,2.3,1.8,3.4c0.4-1.6,0.8-3.1,1.2-4.7c0.4-1.7,1-3.4,1.8-5
				c0.5-0.9,1.4-1.6,2.5-1.8C33.5,533,34.3,534.3,34.3,535.8"/>
			<path class="st0" d="M243.1,472.5c-0.4-0.2-0.8-0.4-1.1-0.5c-1.9-0.9-2.4-0.9-3.1,0.9c-0.8,2.2-1.4,4.5-1.9,6.8
				c-0.4,1.6-0.8,3.2-1.4,5.5c-1.2-3.2-2.2-5.7-3.2-8.2c-0.3-1.3-1.5-2.1-2.7-2c-1,0-2-0.9-2.8-1.4c0-0.4,0-0.8,0-1.2
				c1.2-3.9,3.8-3.1,5.4-0.4c1.3,2.4,2.4,4.9,3.4,7.5c0.3-0.5,0.6-1,0.9-1.6c0.5-1.9,0.9-3.7,1.4-5.5c0.2-0.8,0.5-1.5,0.8-2.2
				c1-2,2.1-2.7,3.3-2.2C243.3,468.6,243.7,470,243.1,472.5"/>
			<path class="st0" d="M428,540.2c-0.2,0.6-0.5,1.3-0.9,1.8c-1.4,1.8-3.2,1.5-3.7-0.6c-0.4-1.7-0.5-3.5-0.2-5.3
				c0.4-2.2,1-4.4,1.9-6.5c2.4-6.2,1.5-11.9-2.8-17c-1.1-1.2-2.2-2.4,0-4.1c3,2.5,4.8,6.2,5.1,10.1c0.4,3.9-0.2,7.9-1.6,11.6
				c-0.7,1.7-1.2,3.4-1.6,5.1C423.5,538.8,424.5,540,428,540.2"/>
			<path class="st0" d="M7.8,514.2c-0.5,1.4-0.9,2.6-1.3,3.7c-3.1-0.3-3.6-0.6-3.7-3.2c0-1.9,0.1-3.8,0.5-5.7
				c0.4-1.7,0.9-3.3,1.5-4.8c2.4-5.6,1.4-12.1-2.8-16.7c-1-1.2-2.3-2.4-0.2-4.3c3.5,2.7,5.4,6.9,5.2,11.3c0,3.1-0.8,6.2-1.4,9.2
				c-0.2,1.4-1,2.7-1.4,4.1c-0.4,1.3-0.5,2.6-0.5,4C3.8,514.5,4.7,515.1,7.8,514.2"/>
			<path class="st0" d="M210.5,526.4c-0.2,0.5-0.2,1.2-0.5,1.5c-0.7,0.6-1.7,1.6-2.3,1.4c-0.9-0.4-1.5-1.2-1.7-2.1
				c-0.2-2-0.1-4,0.2-6c0.3-1.8,0.8-3.5,1.6-5.1c2.5-6.4,1.6-12.1-2.9-17.2c-1.1-1.3-2.1-2.5,0.1-3.9c3,2.1,4.3,5.2,4.9,8.7
				c0.7,4,0.3,8.1-1.2,11.9c-0.9,2.1-1.5,4.2-2,6.4C206.1,525,207.3,526.3,210.5,526.4"/>
			<path class="st0" d="M459.7,554.6c-0.4,3.1-3.1,3.5-4.8,4.9c-1.7,1.3-3.8,2.6-6.1,4.1c-0.3-2,1.4-2.5,1.9-3.8
				c-0.4-0.3-0.8-0.7-1.1-1c-1.5-1.4-1.9-2.4-0.8-4.1c1.1-1.5,2.4-2.9,3.8-4.2c0.8-0.7,2.1-1.5,3-0.4c0.6,0.6,0.4,1.9,0.7,3.4
				c-3.8-1-3.9-1-5.8,1.6C453.6,559.3,456.6,555.7,459.7,554.6"/>
			<path class="st0" d="M50.9,499c-0.7-0.6-1.2-1.3-1.8-1.9c0.4-1.3,0.7-2.4,1.1-3.6c-2.9,4-4.7,8.7-5,13.6
				c-0.3,3.1,1.8,4.4,4.5,2.9c1.2-0.7,2.2-1.8,2.8-3.1C53.8,504.3,53.2,501,50.9,499 M48.1,507.3c-0.9,0.3-1.8-0.2-2.1-1.1
				c-0.1-0.3-0.1-0.6,0-0.8c0.3-1.5,0.7-3,1.3-4.5c2.4,0.7,4.1,1.7,5,3.8C51.4,506.2,49.8,507.2,48.1,507.3"/>
			<path class="st0" d="M333.2,524.2c-0.7,1.6-1.5,3.2-2.4,4.7l-6.8-4.7c1-2.1,1.9-3.9,3-6.1c2.1,1.4,3.9,2.5,5.5,3.8
				C333.1,522.5,333.3,523.4,333.2,524.2"/>
			<path class="st0" d="M457.8,563.2c-10.7,7.9-10.7,7.9-14.4,7.7c5.6-3.9,10.7-7.4,16.1-11C459.9,562,458.7,562.5,457.8,563.2"/>
			<path class="st0" d="M296.6,504.3c0.1-0.2,0.1-0.4,0.2-0.6C296.7,503.9,296.7,504.1,296.6,504.3
				C296.7,504.3,296.7,504.4,296.6,504.3L296.6,504.3L296.6,504.3"/>
			<path class="st0" d="M298.9,496.7c-0.5,2.4-1.4,4.7-2.2,7c0.1-0.9,0.3-1.8,0.5-2.6c1-4.1-0.3-5.5-4.5-4.5
				c0.2-0.6,0.4-1.3,0.7-1.8c0.9-1.2,2-2.3,3.7-1.7C298.6,493.6,299.3,495.2,298.9,496.7"/>
			<path class="st0" d="M8.5,530.6c-0.3,0.8-0.4,1.6-0.8,2.1c-0.5,0.4-1.7,1.2-2.2,1c-0.9-0.3-1.6-1.1-1.8-2c0-2.3,0.1-4.7,0.4-7
				c0.2-0.9,0.4-1.7,0.8-2.5h0.2c-0.3,1.7-0.4,3.5-0.5,5.2C4.5,530.2,5.2,530.7,8.5,530.6"/>
			<path class="st0" d="M80,480.6c-0.7,2-1.1,3.8-3.3,3.7c-1.3,0-2.1-1.7-2.1-4.1c-0.1-2.3,0.4-4.6,1.5-6.7c-0.2,1.7-0.3,3.3-0.3,5
				C76,481,77,481.5,80,480.6"/>
			<path class="st0" d="M29.2,514.5c-0.5,1.7-0.9,3.4-3,3.5c-1.4,0.1-2.4-1.7-2.3-4.3c0.1-2.2,0.6-4.4,1.5-6.5
				c-0.2,1.4-0.3,2.7-0.4,4.1C25.1,514.4,26.2,515.3,29.2,514.5"/>
			<path class="st0" d="M322.2,490.8c-1,1.9-1.3,3.9-3.5,3.4c-1.9-0.4-1.8-2.3-1.9-3.9c-0.2-2.9,0.4-5.8,1.7-8.4
				c-0.3,1.9-0.5,3.9-0.6,5.8C317.9,490.9,318.8,491.5,322.2,490.8"/>
			<path class="st0" d="M246.9,568.6c-1,2.7-1.8,3.6-3.1,3.2c-1.9-0.6-2-2.3-1.9-3.8c0.2-2.7,0.6-5.3,1-7.9l0.7,0.1
				c-0.2,1.5-0.5,3.1-0.6,4.7C242.9,568.2,243.6,568.9,246.9,568.6"/>
			<path class="st0" d="M102.8,475.2c1.9-3.1,1.4-4.2-2.7-4.7c0.6-1,0.8-1.9,1.4-2.2c0.8-0.5,1.8-0.6,2.7-0.4c0.6,0.2,1,1.4,1.1,2.2
				c0.2,2.3-1,4.5-4,7.4C101.8,476.7,102.3,476,102.8,475.2"/>
			<path class="st0" d="M124.1,480.6c-0.3,0.7-0.4,1.4-0.8,1.8c-0.7,0.6-1.8,1.3-2.4,1.1c-0.9-0.4-1.5-1.2-1.7-2.1
				c-0.5-3.1,0-6.4,1.5-9.2c-0.3,1.5-0.5,3.1-0.6,4.6C120,480.1,120.6,480.6,124.1,480.6"/>
			<path class="st0" d="M206.6,569.3c-0.9,1.9-1.3,4-3.5,3.5c-2.2-0.5-1.8-2.5-1.9-4.2c-0.1-2.7,0.4-5.4,1.6-7.8
				c-0.3,1.9-0.4,3.8-0.5,5.7C202.4,569.6,203.2,570.1,206.6,569.3"/>
			<path class="st0" d="M230,531.2c-0.2,0.7-0.2,1.4-0.6,1.8c-0.6,0.7-1.5,1.2-2.4,1.4c-1.3,0-1.8-1.2-1.9-2.4
				c-0.5-3,0.1-6.2,1.5-8.9c-0.3,1.6-0.4,3.3-0.5,4.9C226.1,530.8,226.8,531.3,230,531.2"/>
			<path class="st0" d="M144.4,561.1c-0.1,2.6-1.6,4.5-3.2,6.3c2.6-4.7,2.4-5.7-1.9-6.2c0.3-0.6,0.4-1.5,0.9-1.8
				c0.8-0.6,1.9-1,2.9-1C144.4,558.6,144.4,560,144.4,561.1"/>
			<path class="st0" d="M83,529.1c-0.3,0.7-0.4,1.1-0.7,1.5c-0.6,1-1.4,2.1-2.6,1.5c-0.9-0.5-1.6-1.4-1.8-2.5c-0.5-3,0-6.1,1.5-8.8
				c-0.3,1.5-0.4,3.1-0.5,4.7C78.9,528.6,79.6,529.2,83,529.1"/>
			<path class="st0" d="M87.6,568.5c-0.2,0.7-0.2,1.4-0.6,1.8c-0.6,0.7-1.4,1.3-2.3,1.5c-1.3,0-1.8-1.2-2-2.3
				c-0.5-2.1,0.1-5.8,1.5-9.3c-0.3,1.9-0.4,3.7-0.5,5.6C83.8,568.3,84.6,568.8,87.6,568.5"/>
			<path class="st0" d="M396.2,569.9c-0.1,0.3-0.2,0.6-0.3,0.9c-0.5,1.1-1.2,2.3-2.7,2c-1.5-0.3-1.9-1.7-2-3.1
				c-0.3-2.9,0.3-5.7,1.6-8.3c-0.2,1.3-0.5,2.6-0.6,4C392,568.9,392.8,569.7,396.2,569.9"/>
			<path class="st0" d="M399.5,480.8c-0.6,1.6-0.9,3.4-3.1,3.5c-1.4,0-2.2-1.6-2.1-4.4c0-1.2,0.1-2.5,0.3-3.7
				c0.1-0.6,0.3-1.3,0.5-1.9h0.3c0,1.1,0,2.2,0,3.3C395.5,481,396.2,481.5,399.5,480.8"/>
			<path class="st0" d="M112.9,529.9c-0.6,1.5-1.1,3.2-3.1,2.9c-2-0.4-2-2.3-1.9-3.8c0.2-2.7,0.7-5.5,1-8.2l0.7,0.1
				c-0.3,1.8-0.5,3.7-0.6,5.6c0,3,1,3.6,3.9,2.9C112.9,529.5,113,529.7,112.9,529.9"/>
			<path class="st0" d="M312.7,567.1L312.7,567.1l0.1-0.1c0.1-0.1,0.2-0.3,0.3-0.4c2-3.2,1.6-4.2-2.1-4.9c-0.1-1.4,1-2.7,2.5-2.8
				c0.1,0,0.1,0,0.2,0c1-0.2,2,0.5,2.2,1.5c0,0,0,0,0,0C316.4,562.6,314.9,565.7,312.7,567.1"/>
			<path class="st0" d="M259.1,480.3c0,0.3-0.1,0.7-0.1,1c-0.6,1.2-1.1,2.7-2.8,2.4s-2.1-1.8-2.1-3.4c0-1.2,0-2.5,0.1-3.7
				c0.1-0.8,0.4-1.6,0.9-2.3c0,1,0,2,0,2.9C255.2,480.3,255.9,480.9,259.1,480.3"/>
			<path class="st0" d="M32.5,492.4c1.8-4.1,2.1-5.4-2.5-5.5c0.5-0.9,0.7-1.9,1.4-2.3c0.8-0.5,1.8-0.7,2.7-0.5
				c0.6,0.2,1,1.4,1.1,2.2C35.4,488.1,34.6,489.7,32.5,492.4"/>
			<path class="st0" d="M132.2,520.8l0.1-0.1C132.3,520.8,132.3,520.8,132.2,520.8L132.2,520.8"/>
			<path class="st0" d="M134.9,515.1c0.1,2.3-0.4,4.3-2.6,5.6l0,0c0.1-0.1,0.2-0.3,0.2-0.5c1.4-3.3,1.2-3.8-2.8-4.5
				c0.4-0.9,1-1.7,1.6-2.4c0.9-0.8,2.3-0.7,3,0.2C134.8,514,135,514.6,134.9,515.1"/>
			<path class="st0" d="M409.2,568.1c1.5-4.8,1.9-5.5-2.6-5.8c0.4-0.9,1-1.7,1.7-2.4c0.9-0.8,2.2-0.8,3,0.1c0.4,0.4,0.6,1,0.6,1.6
				C412,564,410.8,565.8,409.2,568.1"/>
			<path class="st0" d="M288.3,468.3c-0.4,1.8-0.8,3.6-1.4,5.3l-0.7-0.2c1.2-3.8,1-4.1-2.9-4.7c0.4-0.7,0.6-1.6,1.2-2
				c0.8-0.5,1.8-0.7,2.7-0.6C287.9,466.6,288.3,467.4,288.3,468.3"/>
			<path class="st0" d="M225.5,565.6c-0.7-2.9-0.7-2.9-3.7-3.3c0-1.2,0.8-2.4,2-2.8c1-0.6,2.2-0.2,2.7,0.7c0.2,0.3,0.3,0.6,0.3,0.9
				C227,562.7,226.6,564.4,225.5,565.6"/>
			<path class="st0" d="M177.4,518.1l0.1-0.1C177.5,518.1,177.5,518.2,177.4,518.1L177.4,518.1z"/>
			<path class="st0" d="M177.6,518c0.1-0.2,0.2-0.5,0.2-0.8c0.7-2.5,0.6-2.8-2-3.3c-0.3-0.1-0.6-0.1-1.4-0.4
				c0.6-0.9,1.3-1.8,2.1-2.5c0.9-0.6,2.1-0.5,2.7,0.4c0.3,0.4,0.4,0.8,0.4,1.2C179.8,514.8,179.6,516.8,177.6,518"/>
			<path class="st0" d="M278.9,566c0.1-0.3,0.2-0.5,0.2-0.8c0.6-2.6,0.5-2.8-2.1-3.3c-0.3-0.1-0.6-0.2-1.3-0.4
				c0.5-0.9,1.1-1.6,1.9-2.3c0.8-0.7,2.1-0.6,2.8,0.2c0.4,0.4,0.5,1,0.5,1.5C281,563,280.9,564.9,278.9,566"/>
			<path class="st0" d="M130.8,522.7l1.2-1.5l0,0c-0.2,0.6-0.5,1.2-0.7,1.8C131.1,522.8,131,522.7,130.8,522.7"/>
			<path class="st0" d="M132.2,520.9L132.2,520.9c-0.1,0.1-0.1,0.2-0.2,0.2L132.2,520.9L132.2,520.9"/>
			<path class="st0" d="M176.1,520.1l1.2-1.6c-0.2,0.6-0.4,1.2-0.6,1.8L176.1,520.1"/>
			<path class="st0" d="M177.5,518.2l-0.2,0.3C177.3,518.4,177.4,518.3,177.5,518.2L177.5,518.2z"/>
		</g>
	</g>
</g>
</svg>
