<svg xmlns="http://www.w3.org/2000/svg" viewBox="0 0 47.46 47.46"><defs><style>.cls-1{fill:none;stroke:#d9e73c;stroke-miterlimit:10;}.cls-2{fill:#d9e73c;}</style></defs><g id="Layer_2" data-name="Layer 2"><g id="Layer_1-2" data-name="Layer 1"><path class="cls-1" d="M23.73,47h0A23.23,23.23,0,0,1,.5,23.73h0A23.23,23.23,0,0,1,23.73.5h0A23.23,23.23,0,0,1,47,23.73h0A23.23,23.23,0,0,1,23.73,47Z"/><path class="cls-2" d="M23.73,14.47c3,0,3.37,0,4.57.07a6.07,6.07,0,0,1,2.09.39,3.43,3.43,0,0,1,1.3.84,3.54,3.54,0,0,1,.85,1.3,6.68,6.68,0,0,1,.39,2.1c0,1.19.06,1.55.06,4.56s0,3.37-.06,4.57a6.6,6.6,0,0,1-.39,2.09,3.79,3.79,0,0,1-2.15,2.15,6.32,6.32,0,0,1-2.09.39c-1.2,0-1.55.06-4.57.06s-3.37,0-4.56-.06a6.4,6.4,0,0,1-2.1-.39,3.54,3.54,0,0,1-1.3-.85,3.43,3.43,0,0,1-.84-1.3,6.07,6.07,0,0,1-.39-2.09c-.06-1.2-.07-1.55-.07-4.57s0-3.37.07-4.56a6.14,6.14,0,0,1,.39-2.1,3.68,3.68,0,0,1,2.14-2.14,6.14,6.14,0,0,1,2.1-.39c1.19-.06,1.55-.07,4.56-.07m0-2c-3.07,0-3.45,0-4.66.07a8.17,8.17,0,0,0-2.74.52,5.75,5.75,0,0,0-3.3,3.3,8.17,8.17,0,0,0-.52,2.74c-.06,1.21-.07,1.59-.07,4.66s0,3.45.07,4.66A8.17,8.17,0,0,0,13,31.13a5.75,5.75,0,0,0,3.3,3.3,8.4,8.4,0,0,0,2.74.53c1.21,0,1.59.07,4.66.07s3.45,0,4.66-.07a8.4,8.4,0,0,0,2.74-.53,5.75,5.75,0,0,0,3.3-3.3A8.4,8.4,0,0,0,35,28.39c0-1.21.07-1.59.07-4.66s0-3.45-.07-4.66a8.4,8.4,0,0,0-.53-2.74,5.75,5.75,0,0,0-3.3-3.3,8.17,8.17,0,0,0-2.74-.52c-1.21-.06-1.59-.07-4.66-.07"/><path class="cls-2" d="M23.73,17.93a5.8,5.8,0,1,0,5.8,5.8,5.8,5.8,0,0,0-5.8-5.8m0,9.57a3.77,3.77,0,1,1,3.77-3.77,3.76,3.76,0,0,1-3.77,3.77"/><path class="cls-2" d="M31.12,17.7a1.36,1.36,0,1,1-2.71,0,1.36,1.36,0,0,1,2.71,0"/></g></g></svg>