<svg xmlns="http://www.w3.org/2000/svg" viewBox="0 0 47.46 47.46"><defs><style>.cls-1{fill:none;stroke:#d9e73c;stroke-miterlimit:10;}.cls-2{fill:#d9e73c;}</style></defs><g id="Layer_2" data-name="Layer 2"><g id="Layer_1-2" data-name="Layer 1"><path class="cls-1" d="M23.73,47h0A23.23,23.23,0,0,1,.5,23.73h0A23.23,23.23,0,0,1,23.73.5h0A23.23,23.23,0,0,1,47,23.73h0A23.23,23.23,0,0,1,23.73,47Z"/><path class="cls-2" d="M12.76,31.57a12.81,12.81,0,0,0,19.7-11.38,9.07,9.07,0,0,0,2.25-2.33,9,9,0,0,1-2.59.71,4.54,4.54,0,0,0,2-2.49,8.84,8.84,0,0,1-2.86,1.09,4.51,4.51,0,0,0-7.67,4.11,12.8,12.8,0,0,1-9.29-4.71,4.52,4.52,0,0,0,1.4,6,4.51,4.51,0,0,1-2-.57,4.51,4.51,0,0,0,3.61,4.48,4.46,4.46,0,0,1-2,.07,4.5,4.5,0,0,0,4.2,3.13A9,9,0,0,1,12.76,31.57Z"/></g></g></svg>