<svg xmlns="http://www.w3.org/2000/svg" viewBox="0 0 47.46 47.46"><defs><style>.cls-1{fill:none;stroke:#d9e73c;stroke-miterlimit:10;}.cls-2{fill:#d9e73c;fill-rule:evenodd;}</style></defs><g id="Layer_2" data-name="Layer 2"><g id="Layer_1-2" data-name="Layer 1"><path class="cls-1" d="M23.73,47h0A23.23,23.23,0,0,1,.5,23.73h0A23.23,23.23,0,0,1,23.73.5h0A23.23,23.23,0,0,1,47,23.73h0A23.23,23.23,0,0,1,23.73,47Z"/><path class="cls-2" d="M37.79,22.61a13.45,13.45,0,0,0-26.88-.25c0,.2,0,.39,0,.59a13.24,13.24,0,0,0,1.92,6.89L10.4,37l7.45-2.37A13.45,13.45,0,0,0,37.79,23ZM24.35,34.17a11.27,11.27,0,0,1-6.23-1.86L13.78,33.7l1.41-4.17A11.14,11.14,0,0,1,13,23c0-.37,0-.73.05-1.09a11.32,11.32,0,0,1,22.53.21c0,.29,0,.58,0,.88A11.27,11.27,0,0,1,24.35,34.17Z"/><path class="cls-2" d="M30.51,25.64c-.33-.16-2-1-2.25-1.06s-.53-.17-.75.16-.85,1.07-1,1.28-.39.25-.72.08a8.76,8.76,0,0,1-2.65-1.62,9.7,9.7,0,0,1-1.83-2.26.48.48,0,0,1,.14-.67c.15-.15.33-.39.5-.57l.12-.16c.07-.12.13-.23.21-.39a.6.6,0,0,0,0-.57c-.08-.17-.74-1.78-1-2.44s-.55-.54-.74-.54-.41,0-.63,0a1.2,1.2,0,0,0-.88.41A3.63,3.63,0,0,0,17.78,20,4.22,4.22,0,0,0,18,21.11a7.86,7.86,0,0,0,1.18,2.27c.17.21,2.28,3.62,5.63,4.94s3.36.87,4,.81a3.29,3.29,0,0,0,2.22-1.55,2.74,2.74,0,0,0,.2-1.56C31.06,25.89,30.84,25.81,30.51,25.64Z"/></g></g></svg>